<svg xmlns="http://www.w3.org/2000/svg" xmlns:xlink="http://www.w3.org/1999/xlink" width="108" height="110" viewBox="0 0 54 55">
    <defs>
        <path id="my7vezqtoa" d="M0 0.117L53.883 0.117 53.883 54 0 54z"/>
        <path id="wf22rc3tuc" d="M0.093 0.089L50.883 0.089 50.883 50 0.093 50z"/>
    </defs>
    <g fill="none" fill-rule="evenodd">
        <g>
            <g>
                <g>
                    <g transform="translate(-63 -318) translate(0 64) translate(63 254)">
                        <mask id="gh7bvxylmb" fill="#fff">
                            <use xlink:href="#my7vezqtoa"/>
                        </mask>
                        <path fill="#FCDE2C" d="M53.883 27.058C53.883 41.938 41.821 54 26.942 54 12.062 54 0 41.938 0 27.058S12.062.116 26.942.116 53.883 12.18 53.883 27.058" mask="url(#gh7bvxylmb)"/>
                    </g>
                    <g transform="translate(-63 -318) translate(0 64) translate(63 254) translate(3 4)">
                        <mask id="ixtfuk3cvd" fill="#fff">
                            <use xlink:href="#wf22rc3tuc"/>
                        </mask>
                        <path fill="#F79A1C" d="M36.964.09c2.182 3.839 3.438 8.256 3.438 12.966 0 14.715-12.14 26.644-27.114 26.644C8.495 39.7 4 38.467.093 36.322 4.728 44.478 13.588 50 23.769 50c14.974 0 27.114-11.93 27.114-26.644 0-10.006-5.62-18.712-13.919-23.267" mask="url(#ixtfuk3cvd)"/>
                    </g>
                    <path fill="#FEFEFE" d="M19 11c0 2.21-1.79 4-4 4s-4-1.79-4-4 1.79-4 4-4 4 1.79 4 4M12 16c0 1.105-.895 2-2 2s-2-.895-2-2 .895-2 2-2 2 .895 2 2" transform="translate(-63 -318) translate(0 64) translate(63 254)"/>
                </g>
            </g>
        </g>
    </g>
</svg>
