<svg xmlns="http://www.w3.org/2000/svg" xmlns:xlink="http://www.w3.org/1999/xlink" width="2372" height="200" viewBox="0 0 1186 100">
    <defs>
        <path id="7i6t34jjya" d="M0 0H1186V100H0z"/>
        <path id="34113fh8jc" d="M0.082 0.583H50.044000000000004V252.309H0.082z"/>
        <path id="f0a7wkog8e" d="M0.185 0.583H22.668V252.309H0.185z"/>
        <path id="lmonlj3aig" d="M0.025 0.583H44.99V252.309H0.025z"/>
        <path id="0vvekmsdci" d="M0.04 0.583H6.285V252.309H0.04z"/>
        <path id="92lbz083yk" d="M0.841 0.583H34.565V252.309H0.841z"/>
        <path id="hbwy787z0m" d="M0.899 0.583H52.11V252.309H0.899z"/>
        <path id="zbgv80sj2o" d="M0.661 0.583H8.155V252.309H0.661z"/>
        <path id="1bu55f0teq" d="M0.979 0.583H50.941V252.309H0.979z"/>
        <path id="tcqma77q5s" d="M0.912 0.583H50.874V252.309H0.912z"/>
        <path id="cuvvwxwoju" d="M0.511 0.583H34.235V252.309H0.511z"/>
        <path id="dvancfd93w" d="M0.055 0.583H51.266V252.309H0.055z"/>
        <path id="7lhjy67xly" d="M0.817 0.583H8.311V252.309H0.817z"/>
        <path id="vjxzidqpbA" d="M0.136 0.583H50.098000000000006V252.309H0.136z"/>
        <path id="nbylsiggdC" d="M0.071 0.583H50.033V252.309H0.071z"/>
        <linearGradient id="pg9rkusuad" x1="50%" x2="50%" y1="-3.37%" y2="47.289%">
            <stop offset="0%" stop-color="#B3DFD2"/>
            <stop offset="100%" stop-color="#B7E0D5"/>
        </linearGradient>
        <linearGradient id="6qjebbu8hf" x1="-2817.917%" x2="-2817.917%" y1="-3.37%" y2="47.289%">
            <stop offset="0%" stop-color="#B3DFD2"/>
            <stop offset="100%" stop-color="#B7E0D5"/>
        </linearGradient>
        <linearGradient id="g91gq3ll4h" x1="-917.292%" x2="-917.292%" y1="-3.37%" y2="47.289%">
            <stop offset="0%" stop-color="#B3DFD2"/>
            <stop offset="100%" stop-color="#B7E0D5"/>
        </linearGradient>
        <linearGradient id="omq5q32g2j" x1="-5654.499%" x2="-5654.499%" y1="-3.37%" y2="47.289%">
            <stop offset="0%" stop-color="#B3DFD2"/>
            <stop offset="100%" stop-color="#B7E0D5"/>
        </linearGradient>
        <linearGradient id="8hy5z9xtyl" x1="-695.277%" x2="-695.277%" y1="-3.37%" y2="47.289%">
            <stop offset="0%" stop-color="#B3DFD2"/>
            <stop offset="100%" stop-color="#B7E0D5"/>
        </linearGradient>
        <linearGradient id="wmhgax3iwn" x1="-229.122%" x2="-229.122%" y1="-3.37%" y2="47.289%">
            <stop offset="0%" stop-color="#B3DFD2"/>
            <stop offset="100%" stop-color="#B7E0D5"/>
        </linearGradient>
        <linearGradient id="tk8oska3yp" x1="-840.67%" x2="-840.67%" y1="-3.37%" y2="47.289%">
            <stop offset="0%" stop-color="#B3DFD2"/>
            <stop offset="100%" stop-color="#B7E0D5"/>
        </linearGradient>
        <linearGradient id="t8eac1jiir" x1="186.399%" x2="186.399%" y1="-3.37%" y2="47.289%">
            <stop offset="0%" stop-color="#B3DFD2"/>
            <stop offset="100%" stop-color="#B7E0D5"/>
        </linearGradient>
        <linearGradient id="1c6wnt07ut" x1="1675.813%" x2="1675.813%" y1="-3.37%" y2="47.289%">
            <stop offset="0%" stop-color="#B3DFD2"/>
            <stop offset="100%" stop-color="#B7E0D5"/>
        </linearGradient>
        <linearGradient id="pe2hateqmv" x1="2936.128%" x2="2936.128%" y1="-3.37%" y2="47.289%">
            <stop offset="0%" stop-color="#B3DFD2"/>
            <stop offset="100%" stop-color="#B7E0D5"/>
        </linearGradient>
        <linearGradient id="q0dgesb4rx" x1="50%" x2="50%" y1="-3.37%" y2="47.289%">
            <stop offset="0%" stop-color="#FFF"/>
            <stop offset="100%" stop-color="#FFF"/>
        </linearGradient>
        <linearGradient id="k0k8v7nygz" x1="6067.133%" x2="6067.133%" y1="-3.37%" y2="47.289%">
            <stop offset="0%" stop-color="#FFF"/>
            <stop offset="100%" stop-color="#FFF"/>
        </linearGradient>
        <linearGradient id="f6668t0h0B" x1="1222.57%" x2="1222.57%" y1="-3.37%" y2="47.289%">
            <stop offset="0%" stop-color="#FFF"/>
            <stop offset="100%" stop-color="#FFF"/>
        </linearGradient>
        <linearGradient id="825k4brhpD" x1="2471.785%" x2="2471.785%" y1="-3.37%" y2="47.289%">
            <stop offset="0%" stop-color="#FFF"/>
            <stop offset="100%" stop-color="#FFF"/>
        </linearGradient>
    </defs>
    <g fill="none" fill-rule="evenodd">
        <g>
            <g transform="translate(-180 -509) translate(180 509)">
                <mask id="kbfohfje1b" fill="#fff">
                    <use xlink:href="#7i6t34jjya"/>
                </mask>
                <g mask="url(#kbfohfje1b)">
                    <g>
                        <path fill="#10A698" fill-rule="nonzero" d="M0.069 5.716H1447.629V302.298H0.069z" transform="translate(-133 -1)"/>
                        <path fill="#157F76" fill-rule="nonzero" d="M1498.71 77.765L202.649 77.765 1498.71 66.184z" transform="translate(-133 -1)"/>
                        <path fill="#8DD0C9" fill-rule="nonzero" d="M1261.48 38.669s36.754 1.984 82.093 1.984c45.34 0 82.094-1.984 82.094-1.984s-36.755-1.985-82.094-1.985c-45.34 0-82.094 1.985-82.094 1.985zM715.326 58.313s97.931 1.984 218.735 1.984c120.804 0 218.735-1.984 218.735-1.984s-97.931-1.985-218.735-1.984c-120.804 0-218.735 1.984-218.735 1.984zM349.577 19.616S447.508 21.6 568.312 21.6c120.804 0 218.734-1.984 218.734-1.984s-97.93-1.985-218.734-1.985-218.735 1.985-218.735 1.985zM988.198 87.863s97.93 1.984 218.734 1.984 218.735-1.984 218.735-1.984-97.931-1.985-218.735-1.985c-120.803 0-218.734 1.985-218.734 1.985zM482.408 71.974s97.93 1.985 218.734 1.985 218.735-1.985 218.735-1.985-97.931-1.984-218.735-1.984c-120.804 0-218.734 1.984-218.734 1.984zM421.69 85.878s97.93 1.985 218.734 1.985c120.803 0 218.734-1.985 218.734-1.985s-97.93-1.984-218.734-1.984-218.735 1.984-218.735 1.984zM603.737 31.443s97.93 1.984 218.734 1.984 218.735-1.984 218.735-1.984-97.93-1.985-218.735-1.985c-120.803 0-218.734 1.985-218.734 1.985zM293.272 42.025s97.931 1.984 218.735 1.984c120.803 0 218.734-1.984 218.734-1.984s-97.93-1.985-218.734-1.985-218.735 1.985-218.735 1.985zM536.815 48.185s61.916.774 138.293.774c76.378 0 138.294-.774 138.294-.774s-61.916-.775-138.294-.775c-76.377 0-138.293.775-138.293.775zM121.036 60.297s61.916.775 138.293.775c76.378 0 138.294-.775 138.294-.775s-61.916-.774-138.294-.774c-76.377 0-138.293.774-138.293.774zM361.666 55.115s32.384 3.139 72.33 3.139c39.948 0 72.331-3.139 72.331-3.139s-32.383-3.139-72.33-3.139c-39.947 0-72.33 3.14-72.33 3.14zM1139.052 42.127s23.84 1.138 53.25 1.138 53.25-1.138 53.25-1.138-23.84-1.14-53.25-1.14c-29.41.001-53.25 1.14-53.25 1.14z" transform="translate(-133 -1)"/>
                        <g opacity=".3">
                            <g transform="translate(-133 -1) translate(898 6) translate(338)">
                                <path fill="url(#pg9rkusuad)" fill-rule="nonzero" d="M0.082 0.583H50.044000000000004V252.309H0.082z"/>
                            </g>
                            <g transform="translate(-133 -1) translate(898 6) translate(203)">
                                <path fill="url(#6qjebbu8hf)" fill-rule="nonzero" d="M0.185 0.583H22.668V252.309H0.185z"/>
                            </g>
                            <g transform="translate(-133 -1) translate(898 6) translate(87)">
                                <path fill="url(#g91gq3ll4h)" fill-rule="nonzero" d="M0.025 0.583H44.99V252.309H0.025z"/>
                            </g>
                            <g transform="translate(-133 -1) translate(898 6) translate(67)">
                                <path fill="url(#omq5q32g2j)" fill-rule="nonzero" d="M0.04 0.583H6.285V252.309H0.04z"/>
                            </g>
                            <g transform="translate(-133 -1) translate(898 6)">
                                <path fill="url(#8hy5z9xtyl)" fill-rule="nonzero" d="M0.841 0.583H34.565V252.309H0.841z"/>
                            </g>
                        </g>
                        <g opacity=".3">
                            <g transform="translate(-133 -1) translate(286 6) translate(549)">
                                <path fill="url(#wmhgax3iwn)" fill-rule="nonzero" d="M0.899 0.583H52.11V252.309H0.899z"/>
                            </g>
                            <g transform="translate(-133 -1) translate(286 6) translate(533)">
                                <path fill="url(#tk8oska3yp)" fill-rule="nonzero" d="M0.661 0.583H8.155V252.309H0.661z"/>
                            </g>
                            <g transform="translate(-133 -1) translate(286 6) translate(444)">
                                <path fill="url(#t8eac1jiir)" fill-rule="nonzero" d="M0.979 0.583H50.941V252.309H0.979z"/>
                            </g>
                            <g transform="translate(-133 -1) translate(286 6) translate(72)">
                                <path fill="url(#1c6wnt07ut)" fill-rule="nonzero" d="M0.912 0.583H50.874V252.309H0.912z"/>
                            </g>
                            <g transform="translate(-133 -1) translate(286 6)">
                                <path fill="url(#pe2hateqmv)" fill-rule="nonzero" d="M0.511 0.583H34.235V252.309H0.511z"/>
                            </g>
                        </g>
                        <g opacity=".3">
                            <g transform="translate(-133 -1) translate(160 6) translate(417)">
                                <path fill="url(#q0dgesb4rx)" fill-rule="nonzero" d="M0.055 0.583H51.266V252.309H0.055z"/>
                            </g>
                            <g transform="translate(-133 -1) translate(160 6) translate(400)">
                                <path fill="url(#k0k8v7nygz)" fill-rule="nonzero" d="M0.817 0.583H8.311V252.309H0.817z"/>
                            </g>
                            <g transform="translate(-133 -1) translate(160 6) translate(312)">
                                <path fill="url(#f6668t0h0B)" fill-rule="nonzero" d="M0.136 0.583H50.098000000000006V252.309H0.136z"/>
                            </g>
                            <g transform="translate(-133 -1) translate(160 6)">
                                <path fill="url(#825k4brhpD)" fill-rule="nonzero" d="M0.071 0.583H50.033V252.309H0.071z"/>
                            </g>
                        </g>
                        <path fill="#114241" fill-rule="nonzero" d="M14.377 0.124H1399.905V11.998000000000001H14.377z" transform="translate(-133 -1)"/>
                    </g>
                </g>
            </g>
        </g>
    </g>
</svg>
