<svg xmlns="http://www.w3.org/2000/svg" width="234" height="234" viewBox="0 0 234 234">
    <g fill="none" fill-rule="evenodd">
        <g stroke="#5DC7FF" stroke-width="2.682">
            <g transform="translate(-247 -231) translate(248 232)">
                <circle cx="116.003" cy="116.003" r="100.578" transform="rotate(-80.78 116.003 116.003)"/>
                <path d="M169.42 96.112c-5.796-15.5-18.025-27.73-33.526-33.526M96.112 62.58c-15.5 5.796-27.73 18.025-33.526 33.526M62.58 135.888c5.793 15.502 18.023 27.732 33.526 33.526M135.888 169.42c15.503-5.792 27.733-18.022 33.526-33.526M106.613 82.407L125.387 82.407M103.595 66.69L128.405 66.69M101.249 49.632L130.751 49.632M97.561 32.574L134.439 32.574M149.6 106.613L149.6 125.387M165.31 103.595L165.31 128.405M182.368 101.249L182.368 130.751M199.426 97.561L199.426 134.439M125.387 149.6L106.613 149.6M128.405 165.31L103.595 165.31M130.751 182.368L101.249 182.368M134.439 199.426L97.561 199.426M82.407 125.387L82.407 106.613M66.69 128.405L66.69 103.595M49.632 130.751L49.632 101.249M32.574 134.439L32.574 97.561"/>
                <circle cx="116" cy="116" r="16.763"/>
                <path d="M116 90.379L116 15.422M141.621 116L216.578 116M116 141.621L116 216.578M90.379 116L15.422 116M187.122 187.122c-39.279 39.276-102.96 39.274-142.237-.003-39.277-39.278-39.277-102.96 0-142.238 39.277-39.277 102.958-39.28 142.237-.003C205.986 63.74 216.583 89.324 216.583 116c0 26.676-10.597 52.26-29.46 71.122zM174.349 57.651L187.122 44.878M174.349 174.349L187.122 187.122M57.651 174.349L44.878 187.122M57.651 57.651L44.878 44.878"/>
            </g>
        </g>
    </g>
</svg>
