<svg xmlns="http://www.w3.org/2000/svg" width="140" height="130" viewBox="0 0 70 65">
    <defs>
        <linearGradient id="gzjiyrsq9a" x1="90.665%" x2="0%" y1="32.596%" y2="47.442%">
            <stop offset="0%" stop-color="red"/>
            <stop offset="100%" stop-color="#FFD300"/>
        </linearGradient>
    </defs>
    <g fill="none" fill-rule="evenodd">
        <g fill-rule="nonzero">
            <g>
                <g>
                    <path fill="url(#gzjiyrsq9a)" d="M34.233 0C25.157-.002 16.45 3.601 10.03 10.018 3.61 16.435.002 25.14 0 34.216c0 .72.025 1.432.069 2.14.958-14.832 12.045-27.031 26.718-29.4 14.674-2.368 29.036 5.723 34.612 19.5 5.577 13.778.888 29.581-11.302 38.086 13.966-7.298 21.142-23.19 17.381-38.493C63.717 10.747 49.991-.008 34.233 0z" transform="translate(-56 -459) translate(0 64) translate(56.484 395)"/>
                    <path fill="#FFF" d="M68.467 34.216c.01-7.546-.95-6.529-.95-9.85l-6.544 2.17c1.86 3.642 3.273 9.701 2.608 14.938-.643 5.3-5.824 17.728-13.484 23.068 11.293-5.899 18.372-17.585 18.37-30.326z" transform="translate(-56 -459) translate(0 64) translate(56.484 395)"/>
                </g>
            </g>
        </g>
    </g>
</svg>
