<svg xmlns="http://www.w3.org/2000/svg" width="42" height="42" viewBox="0 0 21 21">
    <g fill="none" fill-rule="evenodd">
        <g>
            <g>
                <path fill="#CC4047" d="M20.137 7.892c1.276 5.487-2.138 10.97-7.625 12.245C7.025 21.413 1.543 18 .267 12.512-1.009 7.025 2.405 1.542 7.892.267c5.487-1.276 10.97 2.138 12.245 7.625" transform="translate(-390 -413) translate(390 413)"/>
                <path fill="#EF5558" d="M14.918 11.953c-1.736 4.723-6.323 7.383-10.245 5.94C.75 16.452-1.02 11.455.716 6.731 2.454 2.008 7.04-.652 10.96.79c3.922 1.442 5.693 6.439 3.957 11.163" transform="translate(-390 -413) translate(390 413)"/>
            </g>
        </g>
    </g>
</svg>
