<svg xmlns="http://www.w3.org/2000/svg" width="68" height="68" viewBox="0 0 34 34">
    <g fill="none" fill-rule="evenodd">
        <g fill-rule="nonzero">
            <g>
                <g>
                    <path fill="#CD4147" d="M26.556 30.857c-5.633 3.893-13.057 4.01-18.81.295-5.752-3.715-8.7-10.529-7.47-17.265C1.507 7.151 6.676 1.82 13.37.379c6.694-1.44 13.597 1.295 17.49 6.929 5.306 7.693 3.38 18.23-4.304 23.549z" transform="translate(-73 -200) translate(0 64) translate(73 136)"/>
                    <path fill="#F05658" d="M17.102 25.277c-8.352.2-15.258-5.257-15.425-12.188C1.512 6.157 8.147.376 16.5.175c8.354-.2 15.26 5.256 15.426 12.188.165 6.932-6.47 12.713-14.823 12.914z" transform="translate(-73 -200) translate(0 64) translate(73 136)"/>
                </g>
            </g>
        </g>
    </g>
</svg>
