<svg xmlns="http://www.w3.org/2000/svg" xmlns:xlink="http://www.w3.org/1999/xlink" width="54" height="55" viewBox="0 0 54 55">
    <defs>
        <path id="ghvcci2q3a" d="M0 0.593L53.407 0.593 53.407 53.999 0 53.999z"/>
    </defs>
    <g fill="none" fill-rule="evenodd">
        <g>
            <g>
                <g>
                    <g transform="translate(-64 -320) translate(0 64) translate(64 256)">
                        <mask id="c2ff3j5qmb" fill="#fff">
                            <use xlink:href="#ghvcci2q3a"/>
                        </mask>
                        <path fill="#BFBEBE" d="M53.407 27.297c0 14.747-11.956 26.702-26.703 26.702C11.955 54 0 42.044 0 27.297 0 12.548 11.955.593 26.704.593c14.747 0 26.703 11.955 26.703 26.704" mask="url(#c2ff3j5qmb)"/>
                    </g>
                    <path fill="#959595" d="M44.818 11.534c2.28 2.401 2.868 5.452 1.31 6.814-1.556 1.363-4.666.52-6.947-1.881-2.28-2.403-2.867-5.454-1.31-6.816 1.556-1.361 4.667-.52 6.947 1.883M41.766 22.996c.518 1.352.148 2.673-.827 2.952-.975.278-2.186-.592-2.705-1.945-.518-1.352-.148-2.674.828-2.951.975-.279 2.186.592 2.704 1.944M25.132 30.342c1.336.618 2.136 1.862 1.786 2.778-.349.914-1.714 1.155-3.05.538-1.335-.618-2.135-1.861-1.786-2.775.348-.917 1.714-1.158 3.05-.541M20.754 36.082c.535-.151 1.08-.087 1.215.144.136.23-.188.54-.723.692-.535.151-1.08.087-1.215-.144-.136-.231.188-.54.723-.692M30.436 31.376c.497.431.704 1.06.464 1.405-.242.345-.84.275-1.335-.157-.497-.432-.706-1.061-.465-1.405.242-.345.84-.274 1.336.157M26.718 17.208c.248.202.352.496.232.657-.12.161-.42.128-.668-.074-.248-.201-.352-.495-.232-.656.12-.161.42-.128.668.073M14.718 46.208c.249.202.352.496.231.657-.12.161-.42.128-.667-.074-.248-.201-.352-.495-.232-.656.12-.161.42-.128.668.073M20.312 48.191c.255-.18.547-.187.651-.017.104.172-.02.455-.275.635s-.547.187-.651.016c-.104-.17.02-.455.275-.634M4.883 30.597c.259 1.081.074 2.14-.414 2.361-.487.224-1.092-.474-1.352-1.555-.259-1.081-.074-2.138.414-2.361.487-.224 1.092.474 1.352 1.555M8.941 31.798c.13.54.038 1.07-.207 1.181-.243.111-.545-.237-.676-.778-.129-.54-.036-1.07.207-1.18.244-.112.546.237.676.777M15.39 8.55c.438-.493 1.066-.692 1.402-.442.338.248.255.849-.182 1.342-.438.493-1.066.691-1.403.443-.336-.248-.255-.85.183-1.343M20.252 7.298c.178-.22.434-.309.572-.197.135.11.102.38-.076.6-.178.22-.434.31-.572.198-.135-.112-.102-.38.076-.6M36.391 47.55c.438-.493 1.066-.691 1.402-.443.336.249.254.849-.183 1.343-.438.493-1.066.691-1.403.443-.337-.249-.254-.85.184-1.343M31.083 51.99c-.55.056-1.034-.115-1.08-.386-.046-.27.364-.536.914-.593.55-.058 1.033.114 1.08.384.045.27-.364.536-.914.594M31.384 47.657c-.553-1.043-.503-2.183.113-2.545.616-.363 1.565.188 2.12 1.23.552 1.044.502 2.183-.115 2.546-.615.364-1.563-.187-2.118-1.23M37.207 43.38c-.73.67-1.64.82-2.03.335-.39-.486-.115-1.424.615-2.094.73-.672 1.64-.822 2.03-.335.391.485.116 1.422-.615 2.094M6.876 35.756c.992.865 1.406 2.122.921 2.808-.482.69-1.68.545-2.672-.32-.994-.863-1.406-2.121-.923-2.809.485-.688 1.68-.545 2.674.32M48.549 25.254c-.699 1.316-1.959 2.045-2.814 1.629-.856-.417-.983-1.821-.284-3.137.7-1.317 1.959-2.045 2.815-1.629.855.417.982 1.821.283 3.137" transform="translate(-64 -320) translate(0 64) translate(64 256)"/>
                </g>
            </g>
        </g>
    </g>
</svg>
