<svg xmlns="http://www.w3.org/2000/svg" width="72" height="104" viewBox="0 0 36 52">
    <g fill="none" fill-rule="evenodd">
        <g fill-rule="nonzero">
            <g>
                <g transform="translate(-76 -450) translate(0 64) rotate(-69 350.825 159.492)">
                    <path fill="#BE305A" d="M7.194 17.444L45.884 0 4.748 10.455c-1.471.25-2.655 1.349-3.014 2.798s.174 2.973 1.358 3.882c1.184.91 2.795 1.03 4.102.31z"/>
                    <circle cx="5.447" cy="14.164" r="4.891" fill="#FDBC4B"/>
                    <path fill="#FDBC4B" d="M5.443 19.584C2.618 19.588.261 17.426.02 14.611c-.24-2.815 1.716-5.346 4.5-5.822 2.786-.476 5.471 1.26 6.18 3.996.708 2.735-.797 5.557-3.463 6.493-.577.203-1.183.306-1.794.306zm.008-9.782c-2.225-.005-4.098 1.662-4.351 3.873-.254 2.21 1.194 4.258 3.362 4.756 2.169.499 4.365-.711 5.103-2.81.737-2.1-.22-4.418-2.224-5.385-.59-.284-1.236-.433-1.89-.434z"/>
                </g>
            </g>
        </g>
    </g>
</svg>
