<svg xmlns="http://www.w3.org/2000/svg" width="56" height="56" viewBox="0 0 56 56">
    <g fill="none" fill-rule="evenodd">
        <g fill-rule="nonzero">
            <g>
                <g>
                    <path fill="#5DC7FF" d="M55.765 27.868c.006 11.278-6.784 21.45-17.202 25.77-10.419 4.32-22.413 1.938-30.39-6.035C.194 39.63-2.194 27.636 2.121 17.216 6.436 6.796 16.604 0 27.882 0c15.395-.004 27.879 12.473 27.883 27.868z" transform="translate(-63 -319) translate(0 64) translate(63 255)"/>
                    <path fill="#2B6E4D" d="M27.554 0c.206.79.194 2.016-1.71 2.296 0 0-.663-1.235-1.567-.873-.905.361-1.448.301-1.719.06-.271-.241-.874.03-1.447.512-.573.482-1.477.783-1.296 1.507.037.15.055.322.071.495l.016.173c.058.597.163 1.104 1.058.537 1.236-.784 1.447-1.326 1.447-1.326s.06-.15.271-.09c.212.06.573.331.875.06.301-.271.814-1.265 1.628-.542.814.723 1.085.514.995 1.055-.09.542-.875 1.807-.362 1.566.212-.11.434-.202.663-.271 0 0-.06 1.868-1.176 2.35-1.115.482-1.206-.633-1.567-.452-.528.584-1.242.968-2.02 1.085-1.387.18-1.628-.301-2.472.301-.844.603-2.412.904-3.075 1.326-.67.507-1.46.829-2.291.934l-.392 2.592s-.09 1.265-.845-.03c-.753-1.296.212-2.2-3.044-2.32-3.256-.121-3.92 4.7-2.774 4.55 1.146-.151 2.744-.151 1.749.903-.995 1.055-1.176 1.477-.543 1.627 0 0 .272.12.151.754-.12.633-.21 2.048.633 2.32.169.054.344.137.52.226l.322.162c.608.3 1.219.51 1.69-.268.694-1.145 1.056-.874 1.749-.392.693.483 2.713 1.145 3.497 2.05.678.623 1.494 1.077 2.381 1.325.81.834 1.5 1.778 2.05 2.803l.237.472c.385.761.843 1.587 1.24 1.637.942.218 1.846.573 2.684 1.054.874.513 1.93 1.597.904 3.044-.856 1.13-1.584 2.353-2.17 3.645-.532 1.23-1.563 2.172-2.834 2.592-1.749.603-3.165 3.405-3.316 3.797-.151.391-.724.663-1.327.934-.603.27-3.165 2.35-2.924 3.586.241 1.235.512 3.555.512 3.555s-1.517-.362-3.095-2.772c-.137-1.016-.339-2.023-.603-3.013-.258-.832-.326-1.71-.2-2.572.12-.843.22-1.616.22-1.616-.356-.356-.465-.89-.276-1.357.276-.904.608-3.073.608-3.073-.02-.235-.094-.462-.217-.663-.51-.627-.635-1.483-.326-2.23 0 0-2.833-2.5-3.135-4.038-.302-1.536-.452-2.02.15-3.345.604-1.325 1.99-2.47 1.81-3.344-.052-.78-.479-1.488-1.146-1.898-.784-.482-.844-2.26-.844-2.26s-.693-.06-.784-.602c-.037-.408.014-.82.15-1.206-.85-.184-1.609-.665-2.14-1.356-.294-.677-.432-1.411-.405-2.149C8.73 5.361 17.753.11 27.553 0zm14.358 3.88l.11.013.1.008c8.46 5.018 13.646 14.126 13.643 23.963.003 3.193-.545 6.363-1.618 9.37-.63 1.573-1.345 3.11-2.14 4.607-.704 1.212-1.499 2.368-2.377 3.46-1.545 1.715-4.408 4.538-6 5.357 0 0-.783-.362 0-1.868.784-1.507 1.628-2.772 1.327-4.279-.316-1.166-.021-2.413.784-3.314 1.305-.924 1.762-2.65 1.085-4.098-.793-2.378-.114-2.469-.028-2.471.413-.714.602-1.53.55-2.35-.24-.904-.482-.944-.924-.643-.442.301-.482-.181-1.004-.422-.98-.153-1.976-.153-2.955 0-1.949-.181-3.712-1.229-4.804-2.853-1.507-2.129-.984-3.214-.623-4.278.26-1.1.401-2.225.422-3.355.123-.69.552-1.288 1.166-1.627 1.005-.502 1.769-.783 2.09-1.386.528-.766 1.383-1.24 2.311-1.286 1.003-.25 2.053-.25 3.056 0 .704.206 1.437.294 2.17.261.593.183 1.136.499 1.588.924.784.724 1.266 1.266 2.11 1.246.623-.111 1.263-.077 1.87.1.105-.63-.151-1.266-.664-1.647-.864-.582-1.608-.381-1.849-.723-.209-.351-.384-.721-.523-1.105-.174.02-.322.136-.381.301-.14.302-.543.543-.684.04-.14-.502-.341-1.345-.683-.963-.341.381-1.125.984-1.226.06-.1-.924-.221-1.346-.482-1.025-.261.322-1.146-.321-1.508-.502-.361-.18-.582-.12-.683.442-.1.562.422 1.507-.864 1.647-1.286.14-2.17.16-2.935-1.326-.763-1.486-.723-1.426-.441-1.587.647-.29 1.342-.46 2.05-.502.544.084 1.084-.17 1.366-.643.442-.582.864-1.265.542-1.747-.321-.482-.361-.724-.22-1.065.14-.341-1.106-.562-1.106-.562s-.28-.824-.724-.924c-.442-.1-1.226.18-1.426-.744-.191-.624-.253-1.28-.18-1.928.032-.185.138-.348.293-.454.155-.106.346-.145.53-.109zM14.478 17.453c.483-.241.789-.543 1.239-.362.45.18 1.022.395.812.83-.211.436-.965-.016-.965-.016-.42-.05-.846-.05-1.267 0-.482.09-.301-.211.181-.452zm-3.285-2.17c.602-.512.813-.512 1.205-.331.392.18.754.693 1.116.693.361 0 2.381.271.964.542-.905.15-1.833.046-2.683-.301 0 0-1.206-.09-.602-.603zm29.181-8.658c.624-.02.945.744.945.744.33.143.61.38.804.683.322.502 1.085 1.466.482 1.848-.603.381-1.225.743-1.527.281-.241-.53-.404-1.092-.482-1.67l-.442.244s-.402.321-.583 0c-.137-.283-.08-.62.14-.844.162-.18.382-.301.343-.502-.041-.201-.302-.764.32-.784zM28.378.002c1.943.033 3.876.267 5.77.7-.312.592-.798 1.355-1.27 1.464-.784.18-1.165.321-1.447.723-.281.402-1.608 1.949-1.608 1.949s-.12.381-.542.16c-.263-.14-.5-.324-.704-.542-.439-.601-.71-1.309-.784-2.05 0-.983.02-.943.181-1.244.178-.37.314-.76.404-1.16zm3.837 3.69c1.025-.381 1.427-.763 1.95-.2.522.562-.221.783-.221.783l-.101.442s.181.301-.322.221c-.498-.018-.986-.148-1.427-.382 0 0-.904-.482.121-.863z" transform="translate(-63 -319) translate(0 64) translate(63 255)"/>
                </g>
            </g>
        </g>
    </g>
</svg>
