<svg xmlns="http://www.w3.org/2000/svg" xmlns:xlink="http://www.w3.org/1999/xlink" width="110" height="112" viewBox="0 0 55 56">
    <defs>
        <path id="gqsiw74qia" d="M0 0.989L54.011 0.989 54.011 55 0 55z"/>
        <path id="93j0qc70fc" d="M0 0.989L54.011 0.989 54.011 55 0 55z"/>
        <path id="65ilbhabne" d="M0.863 0.985L52.011 0.985 52.011 50 0.863 50z"/>
        <path id="gulripcvrg" d="M0 0.731L10.938 0.731 10.938 15.492 0 15.492z"/>
    </defs>
    <g fill="none" fill-rule="evenodd">
        <g>
            <g>
                <g>
                    <g transform="translate(-62 -319) translate(0 64) translate(62 255) translate(0 .01)">
                        <mask id="wt0knebwub" fill="#fff">
                            <use xlink:href="#gqsiw74qia"/>
                        </mask>
                        <path fill="#C4C1C8" d="M54.01 27.994C54.01 42.91 41.92 55 27.007 55 12.09 55 0 42.91 0 27.994 0 13.08 12.09.99 27.006.99 41.92.99 54.01 13.08 54.01 27.994" mask="url(#wt0knebwub)"/>
                    </g>
                    <g transform="translate(-62 -319) translate(0 64) translate(62 255) translate(0 .01)">
                        <mask id="ysbwn36ngd" fill="#fff">
                            <use xlink:href="#93j0qc70fc"/>
                        </mask>
                        <path fill="#DC3726" d="M54.01 27.994C54.01 42.91 41.92 55 27.007 55 12.09 55 0 42.91 0 27.994 0 13.08 12.09.99 27.006.99 41.92.99 54.01 13.08 54.01 27.994" mask="url(#ysbwn36ngd)"/>
                    </g>
                    <g transform="translate(-62 -319) translate(0 64) translate(62 255) translate(2 5.01)">
                        <mask id="gxy6wr0i9f" fill="#fff">
                            <use xlink:href="#65ilbhabne"/>
                        </mask>
                        <path fill="#C92026" d="M40.657.985c1.831 3.643 2.863 7.755 2.863 12.11C43.52 28.01 31.43 40.1 16.514 40.1c-5.834 0-11.236-1.85-15.65-4.996C5.303 43.937 14.444 50 25.004 50c14.915 0 27.006-12.09 27.006-27.006 0-9.08-4.482-17.113-11.354-22.009" mask="url(#gxy6wr0i9f)"/>
                    </g>
                    <path fill="#DC3726" d="M48.213 24.966c0 4.508-3.654 8.163-8.162 8.163-4.508 0-8.163-3.655-8.163-8.163 0-4.508 3.655-8.162 8.163-8.162 4.508 0 8.162 3.654 8.162 8.162" transform="translate(-62 -319) translate(0 64) translate(62 255)"/>
                    <path fill="#E64A3A" d="M46.65 24.966c0 3.645-2.954 6.6-6.6 6.6-3.643 0-6.598-2.955-6.598-6.6 0-3.645 2.955-6.6 6.599-6.6 3.645 0 6.6 2.955 6.6 6.6" transform="translate(-62 -319) translate(0 64) translate(62 255)"/>
                    <path fill="#C92026" d="M35.36 25.661c0-3.646 2.954-6.6 6.598-6.6.438 0 .865.044 1.278.125-.944-.522-2.03-.819-3.185-.819-3.645 0-6.6 2.954-6.6 6.6 0 3.207 2.29 5.878 5.322 6.473-2.036-1.124-3.414-3.29-3.414-5.779" transform="translate(-62 -319) translate(0 64) translate(62 255)"/>
                    <path fill="#E64A3A" d="M23.75 33.259c0 2.9-2.351 5.253-5.252 5.253-2.902 0-5.254-2.352-5.254-5.253 0-2.901 2.352-5.254 5.254-5.254 2.9 0 5.253 2.353 5.253 5.254" transform="translate(-62 -319) translate(0 64) translate(62 255)"/>
                    <path fill="#C92026" d="M14.176 34.3c0-2.9 2.352-5.253 5.253-5.253 1.31 0 2.505.483 3.425 1.275-.944-1.397-2.543-2.317-4.357-2.317-2.9 0-5.253 2.353-5.253 5.254 0 1.592.71 3.015 1.828 3.979-.565-.84-.896-1.85-.896-2.937" transform="translate(-62 -319) translate(0 64) translate(62 255)"/>
                    <g transform="translate(-62 -319) translate(0 64) translate(62 255) translate(0 15.01)">
                        <mask id="daqj1ons1h" fill="#fff">
                            <use xlink:href="#gulripcvrg"/>
                        </mask>
                        <path fill="#E64A3A" d="M8.549 2.674C6.964 1.219 4.914.588 2.926.758 1.055 4.43 0 8.59 0 12.994c0 .542.018 1.079.049 1.613 2.905 1.57 6.61 1.04 8.945-1.503 2.757-3.003 2.558-7.672-.445-10.43" mask="url(#daqj1ons1h)"/>
                    </g>
                    <path fill="#C92026" d="M10.102 19.706c-.386-.739-.903-1.425-1.553-2.02-1.586-1.457-3.635-2.087-5.623-1.918-.693 1.361-1.274 2.788-1.731 4.27 2.551-2.09 6.204-2.233 8.907-.332" transform="translate(-62 -319) translate(0 64) translate(62 255)"/>
                    <path fill="#E64A3A" d="M25.615 12.182c0 3.416-2.77 6.186-6.186 6.186s-6.185-2.77-6.185-6.186 2.77-6.186 6.185-6.186c3.416 0 6.186 2.77 6.186 6.186" transform="translate(-62 -319) translate(0 64) translate(62 255)"/>
                    <path fill="#C92026" d="M15.048 14.092c0-3.416 2.769-6.186 6.186-6.186 1.296 0 2.5.4 3.494 1.082-1.083-1.792-3.051-2.992-5.298-2.992-3.416 0-6.186 2.77-6.186 6.186 0 2.119 1.066 3.988 2.69 5.102-.562-.931-.886-2.024-.886-3.192" transform="translate(-62 -319) translate(0 64) translate(62 255)"/>
                    <path fill="#DC3726" d="M35.35 40.947c0 1.946-1.578 3.523-3.524 3.523-1.947 0-3.524-1.577-3.524-3.523 0-1.946 1.577-3.523 3.524-3.523 1.946 0 3.523 1.577 3.523 3.523" transform="translate(-62 -319) translate(0 64) translate(62 255)"/>
                    <path fill="#E64A3A" d="M34.26 40.947c0 1.345-1.09 2.435-2.434 2.435-1.345 0-2.435-1.09-2.435-2.435s1.09-2.436 2.435-2.436 2.435 1.091 2.435 2.436" transform="translate(-62 -319) translate(0 64) translate(62 255)"/>
                    <path fill="#C92026" d="M30.057 41.985c0-1.345 1.09-2.435 2.435-2.435.638 0 1.216.247 1.65.648-.316-.979-1.233-1.687-2.316-1.687-1.345 0-2.436 1.091-2.436 2.436 0 .707.304 1.342.786 1.787-.077-.236-.119-.487-.119-.749" transform="translate(-62 -319) translate(0 64) translate(62 255)"/>
                    <path fill="#DC3726" d="M26.959 48.474c0 2.812-2.28 5.092-5.093 5.092-2.811 0-5.09-2.28-5.09-5.092s2.279-5.092 5.09-5.092c2.813 0 5.093 2.28 5.093 5.092" transform="translate(-62 -319) translate(0 64) translate(62 255)"/>
                    <path fill="#E64A3A" d="M25.385 48.474c0 1.943-1.575 3.519-3.519 3.519-1.942 0-3.518-1.576-3.518-3.52 0-1.942 1.576-3.518 3.518-3.518 1.944 0 3.52 1.576 3.52 3.519" transform="translate(-62 -319) translate(0 64) translate(62 255)"/>
                    <path fill="#C92026" d="M19.312 49.974c0-1.942 1.575-3.518 3.518-3.518.921 0 1.757.357 2.384.936-.457-1.413-1.782-2.437-3.347-2.437-1.943 0-3.518 1.576-3.518 3.519 0 1.022.438 1.939 1.134 2.582-.11-.341-.171-.704-.171-1.082" transform="translate(-62 -319) translate(0 64) translate(62 255)"/>
                </g>
            </g>
        </g>
    </g>
</svg>
