<svg xmlns="http://www.w3.org/2000/svg" width="34" height="296" viewBox="0 0 17 148">
    <g fill="none" fill-rule="evenodd" stroke-linejoin="round">
        <g fill="#EBC12F" stroke="#00A6FF" stroke-width=".5">
            <g>
                <g>
                    <path d="M643.221 29c2.414 3.422 4.74 6.925 7.078 10.423.324.485.403.447.08.932-.47.705-.946 1.403-1.427 2.095-1.046 1.502-2.084 3.013-3.136 4.507l5.097 8.614-5.902 3.898c-.596 2.071-1.2 4.137-1.807 6.202l4.491 2.52 1.92 1.076c.67.375.644.33.648 1.226l.004.87.04 8.949c.002.6.177 1.731-.026 2.312-.997 2.867-2.064 5.695-3.11 8.535 2.067 2.708 3.784 4.712 5.829 7.443-1.133 1.144-2.606 3.065-4.417 5.763l-.605.503c-.613.845-1.227 1.69-1.845 2.53h0l5.333 8.61c-2.06 1.297-4.118 2.597-6.176 3.895-.624 2.07-1.255 4.135-1.891 6.199h0l4.7 2.517c.669.36 1.338.718 2.008 1.077.7.375.674.329.678 1.225l.005.87h0l.041 8.944c.003.6.186 1.73-.026 2.31-.522 1.433-1.062 2.856-1.609 4.276l-1.645 4.255c2.162 2.706 4.309 5.429 6.449 8.158-3.22 3.103-6.525 6.083-9.84 9.047.849 2.721 1.651 5.465 2.415 8.219-.857-1.802-1.685-3.623-2.51-5.445-.414-.91-.826-1.819-1.224-2.738-.182-.5-.18-.432.16-.835 2.373-2.82 4.752-5.64 7.191-8.383-1.567-1.726-3.135-3.45-4.676-5.207-.577-.656-1.156-1.311-1.734-1.965-.104-.118.444-1.376.52-1.599 1.003-2.892 1.97-5.8 3.01-8.675l-.149-9.392c-1.694-.94-3.388-1.88-5.082-2.822l-1.924-1.069c-.188-.103-1.225-.533-1.153-.754.224-.68.448-1.36.67-2.039.627-1.919 1.264-3.832 1.911-5.742l.696-2.053c.096-.284.222-1.003.425-1.122l4.274-2.48-3.042-5.653.534.993c.637 1.785 1.116 2.728.295 1.25-.405-.73-1.537-2.96-1.546-2.986-.103-.297-.182-.488-.105-.712-.157-.28-.189-.495.132-.863 1.78-2.05 4.39-5.5 6.322-7.67-1.456-1.677-2.912-3.355-4.343-5.063-.552-.656-1.104-1.312-1.657-1.966-.1-.118.424-1.376.498-1.6.957-2.893 1.882-5.803 2.875-8.68l-.142-9.396c-1.619-.94-3.238-1.882-4.856-2.824l-1.84-1.069c-.025-.015-.067-.036-.12-.063l-.188-.093c-.35-.176-.843-.44-.794-.598.215-.68.429-1.36.641-2.04.6-1.92 1.208-3.835 1.827-5.745.22-.685.443-1.37.665-2.055.092-.284.212-1.003.406-1.122l4.084-2.482-2.906-5.656-.451-.877c-.343-.665-.69-.865-.21-1.442 1.816-2.19 3.652-4.364 5.524-6.483-1.813-3.577-3.628-7.149-5.362-10.785z" transform="translate(-946 -221) translate(0 64) translate(308 128)"/>
                </g>
            </g>
        </g>
    </g>
</svg>
