<svg xmlns="http://www.w3.org/2000/svg" width="2384" height="418" viewBox="0 0 1192 209">
    <g fill="none" fill-rule="evenodd">
        <g fill-rule="nonzero">
            <g>
                <path fill="#BCBEC0" d="M0.67 0.923H1191.2740000000001V8.725H0.67z" transform="translate(-178 -459) translate(178 459)"/>
                <path fill="#E6E7E8" d="M1045.758 59.365c.916-28.309 24.71-50.523 53.034-50.523H974.32c28.324 0 52.117 22.214 53.033 50.523.024.742.036 1.486.036 2.233v146.744h18.333V61.598c0-.746.012-1.49.036-2.233zM172.802 59.365c.916-28.309 24.71-50.523 53.033-50.523H101.363c28.324 0 52.118 22.214 53.034 50.523.024.742.036 1.486.036 2.233v146.744h18.333V61.598c0-.746.012-1.49.036-2.233zM609.28 59.365c.916-28.309 24.71-50.523 53.034-50.523H537.84c28.325 0 52.118 22.214 53.034 50.523.024.742.036 1.486.036 2.233v146.744h18.333V61.598c0-.746.012-1.49.036-2.233z" transform="translate(-178 -459) translate(178 459)"/>
                <path fill="#808285" d="M225.875 8.812c-28.32 0-52.11 22.21-53.03 50.52-.02.74-.04 1.49-.04 2.23v146.75h-9.16V8.812h62.23zM662.32 8.893c-28.32 0-52.11 22.21-53.03 50.52-.02.74-.04 1.49-.04 2.23v146.75h-9.16V8.893h62.23zM1098.316 8.544c-28.32 0-52.11 22.21-53.03 50.52-.02.74-.04 1.49-.04 2.23v146.75h-9.16V8.544h62.23z" opacity=".2" transform="translate(-178 -459) translate(178 459)"/>
            </g>
        </g>
    </g>
</svg>
