<svg xmlns="http://www.w3.org/2000/svg" xmlns:xlink="http://www.w3.org/1999/xlink" width="2392" height="256" viewBox="0 0 1196 128">
    <defs>
        <path id="pfxzp4dzqa" d="M0.141 0L1195.818 0 1195.818 126.695 0.141 126.695z"/>
        <path id="ilref5xz5c" d="M0.621 0.184L195.961 0.184 195.961 98.695 0.621 98.695z"/>
        <path id="xd194svh6e" d="M0.141 0.617L160.34 0.617 160.34 75.695 0.141 75.695z"/>
        <path id="icjl1isigg" d="M0.03 0.863L195.37 0.863 195.37 48.695 0.03 48.695z"/>
    </defs>
    <g fill="none" fill-rule="evenodd">
        <g>
            <g>
                <g transform="translate(-170 -481) translate(170 481) translate(0 .888)">
                    <mask id="8xen71od6b" fill="#fff">
                        <use xlink:href="#pfxzp4dzqa"/>
                    </mask>
                    <path fill="#D13E2E" d="M-7.672-17.3H92.874l29.084-29.085 28.253 9.972h46.534l33.238-26.59 43.21-16.62 18.28 24.097 7.48 13.295h89.744L434.4-87.933h42.379l38.224 44.872h147.91l71.464-39.055h201.548v57.944l37.787-.15-.327-57.892 227.199-.146v212.73H-3.831S-7.672-15.437-7.672-17.3" mask="url(#8xen71od6b)"/>
                </g>
                <path fill="#9D3123" d="M470.894 106.954c0 3.576-10.442 6.476-23.325 6.476-12.882 0-23.325-2.9-23.325-6.476 0-3.577 10.443-6.477 23.325-6.477s23.325 2.9 23.325 6.477M1090.22 103.344c0 7.004-19.266 12.683-43.031 12.683-23.766 0-43.032-5.679-43.032-12.683s19.266-12.683 43.032-12.683c23.765 0 43.032 5.679 43.032 12.683" transform="translate(-170 -481) translate(170 481)"/>
                <path fill="#841E19" d="M445.244 106.188L458.26 106.188 456.023 99.65 451.752 97.794 448.336 91.963 442.505 91.963 440.119 106.188" transform="translate(-170 -481) translate(170 481)"/>
                <path fill="#9D3123" d="M132.958 53.86h62.233c7.722 0 7.735-12 0-12h-62.233c-7.722 0-7.734 12 0 12M838.387 94.559c0 5.075-10.936 9.189-24.427 9.189-13.49 0-24.427-4.114-24.427-9.19 0-5.074 10.937-9.188 24.427-9.188s24.427 4.114 24.427 9.189" transform="translate(-170 -481) translate(170 481)"/>
                <path fill="#CE5149" d="M791.47 88.56c.894-3.348 6.915-5.33 9.056-8.156 1.935-2.558 5.125-5.785 8.023-7.42 3.219-1.814 10.043.196 13.606.568 2.258.236 3.987.073 5.489 1.435 1.794 1.627 3.183 3.484 5.716 4.302.989.319 1.914-.075 2.482 1.076.445.9-.133 2.72-.244 3.677-.207 1.779-.024 3.894-.97 5.366-2.222 3.457-8.56 4.263-12.17 5.324-2.681.788-5.435 1.352-8.172 1.879-2.175.419-3.975 1.384-6.044 1.995-4.201 1.242-6.355-1.367-10.245-3.028-1.69-.721-2.511-1.345-4.018-2.463-2.324-1.724-2.887-1.462-2.51-4.555" transform="translate(-170 -481) translate(170 481)"/>
                <path fill="#841E19" d="M826.684 84.273c-2.34.696-3.194-.467-5.575-.846-1.73-.274-6.774-1.456-7.92-.114 1.142.51 5.23 1.597 4.952 3.466-.32 2.15-5.681 1.38-7.16 1.876-2.176.728-4.272 1.66-6.575 2.258-.758.196-2.518.55-2.948 1.38-.763 1.47 1.254 2.058.999 3.636-1.044.176-2.138.196-3.224.236 3.153 1.61 5.276 3.545 9.01 2.44 2.069-.61 3.868-1.575 6.044-1.994 2.735-.526 5.49-1.091 8.172-1.88 3.609-1.06 9.947-1.866 12.169-5.323.946-1.472.763-3.587.97-5.365.11-.957.689-2.778.244-3.678-.164-.332-.364-.517-.58-.646-.296.183-.59.365-.893.558-2.532 1.615-4.757 3.125-7.685 3.996" transform="translate(-170 -481) translate(170 481)"/>
                <path fill="#9D3123" d="M112.038 50.957c0 5.96 27.997 10.792 62.533 10.792s62.533-4.832 62.533-10.792-27.997-10.792-62.533-10.792-62.533 4.832-62.533 10.792" transform="translate(-170 -481) translate(170 481)"/>
                <path fill="#CE5149" d="M189.875 36.02c.447.116.48-.19.8-.36.543-.286 1.093-.42 1.617-.775.688-.468 1.114-1.074 1.714-1.638.77-.725 1.538-1.506 2.035-2.45.953-1.811.853-3.503.894-5.462.028-1.29 1.487-1.377 2.413-1.891 1.31-.728 2.611-1.527 4.078-1.871 1.186-.28 2.259-.99 3.468-1.103.86-.08 1.602-.3 2.498-.306.405-.004.81-.011 1.215-.024 1.035-.033 1.523.268 2.442.639.673.27 1.106.324 1.653.836.276.26.526.588.826.825.69.545 1.504.903 2.179 1.495 1.055.927 2.395 1.492 3.679 2.108.668.32 1.875 1.112 1.76 1.984-.067.503-.35.737-.243 1.29.174.919.847 1.984 1.311 2.777 1.656 2.828 2.212 5.667 2.175 8.932-.013 1.114-.115 1.942-.79 2.862-.924 1.259-2.002 1.45-3.474 1.676-1.994.305-3.98.56-5.954.985-2.912.624-5.83.96-8.774 1.388-1.763.256-3.567.536-5.343.688-1.83.157-3.63-.325-5.381-.811-2.92-.81-6.65-.993-8.689-3.46-1.121-1.356-1.936-4.381-.165-5.527.436-.282.929-.467 1.333-.78.515-.397.488-.55.723-2.026" transform="translate(-170 -481) translate(170 481)"/>
                <path fill="#841E19" d="M187.82 38.826c.435-.28.928-.467 1.332-.779.514-.398.487-.55.723-2.027.447.116.48-.19.8-.36.544-.287 1.093-.42 1.617-.775.688-.468 1.115-1.075 1.714-1.639.77-.725 1.539-1.506 2.034-2.448.954-1.813.855-3.504.896-5.463.018-.869.688-1.193 1.406-1.468.456.303.926.57 1.383.726 1.637.56 2.972 1.066 4.74.931.613-.047 1.077-.306 1.714-.308.99-.003 1.855-.06 2.789.23 1.152.358 2.139.861 3.239 1.356.25.112 1.948.804 2.007 1.013-.615.242-1.348.122-2.01.36-.772.273-1.363.715-2.075 1.098-.858.46-2.37.684-3.028 1.42.9.632 2.408.76 3.435 1.131.875.318 1.754.514 2.435 1.058.716.57 1.544 1.705 1.92 2.494.413.864 1.42 1.611 2.254 2.136.73.46 1.366.647 2.218.795.774.136 1.524.068 2.304.231.976.203 1.974.404 2.962.532.562.073 1.13.083 1.7.07.044.615.068 1.24.06 1.885-.012 1.114-.114 1.943-.79 2.863-.924 1.258-2.002 1.451-3.473 1.675-1.995.305-3.98.562-5.955.986-2.912.624-5.83.961-8.774 1.387-1.764.256-3.568.536-5.342.688-1.832.157-3.631-.324-5.382-.81-2.92-.81-6.65-.994-8.688-3.46-1.122-1.357-1.936-4.382-.165-5.528" transform="translate(-170 -481) translate(170 481)"/>
                <path fill="#CE5149" d="M212.327 50.15c-.012-2.083-.24-4.052-.57-6.104-.172-1.065-.373-2.08-.803-3.071-.366-.846-.918-1.581-1.307-2.414-1.046-2.24-3.166-3.233-5.066-4.62-1.144-.834-2.276-1.732-3.388-2.61-.89-.703-1.776-1.366-2.535-2.19-.335-.362-.861-.948-1.057-1.415-.16-.383-.17-.801-.345-1.195-.387-.871-.89-1.662-1.441-2.44-.845-1.193-1.923-2.196-2.832-3.34-.932-1.17-1.697-2.263-2.845-3.246-2.17-1.858-4.706-2.22-7.455-2.728-5.243-.97-10.7-.797-15.987-1.156-4.611-.314-9.371.075-13.994.142-1.688.026-3.741-.256-5.401.116-1.767.394-3.776 1.774-5.102 2.946-1.486 1.312-2.177 2.847-3.147 4.506-.378.646-.683 1.344-1.077 1.98-.451.728-1.055 1.335-1.502 2.074-1.165 1.922-2.238 3.75-3.116 5.826-.921 2.179-2.034 4.237-2.99 6.398-.33.749-.441 1.482-.69 2.249-.271.834-.763 1.502-.967 2.36-.267 1.123-.45 2.017-.427 3.186.02 1.072.023 2.144.047 3.217.022.99.404 1.246 1.26 1.766 1.429.866 2.807 1.448 4.369 2.01 1.193.429 1.97 1.5 3.198 1.63 1.198.126 2.468.18 3.664.383 1.378.233 2.682.572 4.078.698 1.38.125 2.745.213 4.095.552 2.376.596 4.867.85 7.295 1.182 3.29.45 6.6.825 9.882 1.322 3.132.475 6.328.388 9.485.323 1.455-.03 2.705-.382 4.094-.776 1.43-.406 2.906-.523 4.37-.756 5.238-.835 10.392.135 15.638.053 1.986-.031 3.9-.054 5.864-.33 1.225-.172 2.792-.277 3.717-1.18.798-.778 1.6-1.401 2.479-2.064.216-.163.935-.62 1.063-.845.309-.544-.6-1.546-.554-2.438" transform="translate(-170 -481) translate(170 481)"/>
                <path fill="#841E19" d="M128.282 45.404c-.023-1.17.161-2.063.427-3.185.204-.86.697-1.527.968-2.361.25-.766.36-1.5.69-2.25.955-2.16 2.068-4.218 2.99-6.397.877-2.076 1.95-3.904 3.115-5.826.448-.74 1.051-1.346 1.502-2.074.394-.636.7-1.334 1.078-1.98.97-1.66 1.66-3.194 3.146-4.506 1.327-1.172 3.335-2.552 5.102-2.946.194-.044.395-.077.6-.104-.43.544-.835 1.117-1.285 1.645-.778.91-1.645 1.729-2.41 2.639-.756.898-1.068 1.769-1.545 2.824-.289.64-1.1 1.455-.757 2.189.297.635 1.524 1.14 2.071 1.545.737.543 1.307 1.174 1.874 1.879.64.795 1.39.989 2.2 1.557.505.354 1.976 1.432 1.982 2.12-.564.154-1.178.016-1.754.042-.874.039-2.838.118-3.34.993-.455.79.248 2.1.741 2.705.6.733 1.33.872 2.171 1.17 1.286.458 2.331 1.194 3.405 2.046.881.697 2.084 2.527 3.34 2.539.73.007.814-.714 1.411-.914.965-.324 2.032.506 2.992.518-.645-1.143-2.176-1.88-3.08-2.83-.573-.602-1.806-1.724-1.668-2.69.627-.06 1.335.522 1.854.817.824.468 1.587.96 2.334 1.544 1.873 1.465 3.646 2.562 5.98 3.073 2.21.485 4.332 1.214 6.48 1.922.22.073 2.856.69 1.788 1.518-.489.38-2.17.019-2.709.07-.633.062-.882.309-1.608.312-1.033.005-2.067.048-3.1.042-.422-.002-1.058-.171-1.223.323-.105.314.42.867.606 1.075.865.967 1.757 1.652 3.077 1.642.996-.01 1.562.122 2.54.479 1.361.498 3.498 2.61 3.915.242.12-.675.288-.603 1.046-.585 1.36.034 2.703.509 4.025.795 2.912.63 5.89 1.227 8.866 1.483 2.216.19 4.501-.011 6.726-.043.477-.007 3.17-.377 2.708.726-.076.182-.963.5-1.13.613-.39.265-.79.583-1.146.879-.702.584-.789.71-.717 1.54.053.612-.058.664.561.699.455.026.822-.231 1.25-.317 1.131-.226 2.35-.518 3.464-.94 1.062-.401 1.901-1.292 2.815-1.93.735-.511 1.21-.575 2.1-.58.384-.002 1.09-.143 1.457-.036.597.174.987.97 1.097 1.527.194.986-.109 1.546 1.16 1.51.944-.024 1.641-.061 2.506.32.785.346 1.443.18 1.96-.252.016.136.011.263-.049.369-.129.225-.848.682-1.064.845-.878.663-1.68 1.286-2.479 2.065-.924.902-2.492 1.008-3.717 1.179-1.964.276-3.878.299-5.864.33-5.246.083-10.399-.888-15.636-.053-1.465.233-2.942.35-4.372.756-1.388.394-2.638.746-4.093.776-3.158.064-6.354.152-9.486-.323-3.28-.497-6.59-.871-9.88-1.322-2.429-.332-4.92-.585-7.297-1.182-1.349-.34-2.713-.427-4.094-.552-1.397-.126-2.7-.465-4.079-.698-1.195-.202-2.466-.257-3.663-.383-1.228-.13-2.006-1.201-3.199-1.63-1.56-.562-2.939-1.144-4.367-2.01-.858-.52-1.239-.776-1.262-1.766-.024-1.072-.026-2.145-.047-3.217" transform="translate(-170 -481) translate(170 481)"/>
                <path fill="#CE5149" d="M1073.376 38.085c-1.463-.206-2.938 1.192-4.244 1.707-2.579 1.014-5.091 2.152-7.714 3.062-2.042.708-4.018 1.55-6.034 2.331-1.589.616-2.739 1.614-3.881 2.838-.606.651-1.239 1.217-1.734 1.975-.696 1.066-1.108 2.294-1.685 3.423-1.473 2.885-2.398 5.984-4 8.814-1.053 1.86-2.433 3.194-3.992 4.571-1.049.925-1.969 2.102-2.671 3.3-1.103 1.875-1.579 4.28-3.052 5.875-1.229 1.332-2.458 2.542-3.985 3.537-1.517.986-2.923 2.127-4.422 3.14-1.174.793-2.379 1.506-3.182 2.68-1.061 1.55-1.283 3.2-1.842 4.974-.407 1.295-.831 2.546-1.147 3.87-.236.993-.76 1.922-.949 2.92-.163.862-.068 1.857-.048 2.731.022 1.055.533 1.957.61 3.02 3.305.863 6.706 1.336 10.014 2.177 3.41.868 6.668 1.988 10.18 2.445 3.436.446 6.968.27 10.425.473 5.559.33 11.13-.022 16.69.326 1.455.091 2.788.088 4.125-.53 1.695-.786 2.609-2.639 3.442-4.229 2.205-4.21 3.316-8.793 4.373-13.399.712-3.099 1.54-6.167 2.772-9.107.704-1.683 1.578-3.332 2.133-5.074.607-1.908.598-4.159.758-6.144.174-2.147.293-4.305.074-6.455-.381-3.725-1.748-7.243-2.382-10.92-.385-2.24-1.279-4.899-2.346-6.93-.726-1.38-1.901-2.838-3.249-3.669-.799-.492-1.501-1.04-2.253-1.59-.621-.456-.862-1.038-.784-2.142" transform="translate(-170 -481) translate(170 481)"/>
                <path fill="#841E19" d="M1084.39 63.336c-.381-3.725-1.748-7.243-2.382-10.92-.385-2.24-1.28-4.9-2.346-6.93-.15-.286-.324-.575-.51-.86.134 1.787.186 3.545.2 5.355.01 1.23.046 2.942-.618 4.042-.6.994-1.581 2.098-2.516 2.78-.948.692-2.153 1.16-3.266 1.467-1.17.323-2.354.79-3.582.864-.556.033-1.122-.053-1.678-.02-.717.041-1.165.443-1.823.696-.998.382-2.186.364-2.677 1.588-.288.716-.314 1.595-.533 2.341-.407 1.375-1.143 2.118-2.182 3.06-1.97 1.783-3.938 3.571-5.927 5.335-1.087.964-2.35 1.836-3.514 2.712-.63.473-1.586 1.77-2.341 1.923 1.636-.045 3.044-.485 4.626-.886.729-.186 1.568-.274 2.265-.552.488-.193.856-.557 1.299-.82.102.998-.866 2.291-1.091 3.286-.128.572-.283 1.167-.348 1.752-.48.162-1.126-.006-1.61.021-.701.04-1.335.282-2.041.315-1.025.05-2.464.214-3.46-.077-1.011-.297-1.03-.208-1.673.705-.672.953-1.66 1.472-2.553 2.222-1.207 1.012-2.33 2.182-3.648 3.048-.9.591-1.477 1.33-2.2 2.081-.517.536-.667 1.158-1.307 1.65-.917.706-1.911 1.634-3.013 2.03.865-.058 1.866.163 2.705.008 1.022-.19 1.68-1.169 2.697-1.412.318-.075 1.296-.165 1.6-.057.399.143.268.247.59.521.43.368 1.108.705 1.458 1.135.514.637.42 1.624 1.054 2.344 1.199 1.361 3.176 1.454 4.329 2.9.72.902.657 2.26.56 3.36-.03.338.033.42-.183.707-.377.505-1.521.634-2.097.7-1.513.172-2.977-.367-4.495-.297-1.022.048-2.348.787-3.33.605-1.278-.239-1.21-2.002-2.75-2.043-1.482-.04-2.522.51-3.836 1.044-1.426.578-3.173.926-4.674 1.268-1.714.392-3.418.904-5.151 1.217 2.336.487 4.69.898 7 1.486 3.41.868 6.668 1.988 10.18 2.445 3.437.446 6.969.27 10.426.473 5.558.33 11.13-.022 16.689.326 1.455.091 2.788.088 4.125-.53 1.696-.786 2.61-2.639 3.443-4.229 2.205-4.21 3.315-8.793 4.373-13.399.712-3.099 1.54-6.167 2.77-9.107.705-1.683 1.579-3.332 2.134-5.074.607-1.908.599-4.159.76-6.144.173-2.147.292-4.305.072-6.455" transform="translate(-170 -481) translate(170 481)"/>
                <path fill="#9D3123" d="M362.833 50.31c0 5.86 12.629 10.61 28.208 10.61 15.579 0 28.208-4.75 28.208-10.61 0-5.86-12.629-10.612-28.208-10.612-15.579 0-28.208 4.752-28.208 10.612" transform="translate(-170 -481) translate(170 481)"/>
                <path fill="#CE5149" d="M417.012 43.382c-1.032-3.865-7.985-6.153-10.457-9.419-2.235-2.953-5.919-6.68-9.265-8.566-3.717-2.096-11.598.225-15.712.654-2.608.272-4.605.085-6.339 1.658-2.07 1.877-3.676 4.024-6.6 4.966-1.143.37-2.21-.085-2.867 1.243-.514 1.04.154 3.143.282 4.247.24 2.055.027 4.497 1.12 6.196 2.567 3.993 9.886 4.923 14.052 6.15 3.098.91 6.28 1.56 9.438 2.168 2.513.484 4.591 1.6 6.98 2.305 4.851 1.434 7.34-1.58 11.83-3.498 1.951-.833 2.901-1.552 4.641-2.843 2.684-1.99 3.334-1.689 2.897-5.26" transform="translate(-170 -481) translate(170 481)"/>
                <path fill="#841E19" d="M376.348 38.432c2.702.805 3.69-.54 6.438-.977 1.997-.317 7.821-1.682 9.146-.131-1.32.588-6.04 1.842-5.719 4.002.37 2.483 6.56 1.594 8.267 2.166 2.514.84 4.935 1.918 7.594 2.607.875.227 2.908.638 3.404 1.594.881 1.699-1.448 2.377-1.153 4.199 1.206.203 2.47.226 3.724.272-3.642 1.86-6.094 4.094-10.405 2.82-2.389-.706-4.467-1.821-6.98-2.305-3.159-.607-6.34-1.26-9.438-2.17-4.166-1.224-11.485-2.155-14.052-6.147-1.093-1.7-.88-4.142-1.12-6.197-.128-1.105-.796-3.207-.282-4.247.19-.382.42-.596.67-.745.341.21.681.42 1.031.644 2.924 1.866 5.494 3.608 8.875 4.615" transform="translate(-170 -481) translate(170 481)"/>
                <path fill="#9D3123" d="M826.959 53.831c0 5.96-27.997 10.792-62.533 10.792s-62.533-4.832-62.533-10.792S729.89 43.04 764.426 43.04s62.533 4.832 62.533 10.792" transform="translate(-170 -481) translate(170 481)"/>
                <path fill="#CE5149" d="M749.122 38.895c-.447.115-.48-.191-.8-.361-.544-.286-1.094-.42-1.617-.775-.688-.468-1.115-1.074-1.714-1.638-.769-.725-1.539-1.506-2.034-2.45-.954-1.811-.855-3.502-.896-5.462-.027-1.29-1.486-1.376-2.413-1.891-1.31-.728-2.61-1.527-4.078-1.871-1.185-.28-2.258-.99-3.467-1.103-.86-.08-1.602-.3-2.498-.306-.405-.004-.81-.011-1.215-.024-1.034-.033-1.522.268-2.442.639-.674.27-1.107.324-1.653.836-.277.26-.527.588-.826.825-.69.546-1.504.903-2.178 1.495-1.057.928-2.397 1.492-3.68 2.108-.668.32-1.875 1.112-1.76 1.984.068.503.35.737.244 1.29-.176.919-.848 1.984-1.313 2.778-1.656 2.827-2.21 5.666-2.175 8.93.013 1.115.116 1.943.791 2.863.924 1.259 2.002 1.45 3.473 1.676 1.995.305 3.98.56 5.955.985 2.912.624 5.83.96 8.774 1.388 1.764.256 3.568.536 5.342.688 1.831.157 3.63-.325 5.382-.811 2.92-.81 6.65-.993 8.688-3.46 1.122-1.356 1.936-4.381.165-5.527-.435-.282-.928-.467-1.33-.78-.516-.397-.49-.55-.725-2.026" transform="translate(-170 -481) translate(170 481)"/>
                <path fill="#841E19" d="M751.177 41.7c-.435-.28-.928-.467-1.331-.779-.515-.398-.488-.55-.724-2.027-.447.116-.48-.19-.8-.36-.543-.287-1.093-.42-1.617-.775-.688-.468-1.115-1.075-1.714-1.639-.77-.725-1.54-1.506-2.034-2.448-.954-1.813-.854-3.503-.895-5.463-.02-.869-.69-1.192-1.406-1.468-.457.303-.926.57-1.383.726-1.638.56-2.973 1.066-4.741.931-.612-.047-1.077-.306-1.713-.308-.991-.003-1.856-.06-2.79.23-1.151.36-2.14.862-3.238 1.356-.251.112-1.95.804-2.008 1.014.615.241 1.349.121 2.01.358.772.274 1.363.717 2.075 1.1.859.46 2.37.683 3.029 1.42-.902.631-2.41.758-3.436 1.13-.875.318-1.754.514-2.434 1.058-.716.57-1.544 1.705-1.92 2.494-.413.864-1.42 1.611-2.254 2.136-.732.46-1.366.647-2.22.795-.772.136-1.522.07-2.303.231-.976.203-1.973.404-2.962.532-.561.073-1.13.083-1.701.07-.043.615-.066 1.24-.06 1.885.013 1.114.116 1.943.792 2.863.924 1.258 2.002 1.451 3.472 1.675 1.995.305 3.98.562 5.955.986 2.913.624 5.83.961 8.774 1.387 1.765.256 3.568.536 5.343.688 1.83.157 3.63-.324 5.38-.81 2.92-.81 6.65-.994 8.689-3.46 1.122-1.357 1.936-4.382.165-5.528" transform="translate(-170 -481) translate(170 481)"/>
                <path fill="#CE5149" d="M726.67 53.025c.012-2.084.24-4.053.57-6.105.172-1.064.373-2.08.803-3.071.366-.846.918-1.581 1.308-2.414 1.045-2.24 3.165-3.233 5.065-4.62 1.144-.834 2.276-1.732 3.388-2.61.89-.703 1.776-1.366 2.536-2.19.335-.362.86-.948 1.057-1.415.16-.383.169-.801.345-1.195.386-.87.89-1.662 1.44-2.44.845-1.193 1.924-2.196 2.833-3.34.93-1.17 1.696-2.263 2.844-3.246 2.17-1.858 4.706-2.22 7.455-2.728 5.243-.97 10.699-.796 15.987-1.156 4.61-.314 9.37.075 13.994.143 1.688.025 3.74-.257 5.4.115 1.768.394 3.777 1.774 5.104 2.946 1.485 1.312 2.177 2.847 3.146 4.506.378.646.683 1.344 1.078 1.98.45.728 1.054 1.335 1.5 2.075 1.167 1.92 2.24 3.749 3.117 5.825.922 2.179 2.035 4.237 2.989 6.398.33.75.442 1.482.69 2.249.272.834.764 1.502.968 2.36.267 1.123.45 2.018.428 3.186-.021 1.072-.024 2.144-.048 3.217-.022.99-.403 1.246-1.261 1.766-1.428.866-2.806 1.448-4.368 2.01-1.192.43-1.971 1.5-3.198 1.63-1.197.126-2.468.18-3.663.383-1.378.233-2.682.572-4.078.698-1.382.125-2.746.213-4.095.552-2.377.596-4.868.85-7.296 1.182-3.29.45-6.601.825-9.882 1.322-3.132.475-6.328.388-9.485.323-1.455-.03-2.705-.382-4.094-.776-1.43-.406-2.906-.523-4.371-.756-5.237-.835-10.391.136-15.637.053-1.986-.031-3.9-.054-5.864-.33-1.225-.171-2.792-.277-3.717-1.18-.798-.778-1.6-1.4-2.478-2.064-.217-.162-.936-.62-1.064-.845-.31-.544.6-1.546.554-2.438" transform="translate(-170 -481) translate(170 481)"/>
                <path fill="#841E19" d="M810.715 48.278c.022-1.168-.161-2.063-.428-3.185-.204-.86-.696-1.527-.967-2.361-.25-.766-.36-1.5-.691-2.25-.954-2.16-2.067-4.218-2.99-6.397-.876-2.076-1.95-3.904-3.114-5.825-.448-.74-1.051-1.347-1.502-2.075-.395-.636-.7-1.334-1.078-1.98-.97-1.66-1.661-3.194-3.146-4.506-1.327-1.172-3.336-2.552-5.103-2.946-.194-.043-.394-.077-.598-.104.43.545.834 1.117 1.284 1.645.778.91 1.645 1.729 2.41 2.639.755.898 1.068 1.769 1.544 2.824.289.64 1.102 1.455.758 2.189-.297.635-1.524 1.14-2.07 1.545-.738.543-1.308 1.174-1.875 1.879-.64.795-1.39.989-2.2 1.557-.505.355-1.976 1.432-1.982 2.12.564.154 1.178.016 1.754.042.874.039 2.838.118 3.34.993.455.79-.248 2.1-.742 2.705-.598.733-1.33.872-2.17 1.17-1.287.458-2.331 1.194-3.406 2.046-.88.698-2.083 2.527-3.338 2.539-.731.007-.816-.714-1.412-.914-.965-.324-2.033.507-2.992.518.645-1.143 2.176-1.88 3.08-2.83.573-.602 1.807-1.724 1.668-2.69-.628-.06-1.335.522-1.854.817-.825.468-1.587.96-2.334 1.545-1.873 1.464-3.646 2.56-5.981 3.073-2.21.484-4.331 1.213-6.478 1.92-.221.074-2.857.692-1.79 1.519.49.38 2.17.019 2.71.07.632.062.88.309 1.607.312 1.034.005 2.068.048 3.102.042.42-.002 1.057-.171 1.222.323.105.314-.421.867-.606 1.075-.865.967-1.757 1.652-3.077 1.642-.996-.01-1.562.122-2.54.479-1.362.498-3.498 2.61-3.915.242-.12-.675-.288-.603-1.046-.584-1.361.033-2.703.508-4.025.794-2.913.63-5.89 1.227-8.866 1.483-2.216.19-4.501-.011-6.726-.043-.477-.007-3.17-.377-2.708.726.077.182.962.5 1.13.613.39.265.79.583 1.146.879.702.585.789.712.717 1.54-.053.612.058.664-.562.699-.454.026-.821-.231-1.25-.317-1.13-.226-2.35-.518-3.463-.94-1.062-.401-1.9-1.292-2.815-1.93-.735-.511-1.21-.575-2.1-.58-.385-.002-1.09-.143-1.458-.036-.595.174-.986.97-1.096 1.527-.195.986.11 1.546-1.16 1.51-.945-.024-1.641-.061-2.506.32-.786.346-1.443.18-1.96-.251-.015.135-.011.262.049.368.128.225.847.683 1.064.845.878.664 1.68 1.286 2.478 2.065.925.902 2.493 1.009 3.717 1.179 1.964.276 3.878.299 5.864.33 5.247.084 10.4-.888 15.637-.053 1.465.233 2.942.35 4.37.756 1.39.394 2.64.746 4.095.776 3.157.065 6.353.152 9.485-.323 3.28-.497 6.592-.871 9.882-1.322 2.428-.332 4.919-.585 7.296-1.182 1.349-.34 2.713-.427 4.095-.552 1.396-.126 2.7-.465 4.078-.698 1.195-.202 2.466-.257 3.663-.383 1.228-.13 2.006-1.2 3.198-1.63 1.562-.562 2.94-1.144 4.368-2.01.858-.52 1.239-.776 1.26-1.766.026-1.072.028-2.145.049-3.217" transform="translate(-170 -481) translate(170 481)"/>
                <g transform="translate(-170 -481) translate(170 481) translate(489 28.888)">
                    <mask id="tmmbla92vd" fill="#fff">
                        <use xlink:href="#ilref5xz5c"/>
                    </mask>
                    <path fill="#9D3123" d="M18.902 13.317c-1.39-1.39-2.252-3.313-2.252-5.437 0-4.249 3.442-7.696 7.689-7.696h106.937c2.124 0 4.047.862 5.443 2.252 1.39 1.396 2.252 3.32 2.252 5.444 0 4.247-3.447 7.69-7.695 7.69h-17.603c-1.763 0-3.364.716-4.521 1.872-1.156 1.157-1.874 2.753-1.874 4.521 0 3.531 2.864 6.394 6.395 6.394h73.67c2.38 0 4.53.967 6.094 2.523 1.562 1.558 2.524 3.715 2.524 6.095 0 4.76-3.858 8.617-8.618 8.617h-32.437c-1.762 0-3.364.718-4.52 1.874-1.157 1.157-1.874 2.752-1.874 4.521 0 3.53 2.863 6.393 6.394 6.393h20.205c1.762 0 3.364.718 4.52 1.875 1.157 1.156 1.874 2.751 1.874 4.52 0 3.53-2.863 6.394-6.394 6.394H87.446c-1.768 0-3.364.717-4.52 1.874-1.156 1.156-1.874 2.752-1.874 4.52 0 3.53 2.863 6.394 6.394 6.394h35.768c1.763 0 3.363.717 4.52 1.874 1.157 1.156 1.874 2.752 1.874 4.52 0 3.53-2.864 6.394-6.394 6.394h-12.788c-1.763 0-3.364.718-4.521 1.874-1.156 1.156-1.874 2.752-1.874 4.52 0 3.531 2.864 6.394 6.395 6.394h39.849c1.767 0 3.363.718 4.52 1.874 1.156 1.156 1.873 2.752 1.873 4.52 0 3.531-2.863 6.394-6.393 6.394H27.185l-5.314-12.788h52.787c1.768 0 3.364-.717 4.52-1.873 1.157-1.157 1.874-2.753 1.874-4.52 0-3.53-2.863-6.395-6.394-6.395H42.593c-1.763 0-3.363-.717-4.52-1.873-1.157-1.158-1.874-2.753-1.874-4.52 0-3.53 2.864-6.395 6.394-6.395h9.085c1.763 0 3.364-.717 4.52-1.873 1.158-1.158 1.874-2.753 1.874-4.52 0-3.53-2.863-6.395-6.394-6.395H5.936L.62 58.38h87.753c1.763 0 3.364-.716 4.52-1.873 1.157-1.157 1.875-2.752 1.875-4.52 0-3.53-2.864-6.395-6.395-6.395H31.846c-2.38 0-4.537-.966-6.094-2.523-1.557-1.558-2.524-3.715-2.524-6.094 0-4.76 3.858-8.618 8.618-8.618h39.57c1.763 0 3.364-.718 4.52-1.874 1.157-1.156 1.875-2.752 1.875-4.52 0-3.53-2.864-6.394-6.395-6.394H24.339c-2.124 0-4.047-.862-5.437-2.252" mask="url(#tmmbla92vd)"/>
                </g>
                <g transform="translate(-170 -481) translate(170 481) translate(0 51.888)">
                    <mask id="wj900odkmf" fill="#fff">
                        <use xlink:href="#xd194svh6e"/>
                    </mask>
                    <path fill="#9D3123" d="M-16.719 13.75c-1.39-1.391-2.252-3.314-2.252-5.438 0-4.248 3.442-7.695 7.69-7.695H95.655c2.124 0 4.047.862 5.443 2.252 1.39 1.396 2.252 3.319 2.252 5.443 0 4.248-3.447 7.689-7.695 7.689H78.052c-1.763 0-3.364.718-4.52 1.874-1.157 1.156-1.874 2.752-1.874 4.52 0 3.53 2.863 6.394 6.394 6.394h73.67c2.38 0 4.532.968 6.094 2.524 1.562 1.557 2.524 3.715 2.524 6.094 0 4.76-3.858 8.618-8.618 8.618h-32.437c-1.762 0-3.364.718-4.52 1.874-1.157 1.157-1.874 2.752-1.874 4.52 0 3.53 2.864 6.394 6.394 6.394h20.205c1.763 0 3.364.718 4.52 1.875 1.157 1.156 1.874 2.75 1.874 4.52 0 3.53-2.863 6.394-6.394 6.394H51.825c-1.768 0-3.364.717-4.52 1.874-1.157 1.156-1.874 2.752-1.874 4.52 0 3.53 2.864 6.394 6.394 6.394h35.768c1.762 0 3.364.717 4.52 1.874 1.157 1.156 1.874 2.752 1.874 4.52 0 3.53-2.864 6.394-6.394 6.394H74.805c-1.763 0-3.364.718-4.52 1.874-1.157 1.156-1.874 2.752-1.874 4.52 0 3.53 2.863 6.394 6.394 6.394h39.85c1.767 0 3.362.718 4.52 1.874 1.155 1.156 1.873 2.752 1.873 4.52 0 3.53-2.864 6.394-6.394 6.394H-8.434l-5.316-12.788h52.787c1.768 0 3.364-.717 4.52-1.874 1.157-1.156 1.874-2.752 1.874-4.52 0-3.531-2.863-6.394-6.394-6.394H6.972c-1.762 0-3.363-.717-4.52-1.874-1.156-1.157-1.874-2.752-1.874-4.52 0-3.531 2.864-6.394 6.394-6.394h9.085c1.763 0 3.364-.717 4.521-1.874 1.156-1.157 1.873-2.752 1.873-4.52 0-3.531-2.863-6.394-6.394-6.394h-45.742L-35 58.812h87.754c1.762 0 3.363-.715 4.52-1.872 1.156-1.157 1.874-2.752 1.874-4.52 0-3.531-2.864-6.395-6.394-6.395H-3.775c-2.38 0-4.537-.966-6.094-2.524-1.557-1.557-2.524-3.714-2.524-6.094 0-4.76 3.86-8.618 8.618-8.618h39.571c1.762 0 3.363-.717 4.52-1.873 1.156-1.156 1.874-2.752 1.874-4.52 0-3.531-2.864-6.395-6.394-6.395H-11.28c-2.124 0-4.048-.861-5.438-2.251" mask="url(#wj900odkmf)"/>
                </g>
                <path fill="#9D3123" d="M959.874 66.304c0 3.082-14.533 5.581-32.46 5.581s-32.459-2.499-32.459-5.581c0-3.082 14.532-5.581 32.459-5.581 17.927 0 32.46 2.499 32.46 5.581" transform="translate(-170 -481) translate(170 481)"/>
                <path fill="#841E19" d="M931.329 63.58L945.721 63.58 944.491 54.425 938.525 52.787 938.525 54.731 935.985 56.173 932.388 52.787 928.79 42.628 916.726 47.919 909.108 63.58z" transform="translate(-170 -481) translate(170 481)"/>
                <g transform="translate(-170 -481) translate(170 481) translate(209 78.888)">
                    <mask id="zenhbi4klh" fill="#fff">
                        <use xlink:href="#icjl1isigg"/>
                    </mask>
                    <path fill="#9D3123" d="M177.09 109.867c1.39 1.39 2.251 3.313 2.251 5.437 0 4.25-3.442 7.696-7.69 7.696H64.715c-2.124 0-4.047-.862-5.443-2.252-1.39-1.396-2.252-3.319-2.252-5.444 0-4.248 3.447-7.689 7.695-7.689h17.603c1.763 0 3.364-.717 4.521-1.873 1.156-1.157 1.873-2.753 1.873-4.52 0-3.532-2.863-6.395-6.394-6.395H8.648c-2.38 0-4.532-.967-6.094-2.524C.992 90.746.03 88.59.03 86.21c0-4.759 3.858-8.618 8.618-8.618h32.437c1.763 0 3.364-.717 4.52-1.873 1.157-1.157 1.874-2.753 1.874-4.52 0-3.53-2.863-6.395-6.394-6.395H20.88c-1.763 0-3.364-.717-4.52-1.874-1.157-1.156-1.874-2.75-1.874-4.52 0-3.53 2.863-6.395 6.394-6.395h87.665c1.768 0 3.364-.716 4.52-1.873 1.157-1.156 1.874-2.752 1.874-4.52 0-3.53-2.864-6.394-6.394-6.394H72.777c-1.762 0-3.364-.717-4.52-1.874-1.157-1.156-1.874-2.752-1.874-4.52 0-3.53 2.864-6.394 6.394-6.394h12.788c1.763 0 3.364-.718 4.521-1.874 1.156-1.156 1.873-2.752 1.873-4.52 0-3.53-2.863-6.394-6.394-6.394H45.716c-1.768 0-3.363-.718-4.52-1.874-1.156-1.156-1.874-2.752-1.874-4.52 0-3.53 2.864-6.394 6.394-6.394h123.088l5.316 12.788h-52.787c-1.768 0-3.364.717-4.52 1.873-1.157 1.156-1.874 2.753-1.874 4.521 0 3.53 2.863 6.394 6.394 6.394h32.065c1.762 0 3.363.717 4.52 1.873 1.156 1.157 1.874 2.752 1.874 4.521 0 3.53-2.864 6.394-6.394 6.394h-9.085c-1.763 0-3.364.717-4.52 1.873-1.157 1.157-1.874 2.752-1.874 4.521 0 3.53 2.863 6.393 6.394 6.393h45.742l5.315 12.79h-87.754c-1.762 0-3.363.716-4.52 1.873-1.156 1.156-1.874 2.752-1.874 4.52 0 3.53 2.864 6.394 6.394 6.394h56.53c2.38 0 4.536.967 6.093 2.524 1.557 1.557 2.524 3.715 2.524 6.094 0 4.76-3.859 8.618-8.618 8.618h-39.57c-1.763 0-3.364.718-4.52 1.874-1.157 1.156-1.875 2.752-1.875 4.52 0 3.531 2.864 6.394 6.394 6.394h47.077c2.124 0 4.048.862 5.438 2.252" mask="url(#zenhbi4klh)"/>
                </g>
            </g>
        </g>
    </g>
</svg>
