<svg xmlns="http://www.w3.org/2000/svg" xmlns:xlink="http://www.w3.org/1999/xlink" width="2372" height="1090" viewBox="0 0 1186 545">
    <defs>
        <circle id="0gr09c0r5h" cx="91.524" cy="91.384" r="90.842"/>
        <circle id="ani0zlax2i" cx="91.524" cy="91.384" r="90.842"/>
        <circle id="ubih5uc0ok" cx="30.546" cy="29.768" r="29.747"/>
        <circle id="kw5p0ckkhm" cx="20.968" cy="20.507" r="19.254"/>
        <path id="xdp7yg656a" d="M0 0H1186V545H0z"/>
        <path id="ohp0willgc" d="M0.916 0H1366.916V545H0.916z"/>
        <path id="3qbw2l2xqe" d="M0.773 0.947H1624.668V648.841H0.773z"/>
        <radialGradient id="s7t1qf51uj" cx="50%" cy="50%" r="50%" fx="50%" fy="50%">
            <stop offset="0%" stop-color="#FFF"/>
            <stop offset="100%" stop-color="#FFF"/>
        </radialGradient>
        <radialGradient id="j55s30d7zl" cx="50.003%" cy="49.988%" r="46.4%" fx="50.003%" fy="49.988%">
            <stop offset="0%" stop-color="#F5BA64"/>
            <stop offset="43.244%" stop-color="#987544"/>
            <stop offset="100%" stop-color="#191719"/>
        </radialGradient>
        <linearGradient id="cpgyoz6ywg" x1="50%" x2="50%" y1="68.429%" y2="3.47%">
            <stop offset=".303%" stop-color="#5F1000"/>
            <stop offset="11.639%" stop-color="#491005"/>
            <stop offset="26.38%" stop-color="#351009"/>
            <stop offset="43%" stop-color="#26100D"/>
            <stop offset="62.85%" stop-color="#1E100E"/>
            <stop offset="94.421%" stop-color="#1B100F"/>
        </linearGradient>
    </defs>
    <g fill="none" fill-rule="evenodd">
        <g>
            <g transform="translate(-180 -64) translate(180 64)">
                <mask id="ryij3g7yyb" fill="#fff">
                    <use xlink:href="#xdp7yg656a"/>
                </mask>
                <g mask="url(#ryij3g7yyb)">
                    <g transform="translate(-110)">
                        <mask id="4woqbqv0id" fill="#fff">
                            <use xlink:href="#ohp0willgc"/>
                        </mask>
                        <g mask="url(#4woqbqv0id)">
                            <g transform="translate(-149 -37)">
                                <mask id="q11u0jktvf" fill="#fff">
                                    <use xlink:href="#3qbw2l2xqe"/>
                                </mask>
                                <g mask="url(#q11u0jktvf)">
                                    <path fill="url(#cpgyoz6ywg)" fill-rule="nonzero" d="M0.773 0.947H1624.668V648.841H0.773z"/>
                                    <g opacity=".8">
                                        <g fill-rule="nonzero">
                                            <path fill="#FFFCDF" d="M101.937 113.874c-2.023-2.688-5.736-3.441-8.648-1.754.678-2.498-.155-5.161-2.134-6.829-1.979-1.667-4.745-2.036-7.091-.945-2.347 1.092-3.848 3.445-3.848 6.033 0 .033.002.065.003.098-1.072-.16-2.164-.125-3.223.104-.967-2.45-2.96-4.353-5.454-5.203-2.493-.85-5.234-.561-7.496.789-.4-2.082-1.77-3.849-3.685-4.758 1.008-3.33-.341-6.922-3.292-8.764.496-1.73-.154-3.587-1.623-4.628-1.47-1.041-3.436-1.041-4.905 0-1.469 1.041-2.12 2.897-1.623 4.628-3.137 1.957-4.44 5.868-3.102 9.315-1.53.343-2.847 1.313-3.63 2.672-.296-.04-.595-.06-.894-.061-1.93-.002-3.764.837-5.025 2.297-1.534-2.895-4.77-4.458-7.99-3.861-3.221.597-5.681 3.216-6.076 6.468-1.59-.956-3.59-.9-5.123.143-1.83-3.76-6.013-5.757-10.087-4.818-4.073.939-6.96 4.566-6.96 8.746 0 .11.004.219.008.328h101.898z" opacity=".2" transform="translate(235 38) translate(362 269)"/>
                                            <g opacity=".5">
                                                <path fill="#CBCCCC" d="M41.459 66.26V12.183c-.127-4.36-2.171-8.442-5.587-11.155-.885-.719-2.152-.719-3.037 0-3.416 2.713-5.46 6.795-5.587 11.155v54.075h14.21zM25.647 78.641V31.796c-.09-2.752-1.557-5.274-3.904-6.712-2.348 1.438-3.815 3.96-3.905 6.712v46.845l-1.897 2.043v4.232h11.603v-4.232l-1.897-2.043zM43.06 78.641V31.796c.09-2.752 1.557-5.274 3.904-6.712 2.348 1.438 3.815 3.96 3.904 6.712v46.845l1.897 2.043v4.232H41.163v-4.232l1.897-2.043z" transform="translate(235 38) translate(362 269) translate(17)"/>
                                                <path fill="#B3B4B5" d="M52.765 84.916v-4.232l-1.897-2.043V31.796c-.09-2.752-1.556-5.274-3.904-6.712v59.832h5.801zM15.941 84.916v-4.232l1.897-2.043V31.796c.09-2.752 1.557-5.274 3.904-6.712v59.832h-5.8z" transform="translate(235 38) translate(362 269) translate(17)"/>
                                                <path fill="#A7A9AA" d="M0.715 70.495L26.333 72.916 42.373 72.916 67.992 70.495z" transform="translate(235 38) translate(362 269) translate(17)"/>
                                                <path fill="#E9E8DB" d="M39.751 70.855v-50.79c-.096-3.313-1.65-6.414-4.244-8.475-.672-.545-1.635-.545-2.307 0-2.595 2.061-4.148 5.162-4.244 8.475v50.79l-2.623 2.061v5.85h16.04v-5.85l-2.622-2.06z" transform="translate(235 38) translate(362 269) translate(17)"/>
                                                <path fill="#A7A9AA" d="M37.462 29.092v-8.956c-.072-2.515-1.2-4.883-3.109-6.524-1.894 1.62-3.022 3.961-3.108 6.453v9.027h6.217z" transform="translate(235 38) translate(362 269) translate(17)"/>
                                                <path fill="#E6E6E5" d="M28.956 48.911L3.066 62.595C1.62 63.36.716 64.862.716 66.5v3.996h28.24V48.911zM39.751 48.911L65.64 62.595c1.447.765 2.352 2.267 2.352 3.904v3.996H39.75V48.911z" transform="translate(235 38) translate(362 269) translate(17)"/>
                                                <path fill="#B3B4B5" d="M29.321 33.374H39.386V34.374H29.321zM29.321 42.444H39.386V43.444H29.321zM29.321 66.259H39.386V67.259H29.321zM26.999 76.074H41.708V77.074H26.999z" transform="translate(235 38) translate(362 269) translate(17)"/>
                                                <path fill="#CBCCCC" d="M11.105 59.873v6.79c0 .424.169.83.468 1.13.3.3.707.469 1.13.469h4.378c1.74 0 3.408-.692 4.638-1.922s1.921-2.898 1.921-4.638v-8.455l-12.535 6.626zM57.601 59.873v6.79c0 .883-.715 1.599-1.598 1.599h-4.378c-1.74 0-3.407-.692-4.638-1.922-1.23-1.23-1.92-2.898-1.92-4.638v-8.455L57.6 59.873z" transform="translate(235 38) translate(362 269) translate(17)"/>
                                                <path fill="#A7A9AA" d="M17.838 36.818H25.647000000000002V42.443H17.838z" transform="translate(235 38) translate(362 269) translate(17)"/>
                                                <path fill="#949698" d="M17.838 36.818H21.752000000000002V42.443H17.838z" transform="translate(235 38) translate(362 269) translate(17)"/>
                                                <path fill="#A7A9AA" d="M43.06 36.818H50.869V42.443H43.06z" transform="translate(235 38) translate(362 269) translate(17) rotate(180 46.964 39.631)"/>
                                                <path fill="#949698" d="M46.955 36.818H50.869V42.443H46.955z" transform="translate(235 38) translate(362 269) translate(17) rotate(180 48.912 39.631)"/>
                                            </g>
                                        </g>
                                        <g opacity=".5">
                                            <path fill="#FFF" d="M802.812 111.998c1.807-.007 3.279 1.452 3.286 3.26.007 1.807-1.452 3.278-3.26 3.285-1.807.007-3.278-1.452-3.285-3.26 0-1.804 1.455-3.27 3.26-3.285zM321.646 4.737c1.173-.005 2.258.617 2.846 1.632.588 1.015.588 2.266 0 3.28-.588 1.015-1.673 1.638-2.846 1.633-1.801-.008-3.258-1.47-3.258-3.273 0-1.802 1.457-3.264 3.258-3.272zM83.276 131.871c1.807-.007 3.278 1.452 3.286 3.26.007 1.807-1.452 3.278-3.26 3.285-1.807.007-3.278-1.452-3.285-3.26-.005-.867.336-1.702.948-2.318.611-.617 1.443-.964 2.311-.967zM363.93 206.979c1.807-.007 3.278 1.452 3.286 3.26.007 1.806-1.452 3.277-3.26 3.285-1.807.007-3.278-1.452-3.285-3.26 0-1.804 1.455-3.27 3.26-3.285zM970.382 51.478c1.323-.005 2.52.787 3.031 2.008.512 1.22.237 2.63-.695 3.57-.932.939-2.338 1.225-3.563.723-1.225-.502-2.027-1.692-2.033-3.015-.006-.869.335-1.704.947-2.32.611-.618 1.444-.965 2.313-.966zM1161.083 212.264c1.808.008 3.267 1.479 3.26 3.286-.008 1.807-1.479 3.266-3.286 3.26-1.807-.008-3.267-1.48-3.26-3.286 0-.87.347-1.703.964-2.315.617-.612 1.453-.952 2.322-.945zM512.798 252.858c.667-.01 1.275.383 1.537.996.263.613.13 1.324-.339 1.8-.467.475-1.176.62-1.793.368-.618-.253-1.02-.854-1.02-1.52-.006-.9.716-1.634 1.615-1.644zM599.286 138.602c.895.007 1.617.734 1.617 1.63 0 .894-.722 1.622-1.617 1.629-.585.004-1.128-.305-1.422-.811-.294-.506-.294-1.131 0-1.637s.837-.816 1.422-.811zM471.224 68.49c.432.003.846.178 1.149.486.303.308.471.724.467 1.156.003.43-.166.843-.47 1.146-.304.304-.716.474-1.146.47-.432.005-.848-.164-1.156-.467-.309-.303-.484-.716-.487-1.149.005-.905.738-1.638 1.643-1.642zM396.422 168.517c.432-.004.848.165 1.156.468.309.303.484.716.487 1.148-.005.906-.738 1.639-1.643 1.643-.432-.003-.846-.178-1.149-.486-.303-.308-.471-.724-.467-1.157-.003-.43.166-.842.47-1.146.304-.303.716-.473 1.146-.47zM220.691 39.501c.908 0 1.643.736 1.643 1.643 0 .908-.735 1.643-1.643 1.643-.907 0-1.642-.735-1.642-1.643.004-.905.737-1.638 1.642-1.643zM72.068.259c.432-.004.848.164 1.156.467.308.304.483.717.486 1.15-.002.905-.737 1.638-1.642 1.638-.906 0-1.641-.733-1.643-1.639.003-.432.178-.845.486-1.149.308-.303.724-.471 1.157-.467zM176.759 160.091c.664 0 1.263.4 1.518 1.014.254.614.113 1.32-.357 1.79s-1.176.61-1.79.357c-.614-.255-1.014-.854-1.014-1.518.004-.906.737-1.638 1.643-1.643zM49.624 233.94c.908 0 1.643.735 1.643 1.642 0 .907-.735 1.643-1.643 1.643-.897-.015-1.616-.746-1.616-1.643s.72-1.628 1.616-1.643zM124.188 293.532c.432.003.845.178 1.149.486.303.308.471.724.467 1.157.003.43-.166.842-.47 1.146-.304.303-.717.473-1.146.47-.432.004-.848-.165-1.157-.468-.308-.303-.483-.716-.486-1.148.005-.906.737-1.639 1.643-1.643zM511.182 6.565c.895.007 1.617.735 1.617 1.63 0 .895-.722 1.622-1.617 1.63-.585.004-1.128-.306-1.422-.812-.294-.506-.294-1.13 0-1.637.294-.506.837-.815 1.422-.81zM735.509 256.144c.905.004 1.638.737 1.643 1.643-.004.432-.178.845-.487 1.149-.308.303-.724.47-1.156.467-.43.003-.842-.166-1.146-.47-.304-.304-.473-.717-.47-1.146-.004-.433.164-.849.467-1.157.303-.308.717-.483 1.149-.486zM585.958 329.992c.896.007 1.619.737 1.616 1.634-.002.897-.728 1.623-1.625 1.625-.897.003-1.627-.72-1.634-1.616-.002-.436.17-.856.478-1.164.31-.309.728-.481 1.165-.479zM902.84 295.413c.432-.004.848.164 1.156.468.308.303.483.716.487 1.148 0 .908-.736 1.643-1.643 1.643s-1.643-.735-1.643-1.643c.003-.432.178-.845.486-1.148.308-.304.725-.472 1.157-.468zM1003.795 190.245c.896.007 1.619.737 1.616 1.634-.002.897-.729 1.623-1.625 1.625-.897.003-1.627-.72-1.634-1.616-.002-.437.17-.856.479-1.164.308-.309.727-.481 1.164-.479zM1017.838 78.4c.397 0 .754.238.906.605.152.366.068.788-.212 1.068s-.702.364-1.069.213c-.366-.152-.605-.51-.605-.906.002-.54.44-.978.98-.98zM877.64 10.142c.546.008.984.453.981.998-.002.546-.444.987-.99.99-.544.002-.99-.435-.997-.98-.002-.268.104-.525.293-.714.19-.19.446-.295.714-.294zM846.798 112.979c.543.007.98.45.98.993 0 .544-.437.987-.98.994-.358.005-.691-.184-.872-.493-.18-.31-.18-.692 0-1.001.18-.31.514-.498.872-.493zM911.292 209.244c.547.01.984.46.98 1.006-.006.544-.449.981-.993.981s-.986-.437-.993-.98c0-.268.106-.524.294-.713.19-.188.445-.295.712-.294zM835.563 298.063c.404-.006.772.235.929.607.157.373.073.803-.213 1.09-.286.285-.717.37-1.09.212-.372-.157-.612-.525-.606-.929.01-.537.443-.97.98-.98zM929.92 394.275c.358-.005.691.183.872.493.18.31.18.692 0 1.001-.18.31-.514.498-.872.493-.544-.007-.98-.45-.98-.994 0-.543.436-.986.98-.993zM1055.306 295.201c.543.007.98.45.98.994 0 .543-.437.986-.98.993-.359.005-.692-.183-.872-.493-.18-.309-.18-.692 0-1.001.18-.31.513-.498.872-.493zM734.608 168.12c.358-.005.691.183.871.493.18.31.18.692 0 1-.18.31-.513.499-.871.494-.544-.007-.98-.45-.98-.994 0-.543.436-.986.98-.993zM590.674 269.075c.546.007.983.452.98.998-.002.545-.443.987-.989.989-.545.002-.99-.435-.998-.98-.001-.268.104-.525.294-.714.189-.19.446-.295.713-.293zM274.428 243.69c.545.007.983.453.98.998-.002.545-.444.987-.99.99-.544.002-.99-.436-.997-.981-.002-.268.104-.525.293-.714.19-.189.446-.295.714-.293zM275.46 148.398c.358-.004.691.184.872.493.18.31.18.692 0 1.002-.18.31-.514.497-.872.493-.544-.008-.98-.45-.98-.994s.436-.986.98-.994zM499.046 130.732c.358-.005.692.183.872.493.18.31.18.692 0 1.001-.18.31-.514.498-.872.493-.543-.007-.98-.45-.98-.993 0-.544.437-.987.98-.994zM342.023 83.99c.545.008.983.453.98.999-.002.545-.444.986-.989.989-.545.002-.99-.435-.998-.98-.002-.268.104-.525.293-.714.19-.19.446-.295.714-.294zM143.849 63.429c.545.007.983.452.98.998-.002.545-.443.986-.989.989-.545.002-.99-.435-.998-.98-.001-.268.104-.525.293-.714.19-.19.446-.295.714-.293zM42.894 102.698c.544.007.98.45.98.993 0 .544-.436.987-.98.994-.358.005-.691-.184-.872-.493-.18-.31-.18-.692 0-1.001.18-.31.514-.498.872-.493zM171.883 269.075c.549-.008 1 .431 1.007.98.007.549-.432 1-.98 1.007-.55.007-1-.432-1.007-.98-.006-.265.094-.52.279-.71.184-.19.437-.296.701-.297zM97.108 358.821c.543.008.98.45.98.994s-.437.986-.98.994c-.359.004-.692-.184-.872-.493-.18-.31-.18-.692 0-1.002.18-.31.513-.498.872-.493zM166.266 5.479c.404-.006.771.234.929.607.157.373.073.803-.213 1.09-.286.285-.717.37-1.09.212-.372-.157-.612-.524-.607-.929.011-.537.444-.97.98-.98zM637.39 20.423c.357-.005.69.184.87.493.181.31.181.692 0 1.002-.18.31-.513.497-.87.493-.544-.008-.981-.45-.981-.994s.437-.986.98-.994zM1138.428 143.822c.404-.006.772.234.929.607.157.372.073.803-.213 1.089-.286.286-.717.37-1.09.213-.372-.157-.612-.525-.606-.929.01-.537.443-.97.98-.98zM1091.687 14.832c.396 0 .754.24.905.606.152.366.068.788-.212 1.068s-.702.364-1.069.213c-.366-.152-.605-.51-.605-.906.002-.54.44-.979.98-.98z" transform="translate(235 38)"/>
                                            <g opacity=".8" transform="translate(235 38) translate(634 126)">
                                                <g transform="translate(19 19)">
                                                    <g>
                                                        <circle fill="url(#s7t1qf51uj)" fill-rule="nonzero" style="mix-blend-mode:screen" cx="91.524" cy="91.384" r="90.842"/>
                                                    </g>
                                                </g>
                                                <circle cx="110.524" cy="110.384" r="110.387" fill="#F5BA64" fill-rule="nonzero"/>
                                                <circle cx="110.524" cy="110.384" r="99.773" fill="#F6C173" fill-rule="nonzero"/>
                                                <circle cx="110.524" cy="110.384" r="89.158" fill="#F8C987" fill-rule="nonzero"/>
                                                <circle cx="110.524" cy="110.384" r="78.544" fill="#F9D198" fill-rule="nonzero"/>
                                                <circle cx="110.524" cy="110.384" r="67.93" fill="#F9D8A8" fill-rule="nonzero"/>
                                                <circle cx="110.524" cy="110.384" r="57.315" fill="#FAE0BA" fill-rule="nonzero"/>
                                                <circle cx="110.524" cy="110.384" r="46.701" fill="#FBE7CB" fill-rule="nonzero"/>
                                            </g>
                                            <path fill="#B63926" fill-rule="nonzero" d="M693.226 604.116L.039 639.696V320.612h246.14c19.047 0 37.284 7.705 50.56 21.362l19.104 19.675c13.27 13.659 31.504 21.365 50.547 21.362h139.672c23.38 0 45.237 11.597 58.346 30.957l39.361 58.108 16.108 23.776 73.349 108.264z" transform="translate(235 38)"/>
                                            <path fill="#892B1C" fill-rule="nonzero" d="M360.244 467.119v14.075c0 2.311-.917 4.528-2.551 6.163-1.634 1.634-3.851 2.552-6.163 2.551h-87.578c-2.311 0-4.528.917-6.163 2.551-1.634 1.635-2.552 3.852-2.551 6.163v.012c.003 4.811 3.902 8.71 8.714 8.714h21.006c2.311-.001 4.528.917 6.162 2.551 1.635 1.634 2.552 3.851 2.552 6.162v3.971c-.003 4.811-3.903 8.711-8.714 8.714H73.542c-4.81-.003-8.71-3.903-8.713-8.714v-3.97c-.001-2.312.917-4.529 2.551-6.163 1.634-1.634 3.851-2.552 6.162-2.551H196.19c4.812-.003 8.712-3.903 8.714-8.714v-.012c.001-2.311-.917-4.528-2.551-6.163-1.634-1.634-3.851-2.552-6.163-2.551H.04v-31.503h59.843c4.812-.003 8.711-3.903 8.714-8.714v-.202c-.003-4.811-3.902-8.711-8.714-8.714H.04v-26.95h29.72c2.311 0 4.528-.917 6.163-2.551 1.634-1.635 2.552-3.852 2.551-6.163v-3.97c0-2.312-.917-4.528-2.551-6.163-1.635-1.634-3.852-2.552-6.163-2.551H.04v-30.112h239.745c2.31 0 4.528.917 6.162 2.551 1.634 1.634 2.552 3.851 2.552 6.162v12.685c0 2.311-.918 4.528-2.552 6.162-1.634 1.635-3.851 2.552-6.162 2.552h-132.36c-2.312-.001-4.529.917-6.163 2.551-1.635 1.635-2.552 3.851-2.552 6.163v3.97c0 2.311.917 4.528 2.552 6.163 1.634 1.634 3.85 2.552 6.162 2.551h44.39c2.311 0 4.528.917 6.162 2.552 1.634 1.634 2.552 3.85 2.552 6.162v9.522c-.003 4.812-3.903 8.711-8.714 8.714h-24.18c-2.312 0-4.528.917-6.163 2.552-1.634 1.634-2.552 3.85-2.551 6.162v.202c0 2.311.917 4.528 2.551 6.162 1.635 1.635 3.851 2.553 6.163 2.552H351.53c2.312 0 4.529.917 6.163 2.551 1.634 1.635 2.551 3.851 2.551 6.163zM488.04 441.762h-93.915c-4.262-.013-7.715-3.465-7.727-7.727.012-4.263 3.465-7.715 7.727-7.728h93.915c4.262.013 7.715 3.465 7.727 7.728-.012 4.262-3.465 7.714-7.727 7.727z" transform="translate(235 38)"/>
                                            <path fill="#841E19" fill-rule="nonzero" d="M810.472 472.004h90.748c9.652 0 9.668-15 0-15h-90.748c-9.652 0-9.668 15 0 15zM929.384 471.222h18.775c9.652 0 9.668-15 0-15h-18.775c-9.652 0-9.668 15 0 15z" transform="translate(235 38)"/>
                                            <path fill="#841E19" fill-rule="nonzero" d="M962.985 465.66v94.605H435.837v-92.087l33.342-77.214 8.958-20.732 5.007-11.601 1.909-4.42c10.545-24.409 37.676-40.61 68.006-40.61 9.275.04 18.413-2.229 26.591-6.603.29-.149.58-.305.86-.47 7.87-4.317 14.27-10.888 18.377-18.869l20.035-40.195c3.756-7.526 12.377-12.408 21.913-12.408h73.507c17.805 0 33.506 10.014 38.646 24.643l32.192 91.594c4.585 13.056 18.604 21.998 34.5 21.998 6.261.018 12.442-1.406 18.064-4.162 5.312-2.581 9.86-6.501 13.198-11.374l12.063-18.056c4.545-6.799 12.979-10.992 22.108-10.992 9.497-.108 18.722 3.17 26.02 9.247 6.658 5.719 10.78 13.612 10.78 22.335v56.03l41.072 49.34z" transform="translate(235 38)"/>
                                            <path fill="#631813" fill-rule="nonzero" d="M771.466 375.967v9.262c0 3.169-3.614 5.735-8.081 5.735h-81.197c-4.459 0-8.073 2.566-8.073 5.734v.008c0 3.16 3.614 5.734 8.073 5.734h19.48c4.46 0 8.081 2.566 8.081 5.735v2.613c0 3.16-3.622 5.734-8.08 5.734h-196.01c-4.467 0-8.082-2.574-8.082-5.734v-2.613c0-3.169 3.615-5.735 8.082-5.735h113.71c4.466 0 8.08-2.573 8.08-5.734v-.008c0-3.168-3.614-5.734-8.08-5.734h-150.19l8.958-20.732h14.856c4.451 0 8.081-2.566 8.081-5.734v-.133c0-3.168-3.63-5.734-8.081-5.734h-9.85l1.91-4.42c10.545-24.409 37.676-40.61 68.006-40.61 9.275.04 18.413-2.229 26.591-6.603h80.133c4.467 0 8.081 2.566 8.081 5.734v8.348c0 3.168-3.614 5.734-8.081 5.734H537.069c-4.467 0-8.082 2.566-8.082 5.734v2.613c0 3.169 3.615 5.735 8.082 5.735h41.157c4.46 0 8.074 2.566 8.074 5.734v6.266c0 3.16-3.614 5.735-8.074 5.735h-22.42c-4.46 0-8.082 2.566-8.082 5.734v.133c0 3.168 3.622 5.734 8.081 5.734h207.58c4.467 0 8.081 2.566 8.081 5.735zM808.358 410.608h30.509c5.148 0 5.156-8 0-8h-30.509c-5.147 0-5.156 8 0 8zM719.179 441.117c5.147 0 5.156-8 0-8-5.148 0-5.156 8 0 8zM617.091 459.891h25.816c5.147 0 5.156-8 0-8H617.09c-5.147 0-5.156 8 0 8z" transform="translate(235 38)"/>
                                            <path fill="#841E19" fill-rule="nonzero" d="M40.336 272.639h-3.511c-1.984.025-3.883.811-5.304 2.196-2.928 2.93-2.928 7.678 0 10.607 1.424 1.38 3.32 2.166 5.304 2.197h3.51c1.985-.025 3.883-.812 5.304-2.197 2.929-2.929 2.929-7.678 0-10.607-1.424-1.38-3.32-2.165-5.303-2.196z" transform="translate(235 38)"/>
                                            <path fill="#595A5C" fill-rule="nonzero" d="M48.22 254.42s-14.823 2.71-27.52-5.229c-12.695-7.939-15.516-19.73-15.516-19.73L48.22 254.42z" transform="translate(235 38)"/>
                                            <path fill="#BFC0C2" fill-rule="nonzero" d="M.09 261.403v59.207h80.942c.001-3.166-.238-6.328-.716-9.458-.07-.456-.144-.913-.224-1.365-.548-3.123-1.336-6.2-2.358-9.2-.156-.457-.316-.914-.482-1.366-1.167-3.178-2.592-6.254-4.262-9.199-.26-.458-.525-.914-.798-1.365-1.962-3.267-4.221-6.347-6.748-9.2-.408-.46-.824-.916-1.247-1.366-3.259-3.472-6.906-6.56-10.87-9.2-.702-.47-1.415-.925-2.14-1.365-9.719-5.923-20.885-9.047-32.266-9.03-6.39-.006-12.74.975-18.83 2.907z" transform="translate(235 38)"/>
                                            <path fill="#A8AAAD" fill-rule="nonzero" d="M.09 267.526v1.365h53.237c-.702-.47-1.415-.925-2.14-1.365H.091zM.09 278.091v1.366h65.354c-.408-.46-.824-.916-1.247-1.366H.091zM.09 288.657v1.365h72.9c-.26-.458-.525-.914-.798-1.365H.091zM.09 299.22v1.366h77.644c-.156-.456-.316-.913-.482-1.365H.09zM.09 309.787v1.365h80.226c-.07-.456-.144-.913-.224-1.365H.09z" transform="translate(235 38)"/>
                                            <path fill="#7E7F81" fill-rule="nonzero" d="M20.766 304.78H56.46v2.514c0 3.531-1.403 6.918-3.9 9.416-2.498 2.497-5.885 3.9-9.416 3.9h-9.062c-3.532 0-6.919-1.403-9.416-3.9-2.497-2.498-3.9-5.885-3.9-9.416v-2.514z" transform="translate(235 38) rotate(-180 38.613 312.695)"/>
                                            <path fill="#595A5C" fill-rule="nonzero" d="M56.46 317.263v3.347H45.927v-3.347c0-3.31-1.315-6.486-3.656-8.827s-5.516-3.656-8.827-3.656h10.533c3.31 0 6.486 1.315 8.827 3.656 2.34 2.34 3.656 5.516 3.656 8.827z" transform="translate(235 38)"/>
                                            <path fill="#EC7C31" fill-rule="nonzero" d="M71.608 312.695c1.184-.004 2.142-.962 2.146-2.146v-1.608c-.004-1.184-.962-2.142-2.146-2.146-1.183.004-2.142.962-2.145 2.146v1.608c.003 1.184.962 2.142 2.145 2.146zM62.311 312.695c1.184-.004 2.142-.962 2.146-2.146v-1.608c-.004-1.184-.962-2.142-2.146-2.146-1.183.004-2.142.962-2.145 2.146v1.608c.003 1.184.962 2.142 2.145 2.146z" transform="translate(235 38)"/>
                                            <path fill="#7E7F81" fill-rule="nonzero" d="M45.927 270.852H39.49c-4.504 0-4.511 7 0 7h6.437c4.504 0 4.512-7 0-7zM23.692 278.242c4.504 0 4.511-7 0-7-4.505 0-4.512 7 0 7zM9.258 289.1h22.886c4.504 0 4.511-7 0-7H9.258c-4.504 0-4.512 7 0 7zM65.952 292.633H55.289c-4.504 0-4.511 7 0 7h10.663c4.504 0 4.512-7 0-7z" transform="translate(235 38)"/>
                                            <path fill="#7E7F81" fill-rule="nonzero" d="M49.308 299.763c4.504 0 4.511-7 0-7-4.504 0-4.512 7 0 7zM59.775 287.605c4.505 0 4.512-7 0-7-4.504 0-4.511 7 0 7zM24.76 245.288c11.885 6.893 22.388 10.981 23.459 9.132 1.073-1.849-7.69-8.935-19.575-15.828-11.884-6.89-22.388-10.98-23.46-9.13-1.071 1.849 7.692 8.935 19.576 15.826z" transform="translate(235 38)"/>
                                            <path fill="#595A5C" fill-rule="nonzero" d="M5.183 229.462c21.284 7.576 43.036 24.958 43.036 24.958 1.073-1.849-7.69-8.935-19.575-15.828-11.884-6.89-22.388-10.98-23.46-9.13z" transform="translate(235 38)"/>
                                            <path fill="#D8D9D9" fill-rule="nonzero" d="M23.05 244.266L24.341 245.027 34.909 230.422 33.762 229.462z" transform="translate(235 38)"/>
                                            <path fill="#FFF" d="M194.577 295.559c-.893-.51-3.562-.873-4.306-.161-1.427 1.364-3.363 8.813-3.387 11.66.114 1.133.92 2.077 2.023 2.365 2.082.48 4.86 1.057 6.397-.43 2.378-2.316 3.571-5.591 3.24-8.895-.33-2.243-1.995-3.42-3.967-4.54z" transform="translate(235 38)"/>
                                            <path fill="#B2BFDD" d="M188.204 309.128c.217.135.454.235.703.295 2.082.48 4.86 1.057 6.397-.43 2.378-2.316 3.571-5.591 3.24-8.895-.28-1.91-1.527-3.044-3.109-4.03-1.817-.304-3.681-.608-4.229.012-2.118 2.377-2.782 9.191-3.002 13.048z" transform="translate(235 38)"/>
                                            <path fill="#B2BFDD" d="M195.67 299.627c-2.826-.679-6.772 5.105-4.601 9.611 1.2 2.496 3.64 3.026 4.625 5.096.661 1.385-.524 2.776 0 4.598 1.712.667 3.554.936 5.385.787.283-.956-.79-1.877-2.18-1.915.82-1.306 1.077-2.889.712-4.387-.778-2.228-1.671-2.484-3.02-4.42-.349-1.471 1.268-3.854 2.1-4.643 2.582 1.322 4.14 1.936 6.328 2.022.753-.323 1.138-1.163.894-1.945-3.065-.601-5.013-2.4-7.75-4.122-.783-.376-1.627-.607-2.493-.682z" transform="translate(235 38)"/>
                                            <path fill="#9EACCC" d="M204.439 306.34c.19.015.384.027.58.036.753-.323 1.138-1.163.894-1.945-.227-.042-.444-.095-.658-.152l-.072.033c-.572.268-1.212.974-1.04 1.578.054.175.156.331.296.45zM198.899 317.804c.608-.985.918-2.125.893-3.282-.811.409-1.744.509-2.623.28-.48 1.167-.65 2.438-.495 3.69.602-.55 1.418-.803 2.225-.688z" transform="translate(235 38)"/>
                                            <path fill="#C35A5A" d="M201.767 305.748c.185.065.363.125.542.178-.137-.909.216-1.823.93-2.403-.218-.107-.433-.22-.644-.337-.667.674-.974 1.625-.828 2.562zM195.39 313.804c.115.168.216.344.304.527.804-2.109 2.222-2.588 3.369-2.165-.138-.25-.295-.489-.468-.715-1.468-.411-2.692.947-3.205 2.353z" transform="translate(235 38)"/>
                                            <path fill="#C35A5A" d="M194.732 313.023c.11.11.218.224.319.34.596-2.04 1.689-2.844 2.734-2.871-.167-.19-.342-.393-.53-.617-1.305.248-2.287 1.823-2.523 3.148z" transform="translate(235 38)"/>
                                            <path fill="#FFF" d="M197.02 293.313c2.38 0 4.31 1.93 4.31 4.31s-1.93 4.31-4.31 4.31-4.31-1.93-4.31-4.31 1.93-4.31 4.31-4.31z" transform="translate(235 38)"/>
                                            <path fill="#B2BFDD" d="M197.282 293.322c1.688.104 3.159 1.185 3.762 2.765.603 1.58.226 3.366-.964 4.568-1.19 1.202-2.973 1.596-4.558 1.01-.138-1.282-.146-2.574-.024-3.858 0-1.804.652-3.684 1.784-4.485z" transform="translate(235 38)"/>
                                            <path fill="#FFF" d="M190.211 306.224c-1.778 3.642-1.021 5.355-1.432 8.321-.239 1.719-.796 2.761-.551 5.174.27 1.057 3.597 1.021 4.42.369.066-.411-.05-.83-.316-1.15-.267-.32-.66-.51-1.075-.518.086-2.228 2.722-3.812 2.075-7.157-.088-2.11-1.271-4.02-3.12-5.039z" transform="translate(235 38)"/>
                                            <path fill="#D1DAEF" d="M191.257 318.42c.047-1.248.896-2.293 1.519-3.559-.948.555-2.122.547-3.062-.02-.535 1.355-.768 2.812-.682 4.267.601-.55 1.417-.803 2.225-.688z" transform="translate(235 38)"/>
                                            <path fill="#F6989A" d="M188.919 312.72c.003.238-.018.467-.03.717 1.546-1.727 3.231-.72 4.217.659.074-.205.137-.414.188-.626-1.588-2.141-3.39-1.82-4.375-.75z" transform="translate(235 38)"/>
                                            <path fill="#F6989A" d="M188.945 311.51c.006.227-.02.507-.014.736 1.673-2.222 3.445-1.182 4.497.304.015-.307.002-.615-.039-.92-1.707-2.076-3.535-1.418-4.444-.12z" transform="translate(235 38)"/>
                                            <path fill="#FFF" d="M193.627 299.842c-1.358-1.463-4.437 1.655-4.262 4.407.18 2.806 2.761 4.557 4.703 4.965 1.328.277 2.672-1.224 1.522-1.945-2.216-1.39-3.133-2.501-2.809-3.755.4-1.56 2.118-2.302.846-3.672z" transform="translate(235 38)"/>
                                            <path fill="#D1DAEF" d="M194.068 309.214c1.328.274 2.672-1.224 1.522-1.945-.09-.056-.176-.11-.26-.166-.147.048-.29.106-.431.172-.569.268-1.21.971-1.036 1.576.04.135.11.26.205.363z" transform="translate(235 38)"/>
                                            <path fill="#9EACCC" d="M190.81 300.583c-.213.235-.407.486-.58.75.448.382.955.69 1.5.912.152-.28.405-.605.557-.885-.536-.166-1.036-.43-1.477-.777z" transform="translate(235 38)"/>
                                            <path fill="#F6989A" d="M190.31 306.799c.106.147.22.288.342.423.584-1.483 1.471-2.136 2.347-2.231-.116-.2-.2-.42-.247-.646-1.19.33-2.118 1.262-2.442 2.454z" transform="translate(235 38)"/>
                                            <path fill="#4E4E4E" d="M201.3 297.105c-1.168.91-4.462 1.006-6.732-.46-.578 1.09-.702 2.365-.342 3.545 1.078 1.254 3.103 1.537 4.813 1.239 1.41-.746 2.291-2.211 2.29-3.806 0-.173-.01-.347-.03-.518z" transform="translate(235 38)"/>
                                            <path fill="#1A1A1A" d="M201.3 297.105c-1.013.789-3.62.967-5.776.047-.017.218-.026.435-.026.655 0 1.174-.15 2.362-.075 3.262 1.145.47 2.401.595 3.616.36 1.41-.746 2.291-2.211 2.29-3.806 0-.173-.01-.347-.03-.518z" transform="translate(235 38)"/>
                                            <path fill="#D1DAEF" d="M191.271 313.125c.55.124.91.65.828 1.208-.083.557-.581.956-1.143.915-.562-.041-.997-.509-.998-1.072.081-.648.663-1.114 1.313-1.051zM198.443 312.496c.55.126.91.653.826 1.21-.084.557-.583.956-1.145.914-.562-.041-.996-.509-.997-1.072.08-.65.665-1.117 1.316-1.052z" transform="translate(235 38)"/>
                                            <path fill="#FFF" d="M190.819 300.684c.383.314.823.551 1.295.7-.119.22-.315.47-.434.691-.462-.19-.892-.451-1.275-.771.119-.22.298-.4.414-.62z" transform="translate(235 38)"/>
                                            <path fill="#F6989A" d="M190.819 300.684c.383.314.823.551 1.295.7-.068.125-.16.26-.247.39-.452-.201-.877-.458-1.266-.765.082-.102.154-.21.218-.325z" transform="translate(235 38)"/>
                                            <path fill="#B2BFDD" d="M195.128 295.565c.194 0 .352.157.352.351 0 .194-.158.352-.352.352-.194 0-.351-.158-.351-.352 0-.194.157-.35.351-.351z" transform="translate(235 38)"/>
                                            <path fill="#FFF" d="M195.105 295.642c.1 0 .192.061.23.155.04.093.018.2-.054.272-.071.072-.179.093-.272.054-.094-.038-.155-.13-.155-.23 0-.067.026-.13.073-.178.047-.047.111-.073.178-.073z" transform="translate(235 38)"/>
                                            <path fill="#9EACCC" d="M196.102 295.997c.194 0 .352.157.352.351 0 .194-.158.351-.352.351-.194 0-.351-.157-.351-.351 0-.194.157-.351.351-.351z" transform="translate(235 38)"/>
                                            <path fill="#FFF" d="M196.075 296.074c.101 0 .191.062.23.155.037.093.015.2-.056.27-.072.071-.179.092-.272.053-.092-.04-.152-.13-.152-.23.001-.138.113-.249.25-.248zM195.411 307.457c-.569.268-1.209.971-1.036 1.579.182.64 1.093.923 1.76.956.73.098 1.459-.192 1.921-.766.235-.42-.054-.816-.83-1.176.64-.054.943-.495.67-.67-.793-.376-1.717-.347-2.485.077z" transform="translate(235 38)"/>
                                            <path fill="#B2BFDD" d="M205.68 304.38c-.568.266-1.209.971-1.036 1.576.182.64 1.093.923 1.76.959.73.097 1.46-.194 1.921-.768.235-.42-.053-.816-.83-1.177.64-.05.943-.494.67-.67-.793-.376-1.718-.346-2.485.08z" transform="translate(235 38)"/>
                                            <path fill="#A42A22" fill-rule="nonzero" d="M1564.473 502.054v66.176c-.704.055-1.416.078-2.136.078h-276.283c-4.676 0-9.278 1.173-13.385 3.41l-107.96 58.894c-4.106 2.238-8.708 3.41-13.385 3.41h-295.63l-28.593-127.775 58.54-71.903c5.307-6.518 13.266-10.302 21.67-10.303h116.269c9.888-.001 19.04-5.224 24.071-13.737l10.374-17.58c5.03-8.512 14.183-13.735 24.072-13.737h20.935c8.343 0 16.25-3.726 21.56-10.162l34.86-42.26c5.31-6.436 13.218-10.163 21.56-10.163h146.544c11.293 0 21.475 6.799 25.809 17.227l2.918 7.025 7.479 17.993 22.421 53.98 7.479 17.993 12.666 30.495c4.334 10.428 14.516 17.224 25.808 17.227h102.93c4.52 0 8.973 1.095 12.978 3.191l16.429 20.52z" transform="translate(235 38)"/>
                                            <path fill="#841E19" fill-rule="nonzero" d="M1367.94 494.027c3.094 3.096 4.019 7.75 2.344 11.794-1.674 4.044-5.619 6.682-9.996 6.684h-150.462c-3.87.004-7.447-2.058-9.382-5.408-1.936-3.35-1.936-7.48 0-10.83 1.935-3.35 5.512-5.412 9.382-5.408h24.768c4.968 0 8.996-4.028 8.996-8.997s-4.028-8.997-8.996-8.997h-103.657c-6.697 0-12.126-5.429-12.126-12.125 0-6.697 5.429-12.126 12.126-12.126h45.64c4.969 0 8.997-4.028 8.997-8.997s-4.028-8.997-8.997-8.997h-28.43c-4.964-.005-8.986-4.031-8.986-8.996 0-4.965 4.022-8.992 8.987-8.997h123.348c4.968 0 8.996-4.028 8.996-8.997 0-4.968-4.028-8.996-8.996-8.996h-50.327c-3.216.003-6.19-1.71-7.799-4.496-1.61-2.785-1.61-6.217 0-9.002 1.61-2.785 4.583-4.499 7.8-4.495h17.992c3.217.003 6.19-1.711 7.8-4.496 1.609-2.785 1.609-6.217 0-9.002-1.61-2.785-4.583-4.5-7.8-4.496h-56.068c-4.969 0-8.997-4.028-8.997-8.996 0-4.97 4.028-8.997 8.997-8.997h173.189l7.479 17.993h-74.273c-4.969 0-8.997 4.028-8.997 8.997s4.028 8.997 8.997 8.997h45.116c3.216-.004 6.19 1.71 7.8 4.495 1.608 2.785 1.608 6.217 0 9.002-1.61 2.785-4.584 4.5-7.8 4.496h-12.783c-4.969 0-8.997 4.028-8.997 8.996 0 4.97 4.028 8.997 8.997 8.997h64.361l7.479 17.993h-123.473c-4.969 0-8.996 4.028-8.996 8.997s4.027 8.997 8.996 8.997h79.538c6.697 0 12.126 5.429 12.126 12.126 0 6.696-5.429 12.125-12.126 12.125h-55.677c-4.969 0-8.997 4.028-8.997 8.997s4.028 8.997 8.997 8.997h66.238c2.87-.004 5.624 1.136 7.652 3.168z" transform="translate(235 38)"/>
                                            <path fill="#631813" fill-rule="nonzero" d="M1096.715 425.517c6.434 0 6.445-10 0-10-6.435 0-6.446 10 0 10zM1106.102 411.436c6.435 0 6.445-10 0-10-6.435 0-6.445 10 0 10zM1080.287 406.742c6.434 0 6.445-10 0-10-6.435 0-6.445 10 0 10z" transform="translate(235 38)"/>
                                            <path fill="#CDCCCC" fill-rule="nonzero" d="M1226.348 313.949c.003-.16.009-.318.009-.478 0-12.916-10.773-23.387-24.063-23.387s-24.063 10.471-24.063 23.387c0 .16.012.318.015.478h48.102z" transform="translate(235 38)"/>
                                            <path fill="#A0A1A1" fill-rule="nonzero" d="M1182.926 299.596h38.736c-.51-.672-1.055-1.316-1.634-1.93h-35.468c-.578.614-1.124 1.258-1.634 1.93z" transform="translate(235 38)"/>
                                            <path fill="#808182" fill-rule="nonzero" d="M1206.742 313.949v-7.652c0-1.589-.848-3.057-2.224-3.852-1.376-.794-3.072-.794-4.448 0-1.376.795-2.224 2.263-2.224 3.852v7.652h8.896z" transform="translate(235 38)"/>
                                            <path fill="#A0A1A1" fill-rule="nonzero" d="M1202.294 303.287c-1.935 0-3.503 1.569-3.503 3.503v7.159h7.006v-7.159c0-1.934-1.568-3.503-3.503-3.503z" transform="translate(235 38)"/>
                                            <path fill="#808182" fill-rule="nonzero" d="M1178.246 313.949H1226.3570000000002V316.295H1178.246z" transform="translate(235 38)"/>
                                            <path fill="#DA7991" fill-rule="nonzero" d="M206.772 284.64H218.762V292.509H206.772z" transform="translate(235 38)"/>
                                            <path fill="#F4EDF1" fill-rule="nonzero" d="M206.772 285.8H218.762V286.827H206.772zM206.772 288.06H218.762V289.087H206.772zM206.772 290.321H218.762V291.348H206.772z" transform="translate(235 38)"/>
                                            <path fill="#DBD2DA" fill-rule="nonzero" d="M206.772 320.462c-.136 0-.267-.054-.363-.15-.096-.097-.15-.227-.15-.363v-35.31c0-.283.23-.512.513-.512.283 0 .513.23.513.513v35.309c0 .136-.054.266-.15.363-.096.096-.227.15-.363.15z" transform="translate(235 38)"/>
                                        </g>
                                    </g>
                                    <g fill-rule="nonzero" opacity=".2" transform="translate(1348 101)">
                                        <circle cx="47.75" cy="32.941" r="26.568" fill="#E8A04D" transform="rotate(-76.717 47.75 32.94)"/>
                                        <path fill="#F2BD7E" d="M49.129 53.8c.65-.12 1.277-.344 1.857-.661-1.346-.226-2.697.297-4.06.382-.502.021-1.005.012-1.507-.027-1.775-.101-3.524-.185-5.29-.155-1.89.033-3.778.145-5.668.19-1.177.028-2.379.017-3.576-.06 9.012 7.404 21.799 8.064 31.526 1.63-.485.321-2.026.139-2.622.176-.874.054-1.75.104-2.624.15-1.681.087-3.305.532-4.99.58-.515.015-1.032-.012-1.546.025-1.637.117-3.207.878-4.845.785-1.485-.085-2.838-.863-4.293-1.171-.291-.062-.586-.105-.88-.148l-2.883-.419c-.006-.268.167-.508.423-.587.252-.071.515-.091.774-.06 2.454.11 4.88-.607 7.336-.574.726.01 1.452.085 2.176.033.232-.016.463-.046.692-.089zM44.558 13.239c.623.105 1.227.305 1.791.592-1.878.435-3.875-.098-5.759.312-.795.172-1.552.51-2.359.615-.572.047-1.147.058-1.72.03-.757.002-1.51.08-2.25.235-.354.05-.691.188-.98.4-.292.223-.409.606-.291.954 1.47.247 2.964.318 4.451.212l6.124-.194c.732-.047 1.467-.022 2.195.075 1.289.216 2.482.883 3.783 1.002.5.046 1.004.01 1.505.028 1.783.066 3.535.825 5.301.572-.604-.372-1.307-.552-2.016-.519-.294.04-.591.042-.886.008-.302-.04-.546-.265-.613-.562-.054-.48 3.89-.049 4.274.022 1.601.295 3.196.626 4.783.992 3.174.733 6.31 1.607 9.41 2.622-.614-1.173-1.315-2.298-2.097-3.366-.245-.335-1.3-.586-1.689-.748-.568-.236-1.142-.46-1.72-.67-1.158-.42-2.333-.786-3.525-1.1-2.276-.596-4.83-.589-6.972-1.572-.311-.143-.611-.31-.925-.45-.886-.392-1.86-.546-2.823-.448-.222.04-.448.043-.67.013-.228-.035-.413-.2-.475-.422-.065-.354.325-.62.675-.71.425-.089.86-.125 1.295-.108l2.732-.002c.248-.01.496.01.74.057.715.171 1.391.836 2.075.562.057-.55-.531-.93-1.054-1.107-1.535-.353-3.112-.49-4.685-.407-1.508-.084-3.032.025-4.553.093-1.144.052-2.237.293-3.38.353-1.152-.007-2.303.085-3.44.276-.631.145-1.385.352-1.857-.092-.138-.386.32-.707.708-.836 1.003-.333 2.063-.457 3.115-.364.623.056 1.349.153 1.785-.295.076-.1.167-.187.27-.258.11-.047.228-.067.346-.059l2.702-.018c.038-.167.018-.342-.055-.497l-4.64.11c-.95-.015-1.9.083-2.827.29-2.012.537-4.017.758-6.07 1.173-2.28 1.344-4.35 3.02-6.137 4.973.326-.356 1.756-.471 2.236-.587.788-.192 1.58-.366 2.375-.524 1.585-.312 3.185-.554 4.793-.71 1.569-.19 3.151-.248 4.73-.174.761.036 1.52.112 2.274.228zM62.156 24.24c-2.221.58-4.956 1.45-6.516-.234-.43-.645-.892-1.266-1.387-1.861-1.328-1.157-3.35-.357-5.01.23-1.755.59-3.575.966-5.42 1.12-1.674.023-3.343.184-4.99.482-1.689.459-3.798.173-5.54.145-1.937-.03-3.872-.107-5.805-.228-.173.004-.344-.038-.496-.122-.153-.092-.208-.288-.125-.446.077-.085.181-.14.294-.157 3.498-.908 7.112-1.292 10.722-1.14.07-.075.105-.177.096-.28-.01-.102-.06-.196-.143-.26-.171-.117-.373-.181-.581-.185-2.329-.259-4.664-.44-7.006-.544-1.06-.091-2.125-.098-3.185-.02-.389.047-2.912-.018-3.06.277-1.42 2.82-2.321 5.872-2.662 9.01 1.556-.44 3.173-.62 4.787-.535 1.916.114 3.793.65 5.712.69 6.127.132 12.13-4.724 17.912-2.689 1.031.364 1.98.934 3.01 1.302 4.105 1.468 8.543-.46 12.838-1.21 2.693-.445 5.436-.497 8.144-.155-.22-1.046-.505-2.077-.85-3.089-3.516-.925-7.207-.96-10.739-.1zM58.883 44.479c-1.893-.167-3.924-.306-5.568.647-.815.471-1.471 1.18-2.278 1.666-.968.968-2.93.76-4.146.831-1.424.064-2.85.052-4.273-.036-.8.016-1.594-.133-2.334-.437-.158-.399.325-.744.734-.875 2.79-.896 5.931-.18 8.669-1.224.205-.06.388-.178.527-.339.138-.171.123-.42-.035-.573-1.468.425-2.987.652-4.516.675-1.38-.074-2.753-.264-4.102-.568-1.725-.26-3.461-.43-5.204-.508-1.741-.099-3.488-.086-5.228.038-1.575.11-3.155.113-4.73.01-.42-.066-.851.006-1.227.205-.162.11-.293.336-.177.493.075.078.175.127.283.137 2.876.596 5.868.177 8.786.518-.513.439-1.19.637-1.858.543l-2.22-.006c-.142 0-.332.043-.334.185-.002.103.106.17.2.213 2.247.877 4.69 1.127 7.069.723.686.413-.513 1.197-1.303 1.069L24.66 46.09c.941 1.648 2.055 3.19 3.324 4.601 9.573.891 19.221.508 28.693-1.138 2.071-.361 4.134-.783 6.224-1.01 2.18-.235 4.416-.266 6.626-.382.586-.835 1.123-1.704 1.609-2.602l-12.253-1.08zM62.15 34.492c-1 .48-1.948 1.064-2.828 1.742-5.19 3.416-11.923 2.972-18.111 2.4 2.994-1.901 6.514-2.805 10.054-2.581 1.142.173 2.303.172 3.444 0 1.17-.205 2.067-1.15 2.213-2.327L42.94 35.175c-1.501.093-2.985.373-4.417.833-2.165.796-4.089 2.432-6.394 2.504-1.696.053-3.279-.76-4.849-1.405-1.92-.785-3.927-1.337-5.978-1.644.211 2.253.71 4.47 1.487 6.596 2.567.205 5.15.15 7.706-.162 1.79-.46 3.61-.785 5.448-.97 1.404.05 2.8.239 4.167.563 5.041.922 10.216.826 15.22-.283 1.194-.243 2.36-.607 3.481-1.086.96-.43 1.86-.989 2.837-1.375 3.768-1.488 7.833-.22 11.91.524.146-.598.272-1.204.377-1.817-.45-.12-.895-.26-1.335-.42-3.46-1.268-7.015-3.878-10.45-2.54z"/>
                                        <path fill="#F6F3C8" d="M95.016 14.096c-1.458-3.645-12.434-2.94-27.464 1.138.48.537.936 1.093 1.37 1.668 10.317-2.394 17.57-2.522 18.648.172 1.81 4.525-14.485 15.296-36.395 24.06-21.91 8.762-41.14 12.198-42.95 7.673-1.067-2.669 4.166-7.511 13.133-12.833-.082-.713-.137-1.435-.16-2.164C7.651 41.17-.67 48.163.78 51.785c2.15 5.374 24.987 1.294 51.01-9.114C77.812 32.263 97.165 19.47 95.016 14.096z"/>
                                    </g>
                                    <g fill-rule="nonzero" opacity=".4">
                                        <path fill="#968392" d="M30.448 16.675h.459c.67 0 1.214.544 1.214 1.214v7.919h-2.887v-7.919c0-.67.543-1.214 1.214-1.214zM26.295 13.231c-.231 0-.423-.18-.436-.412l-.537-9.41c-.01-.165.074-.321.217-.404.143-.082.32-.077.459.013l7.88 5.171c.131.086.206.235.197.39-.009.156-.1.296-.24.366-.139.07-.305.06-.436-.025l-7.155-4.695.488 8.544c.014.241-.17.448-.411.461l-.026.001z" transform="translate(883 239)"/>
                                        <path fill="#A7A9AA" d="M20.9 14.371c2.922 4.072 8.455 5.265 12.795 2.76 4.34-2.506 6.073-7.894 4.008-12.46L20.9 14.37zM26.66 4.945c-.404.233-.92.095-1.154-.31l-1.652-2.86c-.111-.194-.142-.424-.084-.64.058-.217.2-.401.393-.513.194-.112.425-.143.641-.085.216.058.4.2.513.394l1.651 2.86c.112.195.143.425.085.641-.058.217-.2.401-.394.513z" transform="translate(883 239)"/>
                                        <path fill="#E9E8DB" d="M47.634 5.043V34.03h-2.098V5.043c0-.58.47-1.05 1.049-1.05.58 0 1.049.47 1.049 1.05z" transform="translate(883 239)"/>
                                        <path fill="#A7A9AA" d="M51.541 34.031H.233c5.248-7.728 13.703-12.676 23.011-13.467l-.014-.002.33-.026c.41-.031.824-.054 1.239-.068l.288-.009.234-.005.231-.004.336-.001c1.118 0 2.235.06 3.346.18.977.103 1.94.252 2.888.446 4.925 1.007 9.53 3.201 13.415 6.391.727.597 1.427 1.225 2.098 1.885 1.452 1.429 2.76 2.997 3.907 4.68z" transform="translate(883 239)"/>
                                        <path fill="#E9E8DB" d="M51.541 34.031h-8.944C40.13 29.606 36.51 25.932 32.121 23.4c-.93-.523-1.895-.982-2.888-1.374-1.92-.76-3.935-1.253-5.99-1.462l-.014-.002.33-.026c.41-.03.824-.052 1.239-.068l.288-.009.234-.005.231-.004.336-.001c1.118 0 2.235.06 3.346.18.977.103 1.94.252 2.888.446 4.925 1.007 9.53 3.201 13.415 6.391.727.597 1.427 1.225 2.098 1.885 1.452 1.429 2.76 2.997 3.907 4.68z" transform="translate(883 239)"/>
                                    </g>
                                    <g fill-rule="nonzero" opacity=".2" transform="translate(381 255)">
                                        <circle cx="14.784" cy="14.416" r="14.337" fill="#D99D83"/>
                                        <circle cx="9.137" cy="7.56" r="1.738" fill="#BD806A"/>
                                        <circle cx="10.458" cy="16.57" r="1.321" fill="#BD806A"/>
                                        <path fill="#BD806A" d="M22.808 9.215c0 .41-.246.778-.624.935-.378.156-.814.07-1.103-.22-.29-.289-.376-.724-.22-1.102.157-.378.526-.625.935-.625.56 0 1.012.453 1.012 1.012z"/>
                                        <circle cx="19.301" cy="21.805" r="1.483" fill="#BD806A"/>
                                        <path fill="#BD806A" d="M7.978 22.384c0 .32-.26.578-.58.578-.319 0-.578-.259-.578-.578 0-.32.26-.579.579-.579.153 0 .3.06.41.17.108.108.169.255.169.409zM6.359 12.012c0 .234-.141.445-.357.535-.217.09-.466.04-.631-.126-.166-.165-.215-.414-.125-.63.09-.217.3-.358.534-.358.154 0 .3.061.41.17.108.108.169.256.169.409z"/>
                                    </g>
                                    <g fill-rule="nonzero" opacity=".6" transform="translate(1109 344)">
                                        <path fill="#2A3C90" d="M5.509 11.75H17.96c.317 0 .574.258.574.575v3.17c0 .151-.06.297-.168.405-.108.108-.254.168-.406.168H5.51c-.317 0-.574-.257-.574-.574v-3.17c0-.152.06-.298.168-.405.108-.108.254-.168.406-.168z"/>
                                        <path fill="#D6C9CA" d="M17.111 6.16v11.468H6.36V6.16c0-.178.008-.354.025-.528C6.656 2.88 8.97.783 11.734.783c2.766 0 5.08 2.097 5.352 4.848.017.174.025.35.025.528z"/>
                                        <path fill="#A8AAAD" d="M6.359 6.159H17.112000000000002V17.628H6.359z"/>
                                        <path fill="#D6C9CA" d="M11.735 17.921c-.067 0-.122-.054-.122-.122V6.002c0-.067.055-.122.122-.122s.122.055.122.122V17.8c0 .033-.013.064-.036.087-.023.022-.054.035-.086.035zM1.328 25.042c-.042 0-.08-.021-.103-.057-.022-.036-.025-.08-.006-.118l3.221-6.619c.02-.042.063-.068.11-.068h2.098c.068 0 .122.054.122.122 0 .067-.054.122-.122.122H4.626l-3.188 6.55c-.02.042-.063.068-.11.068z"/>
                                        <path fill="#BE202E" d="M17.613 6.002c0 .205-.166.371-.371.371H6.228c-.205 0-.371-.166-.371-.37 0-.206.166-.372.371-.372h11.014c.205 0 .37.166.37.371z"/>
                                        <path fill="#D6C9CA" d="M17.132 8.409H6.359c-.068 0-.122-.055-.122-.122 0-.068.054-.122.122-.122h10.773c.067 0 .122.054.122.122 0 .067-.055.122-.122.122zM14.55 16.396H8.92c-.068 0-.123-.055-.123-.122V12.62c0-1.623 1.316-2.938 2.938-2.938s2.937 1.315 2.937 2.938v3.654c0 .032-.013.063-.035.086-.023.023-.054.036-.087.036zm-5.509-.244h5.387V12.62c.002-.964-.51-1.855-1.345-2.337-.834-.482-1.862-.482-2.696 0-.834.482-1.347 1.373-1.346 2.337v3.532z"/>
                                        <path fill="#D6C9CA" d="M13.891 15.615H9.578V12.62c0-1.191.966-2.157 2.157-2.157 1.19 0 2.156.966 2.156 2.157v2.995zM22.076 25.042c-.047 0-.09-.026-.11-.068l-3.188-6.55h-2.022c-.068 0-.122-.055-.122-.122 0-.068.054-.122.122-.122h2.098c.047 0 .09.026.11.068l3.221 6.619c.019.038.016.082-.006.118-.022.036-.061.057-.103.057z"/>
                                        <path fill="#D6C9CA" d="M22.808 25.042h-1.464c-.068 0-.122-.054-.122-.122 0-.067.054-.122.122-.122h1.464c.067 0 .122.055.122.122 0 .068-.055.122-.122.122zM12.413 27.043H10.95c-.067 0-.122-.054-.122-.122 0-.067.055-.122.122-.122h1.464c.068 0 .122.055.122.122 0 .068-.054.122-.122.122z"/>
                                        <path fill="#18154A" d="M17.613 18.302c0 .371-.302.672-.673.673H6.423c-.371-.002-.67-.303-.67-.674 0-.37.299-.671.67-.673H16.94c.371 0 .673.302.673.674z"/>
                                        <path fill="#BE2026" d="M17.613 18.424H5.75c-.068 0-.122-.055-.122-.122 0-.068.054-.122.122-.122h11.863c.067 0 .122.054.122.122 0 .067-.055.122-.122.122z"/>
                                        <path fill="#09181E" d="M13.205 12.687c0 .359-.132.706-.372.973-.376.42-.96.586-1.501.426-.54-.16-.941-.616-1.028-1.173-.088-.556.153-1.114.619-1.432.446-.305 1.025-.337 1.504-.085.478.253.777.75.778 1.29z"/>
                                        <path fill="#013844" d="M13.205 12.687c0 .359-.132.706-.372.973-.137-1.304-1.91-2.179-1.91-2.179.446-.305 1.025-.337 1.504-.085.478.253.777.75.778 1.29z"/>
                                        <path fill="#18154A" d="M14.336 9.206H16.683V10.206H14.336z"/>
                                        <path fill="#18154A" d="M14.336 9.659H16.683V10.659H14.336z"/>
                                        <path fill="#D6C9CA" d="M2.06 25.042H.597c-.067 0-.122-.054-.122-.122 0-.067.055-.122.122-.122h1.465c.067 0 .122.055.122.122 0 .068-.055.122-.122.122z"/>
                                        <path fill="#18154A" d="M14.336 10.111H16.683V11.111H14.336z"/>
                                        <circle cx="7.637" cy="9.497" r="1" fill="#BE202E"/>
                                        <circle cx="7.637" cy="10.403" r="1" fill="#09181E"/>
                                        <path fill="#D6C9CA" d="M11.681 27.043c-.067 0-.122-.054-.122-.122v-8.62c0-.067.055-.121.122-.121.068 0 .122.054.122.122v8.62c0 .067-.054.121-.122.121z"/>
                                        <path fill="#E6E7E7" d="M18.535 12.325v3.17c0 .316-.257.573-.574.573h-.85v1.56h-.171c.37.002.67.303.67.674 0 .37-.3.671-.67.673h-1.383v-10.8c.002-.603-.043-1.205-.134-1.802-.011-.072-.023-.143-.036-.214-.032-.181-.068-.357-.108-.528-.373-2.075-1.68-3.863-3.544-4.848 2.765 0 5.079 2.097 5.35 4.848h.157c.205 0 .37.166.37.371s-.165.371-.37.371h-.13v5.378h.849c.317 0 .574.256.574.574z" style="mix-blend-mode:multiply"/>
                                        <path fill="#A8AAAD" d="M7.87 4.454c-.042 0-.08-.02-.102-.055-.023-.034-.027-.078-.01-.115.325-.743.835-1.39 1.48-1.88.277-.217.581-.398.905-.537.063-.024.133.007.158.07.024.063-.007.133-.07.158-1.004.46-1.805 1.274-2.25 2.286-.019.044-.063.073-.112.073z"/>
                                    </g>
                                    <g opacity=".4" transform="translate(576 124)">
                                        <g>
                                            <circle cx="30.546" cy="29.768" r="29.747" fill="url(#j55s30d7zl)" fill-rule="nonzero"/>
                                        </g>
                                        <circle cx="29.968" cy="29.507" r="19.254" fill="#7ED0DE" fill-rule="nonzero" transform="rotate(-3.372 29.968 29.507)"/>
                                        <g transform="translate(9 9)">
                                            <mask id="etslydjnun" fill="#fff">
                                                <use xlink:href="#kw5p0ckkhm"/>
                                            </mask>
                                            <g fill="#48B549" fill-rule="nonzero" mask="url(#etslydjnun)">
                                                <g>
                                                    <path d="M33.08 29.533c-.045-1.342 1.033-.85 1.746-1.782.626-.801.512-2.264.364-3.225-.07-.684-.746-1.02-.925-1.683-.204-.567.268-.797.267-1.36-.018-.311-.399-.415-.356-.76.043-.347.371-.616.544-.876.39-.416.682-.913.855-1.456.095-.536-.087-.995.102-1.506.203-.559.627-.802.592-1.425-.036-.623-.539-1.22-.695-1.774-.155-.594-.377-1.169-.66-1.713-.523.983-.223 2.138-1.313 2.763-.545.313-1.155.3-1.687.565-.46.328-.851.743-1.15 1.222-.908 1.084-2.042.93-3.18 1.541-.563.41-1.072.891-1.513 1.43-.428.447-1.134.41-1.501.82-.588.66.172 2.195.7 2.697.365.26.608.659.673 1.103.176.534.415 1.045.712 1.522.195.411.17 1.07.473 1.459.339.45.784.315 1.244.695.507.393.637 1.042 1.01 1.553.326.365.708.676 1.131.92.588-.659 1.086-.421 1.628.033.659.587.616.934.72 1.678-.025.096-.172.26-.15.368.022.109.355.2.33.294.108.541.186.256-.16.775-.16.213-.662.179-.527.624.122.304.458.463.77.363.059.535-.182 1.06-.625 1.364-.242.14-.554.157-.796.296-.303.173-.333.472-.705.524-.866.175-.806-.423-.975-.929-.204-.567-.525-.705-.79-1.237-.466 1.152-.79 1.217-1.842 1.7-.99.446-1.623-.237-2.632-.101-1.008.135-1.752.803-2.808.363-.594-.263-.395-.619-1.204-.276-.398.148-1.03.59-.28.845-.177.463-.84.642-.77 1.325.075.48.595.826 1.01.99.052-.19.169-.619.385-.662.459-.183.234.268.58.31.55.047 1.043-.637 1.589-.387 1.247.492-1.24 1.556-1.803 1.557-.563 0-2.862-.572-2.597.522.14.805 2.69.832 3.309 1 1.454.293 2.84 1.027 4.351.925 2.014-.229 3.954-.888 5.69-1.933.848-.486 1.86-.825 2.708-1.311.601-.476 1.044-1.122 1.27-1.855.376-.818.16-.775-.283-1.406-.172-.221-.331-.452-.477-.692-.152-.195-.472-.333-.563-.562-.14-.242-.014-.515-.105-.745-.031-.264-.278-.484-.37-.713-.225-.675.185-1.433-.413-2.056-.399-.415-.875-.544-.837-1.25l-.061-.47zM9.4 35.325c.356.762 1.956-.236 1.96-1.002.003-.767-.36-.558-.76-.973-.116-.134-.073-.48-.19-.615-.152-.194-.585-.107-.689-.289-.174-.303.141-1.087.422-1.368.55-.516.818-.187 1.455-.27.683-.07 1.12-.361 1.015-1.106-.104-.744-.563-.562-1.048-.847-.32-.138-.335-.653-.85-.64-.425.013-.785.32-.864.738-1.022.183-.599-.623-.781-1.081-.226-.675-.537-.095-1.239-.336.143-.524-.113-.9-.589-.467-.212-.16-.204-.567-.273-.688-.213-.16-.667-.181-.784-.315-.2-.208-.465-1.302-.102-1.51.619-.395 1.036.894 1.391 1.093.308.185.35-.16.671-.023.256.201.485.435.68.696.358.471.853.82 1.417.998.5.018 1 .068 1.494.15.431.161.899.2 1.35.11.233-.085.444-.22.62-.394.06-.035.03-.299.09-.334.134-.117.264-.03.385-.1.545-.312 1.047-.278 1.431-.94.225-.451.177-1.027.449-1.465.85-1.252 1.738-1.318.62-2.849-.421-.523-.781-1.08-1.215-1.556-.537-.658-.659-.588-1.46-.652-.507-.047-.988-.249-1.377-.578-.59-.467-.563-.562-.417-1.29.086-.504.22-.998.4-1.476.299-.533.563-.564.54-1.235.025-.658-.382-1.229.31-1.706.558-.36 1.043-.075 1.427-.738.644-1.052.448-2.026 1.351-2.906.722-.776 1.889-2.249.33-2.723-1.416-.435-3.67.334-4.986.846-3.028 1.173-5.771 2.423-7.27 5.494C2.654 16.493 1.334 20.16.374 23.926c-.732 2.405-.137 5.017 1.563 6.868C3.189 32.208 4.49 34.197 6.11 35.2c.97.57 2.402-.371 3.083.325l.207-.2zM17.948 40.764c-.728-.71.224-1.013.509-1.499.258-.886.301-1.82.126-2.727-.613.658-1.433 1.086-2.323 1.21-.731.058-1.982.333-1.955 1.363.024 1.796 2.375 2.178 3.591 1.843l.052-.19zM14.91 37.634c.32-.195.685-.306 1.06-.322.502.034.753-.41.41-.707-.322-.221-.68-.387-1.057-.491-.128.244-.276.477-.443.696l.03.824z" transform="translate(0 -3)"/>
                                                    <path d="M12.104 34.218c-.094-.114-.126-.266-.088-.408.039-.142.144-.256.282-.307.532-.264.428-.446.168-.619s-.645-.073-.667-.18c-.022-.109.847-1.05-.404-1.338-1.252-.288-.76.917-.622 1.16.249.621.586 1.203 1.001 1.727.352.227.33-.035.33-.035zM29.5 33.386c.09.155.21.292.351.402.107.046.588.16.588.16l.491-.43c.074-.041.137-.1.183-.172.042-.09-.296-.353-.296-.353l-.571-.155-.556-.15-.572-.156c-.177.01-.352.043-.52.097l-.091.334.346.23.647.193zM28.406 31.827c.243.015.487.002.727-.041.133-.05.082-.302.082-.302s-.305-.321-.354-.266c-.049.055-.39-.011-.378-.115.011-.104-.286-.39-.286-.39s-.47.095-.449.271c.02.176-.139.576-.073.645.067.07.31.306.31.306l.42-.108zM32.91 7.899c1.938 1.084-.393 2.683-1.876 2.392-2.135-.356-3.064-2.282-5.095-2.61-2.031-.328-4.1-.108-5.604-1.966-.51-.585-2.006-2.888-1.78-3.72.422-1.559 2.737-1.042 3.88-.732 3.223.874 9.479 2.906 10.296 6.476" transform="translate(0 -3)"/>
                                                </g>
                                            </g>
                                        </g>
                                        <path fill="#144D6E" fill-rule="nonzero" d="M1.386 14.465c-2.785 10.263 3.278 20.84 13.54 23.625l.339.087c-.4-.291-12.684-9.38-9.195-22.243C9.618 2.859 25.01.924 25.01.924 14.747-1.86 4.17 4.204 1.386 14.466z" opacity=".2" transform="translate(10 10)"/>
                                    </g>
                                    <path d="M0.773 0.947H1624.668V648.841H0.773z"/>
                                </g>
                            </g>
                        </g>
                    </g>
                </g>
            </g>
        </g>
    </g>
</svg>
