<svg xmlns="http://www.w3.org/2000/svg" xmlns:xlink="http://www.w3.org/1999/xlink" width="2732" height="1092" viewBox="0 0 1366 546">
    <defs>
        <ellipse id="vifd3pxrwd" cx="77.314" cy="77.147" rx="76.415" ry="76.549"/>
        <ellipse id="ei2ab6wr0e" cx="77.314" cy="77.147" rx="76.415" ry="76.549"/>
        <ellipse id="3oniu0a6ag" cx="25.569" cy="25.596" rx="25.022" ry="25.066"/>
        <ellipse id="3274fibzwi" cx="18.083" cy="17.362" rx="16.196" ry="16.225"/>
        <radialGradient id="uxbe8lp19f" cx="50%" cy="50%" r="50%" fx="50%" fy="50%" gradientTransform="matrix(1 0 0 .99825 0 0)">
            <stop offset="0%" stop-color="#FFF"/>
            <stop offset="100%" stop-color="#FFF"/>
        </radialGradient>
        <radialGradient id="sz7ep1ubph" cx="50.003%" cy="49.985%" r="46.431%" fx="50.003%" fy="49.985%" gradientTransform="scale(-1 -.99825) rotate(-38.245 -1.443 1.442)">
            <stop offset="0%" stop-color="#F5BA64"/>
            <stop offset="43.244%" stop-color="#987544"/>
            <stop offset="100%" stop-color="#191719"/>
        </radialGradient>
        <linearGradient id="ho1mg5eroc" x1="50%" x2="50%" y1="68.429%" y2="3.47%">
            <stop offset=".303%" stop-color="#5F1000"/>
            <stop offset="11.639%" stop-color="#491005"/>
            <stop offset="26.38%" stop-color="#351009"/>
            <stop offset="43%" stop-color="#26100D"/>
            <stop offset="62.85%" stop-color="#1E100E"/>
            <stop offset="94.421%" stop-color="#1B100F"/>
        </linearGradient>
        <path id="3ee3yphrfa" d="M0 0H1366V546H0z"/>
    </defs>
    <g fill="none" fill-rule="evenodd">
        <g>
            <g transform="translate(0 -63) translate(0 63)">
                <mask id="yxr18u9agb" fill="#fff">
                    <use xlink:href="#3ee3yphrfa"/>
                </mask>
                <g mask="url(#yxr18u9agb)">
                    <g>
                        <path fill="url(#ho1mg5eroc)" fill-rule="nonzero" d="M387 0H1753V545.956H387z" transform="translate(-387)"/>
                        <g opacity=".8">
                            <g fill-rule="nonzero">
                                <path fill="#FFFCDF" d="M86.287 96.406c-1.702-2.265-4.825-2.9-7.274-1.478.57-2.104-.13-4.349-1.795-5.754-1.665-1.405-3.992-1.716-5.966-.796-1.974.92-3.236 2.902-3.236 5.083l.002.083c-.902-.135-1.82-.105-2.711.087-.813-2.065-2.49-3.668-4.588-4.384-2.097-.716-4.403-.473-6.305.665-.338-1.755-1.489-3.244-3.1-4.01.848-2.805-.287-5.832-2.77-7.385.418-1.458-.13-3.022-1.365-3.9-1.236-.877-2.89-.877-4.126 0-1.235.878-1.783 2.442-1.365 3.9-2.64 1.65-3.734 4.945-2.609 7.85-1.288.29-2.395 1.106-3.054 2.252-1.871-.258-3.745.451-4.98 1.883-1.29-2.439-4.011-3.756-6.72-3.253-2.71.503-4.78 2.71-5.111 5.45-1.337-.806-3.02-.758-4.31.12-1.539-3.167-5.057-4.85-8.484-4.06-3.427.792-5.855 3.848-5.855 7.371 0 .093.004.184.007.276h85.715z" opacity=".2" transform="translate(-387) translate(584 24.042) translate(304 233.409)"/>
                                <g opacity=".5">
                                    <path fill="#CBCCCC" d="M34.714 56.283V10.716c-.107-3.674-1.827-7.114-4.7-9.4-.744-.606-1.81-.606-2.555 0-2.873 2.286-4.593 5.726-4.7 9.4v45.567h11.955zM21.413 66.717V27.242c-.076-2.318-1.31-4.444-3.285-5.656-1.974 1.212-3.208 3.338-3.284 5.656v39.475l-1.595 1.721v3.566h9.76v-3.566l-1.596-1.721zM36.06 66.717V27.242c.076-2.318 1.31-4.444 3.285-5.656 1.974 1.212 3.208 3.338 3.284 5.656v39.475l1.595 1.721v3.566h-9.76v-3.566l1.596-1.721z" transform="translate(-387) translate(584 24.042) translate(304 233.409) translate(15)"/>
                                    <path fill="#B3B4B5" d="M44.224 72.004v-3.566l-1.595-1.721V27.242c-.076-2.318-1.31-4.444-3.284-5.656v50.418h4.88zM13.249 72.004v-3.566l1.595-1.721V27.242c.076-2.318 1.31-4.444 3.284-5.656v50.418h-4.88z" transform="translate(-387) translate(584 24.042) translate(304 233.409) translate(15)"/>
                                    <path fill="#A7A9AA" d="M0.44 59.853L21.99 61.892 35.483 61.892 57.033 59.853z" transform="translate(-387) translate(584 24.042) translate(304 233.409) translate(15)"/>
                                    <path fill="#E9E8DB" d="M33.277 60.156v-42.8c-.08-2.79-1.387-5.404-3.57-7.14-.566-.46-1.375-.46-1.94 0-2.184 1.736-3.49 4.35-3.57 7.14v42.8l-2.207 1.736v4.93h13.493v-4.93l-2.206-1.736z" transform="translate(-387) translate(584 24.042) translate(304 233.409) translate(15)"/>
                                    <path fill="#A7A9AA" d="M31.352 24.963v-7.546c-.061-2.12-1.01-4.115-2.615-5.498-1.594 1.366-2.542 3.338-2.615 5.438v7.606h5.23z" transform="translate(-387) translate(584 24.042) translate(304 233.409) translate(15)"/>
                                    <path fill="#E6E6E5" d="M24.196 41.664L2.42 53.196C1.202 53.84.44 55.106.44 56.485v3.368h23.756V41.664zM33.277 41.664l21.777 11.532c1.217.644 1.979 1.91 1.979 3.289v3.368H33.277V41.664z" transform="translate(-387) translate(584 24.042) translate(304 233.409) translate(15)"/>
                                    <path fill="#B3B4B5" d="M24.503 28.572H32.969V29.572H24.503zM24.503 36.215H32.969V37.215H24.503zM24.503 56.283H32.969V57.283H24.503zM22.55 64.554H34.923V65.554H22.55z" transform="translate(-387) translate(584 24.042) translate(304 233.409) translate(15)"/>
                                    <path fill="#CBCCCC" d="M9.18 50.902v5.722c0 .357.142.7.394.952s.594.394.95.394h3.683c1.464 0 2.867-.582 3.902-1.619 1.035-1.036 1.616-2.442 1.616-3.908v-7.125L9.18 50.902zM48.293 50.902v5.722c0 .743-.602 1.346-1.345 1.346h-3.682c-1.464 0-2.867-.582-3.902-1.619-1.035-1.036-1.616-2.442-1.616-3.908v-7.125l10.545 5.584z" transform="translate(-387) translate(584 24.042) translate(304 233.409) translate(15)"/>
                                    <path fill="#A7A9AA" d="M14.844 31.474H21.413V36.214H14.844z" transform="translate(-387) translate(584 24.042) translate(304 233.409) translate(15)"/>
                                    <path fill="#949698" d="M14.844 31.474H18.136V36.214H14.844z" transform="translate(-387) translate(584 24.042) translate(304 233.409) translate(15)"/>
                                    <path fill="#A7A9AA" d="M36.06 31.474H42.629000000000005V36.214H36.06z" transform="translate(-387) translate(584 24.042) translate(304 233.409) translate(15) rotate(180 39.345 33.845)"/>
                                    <path fill="#949698" d="M39.337 31.474H42.629000000000005V36.214H39.337z" transform="translate(-387) translate(584 24.042) translate(304 233.409) translate(15) rotate(180 40.983 33.845)"/>
                                </g>
                            </g>
                            <g opacity=".5">
                                <path fill="#FFF" d="M675.345 101.558c1.113-.005 2.12.663 2.55 1.692.43 1.029.2 2.216-.585 3.007-.784.792-1.967 1.033-2.997.61-1.03-.422-1.706-1.425-1.71-2.54 0-1.52 1.224-2.757 2.742-2.77zM270.594 11.173c.986-.004 1.9.52 2.394 1.375.494.855.494 1.91 0 2.764-.495.855-1.408 1.38-2.394 1.376-1.516-.007-2.741-1.24-2.741-2.758s1.225-2.75 2.74-2.757zM70.08 118.304c1.52-.006 2.757 1.224 2.763 2.747.007 1.523-1.22 2.762-2.741 2.768-1.52.006-2.758-1.223-2.764-2.746-.004-.732.283-1.435.797-1.954.515-.52 1.214-.813 1.945-.815zM306.162 181.595c1.114-.005 2.12.663 2.55 1.692.43 1.028.2 2.215-.584 3.007-.784.792-1.967 1.033-2.998.61-1.03-.422-1.705-1.425-1.71-2.54 0-1.521 1.225-2.757 2.742-2.77zM816.302 50.56c1.113-.005 2.12.663 2.55 1.692.43 1.029.2 2.216-.585 3.007-.784.792-1.967 1.033-2.997.61-1.03-.422-1.705-1.425-1.71-2.54-.005-.732.282-1.436.796-1.956.515-.52 1.215-.812 1.946-.813zM976.718 186.048c1.52.007 2.747 1.246 2.741 2.77-.006 1.522-1.243 2.752-2.764 2.746-1.52-.007-2.747-1.246-2.741-2.77 0-.732.291-1.434.81-1.95.52-.515 1.223-.802 1.954-.796zM431.389 220.256c.56-.01 1.071.322 1.292.838.221.517.109 1.116-.285 1.517-.393.4-.99.523-1.509.31-.519-.213-.858-.72-.858-1.281-.004-.758.603-1.376 1.36-1.384zM504.14 123.976c.753.006 1.36.619 1.36 1.373s-.607 1.367-1.36 1.373c-.492.004-.949-.257-1.196-.683-.248-.427-.248-.954 0-1.38.247-.427.704-.688 1.197-.683zM396.417 64.895c.363.002.711.15.966.41s.397.61.393.974c.003.362-.14.71-.395.966-.256.256-.603.399-.964.396-.364.003-.714-.138-.973-.394-.26-.255-.407-.604-.41-.968.005-.763.621-1.38 1.383-1.384zM333.494 149.184c.364-.003.714.139.973.394.26.256.406.604.409.968-.004.763-.62 1.38-1.382 1.385-.364-.003-.711-.15-.966-.41s-.397-.61-.394-.975c-.002-.362.14-.71.396-.965.256-.256.603-.399.964-.397zM185.672 40.468c.559 0 1.063.337 1.276.854.214.517.096 1.113-.3 1.509-.394.396-.989.514-1.505.3-.517-.214-.853-.72-.853-1.28.004-.762.62-1.38 1.382-1.383zM60.651 7.4c.364-.004.714.138.973.393.26.256.406.604.41.968 0 .765-.62 1.385-1.383 1.385s-1.382-.62-1.382-1.385c.003-.364.15-.712.41-.968.259-.255.609-.397.972-.394zM148.716 142.084c.56 0 1.063.337 1.277.855.214.517.096 1.112-.3 1.508-.395.396-.99.515-1.506.3-.516-.214-.853-.719-.853-1.279.004-.763.62-1.38 1.382-1.384zM41.772 204.313c.762.002 1.378.621 1.378 1.384 0 .764-.616 1.383-1.378 1.385-.754-.013-1.36-.629-1.36-1.385 0-.755.606-1.372 1.36-1.384zM104.494 254.53c.364.002.712.15.967.41s.396.61.393.974c.002.362-.14.71-.396.966-.255.256-.602.398-.964.396-.363.003-.713-.139-.973-.394-.259-.256-.406-.604-.409-.968.004-.763.62-1.38 1.382-1.384zM430.029 12.713c.752.007 1.36.62 1.36 1.374 0 .753-.608 1.366-1.36 1.373-.493.004-.95-.257-1.197-.683-.248-.427-.248-.954 0-1.38.247-.427.704-.688 1.197-.684zM618.73 223.024c.761.004 1.378.622 1.382 1.385-.003.364-.15.712-.41.968-.259.255-.609.397-.972.394-.362.002-.709-.14-.964-.397-.256-.256-.398-.603-.396-.965-.003-.365.138-.715.393-.975.256-.26.603-.407.967-.41zM492.93 285.253c.753.007 1.36.622 1.359 1.377-.002.756-.613 1.368-1.367 1.37-.754.002-1.369-.607-1.375-1.362-.002-.368.143-.721.403-.981s.612-.406.98-.404zM759.486 256.115c.364-.003.714.138.973.394.26.255.407.604.41.968 0 .494-.264.951-.692 1.199-.427.247-.954.247-1.381 0-.428-.248-.691-.705-.691-1.2.002-.363.15-.712.409-.967.259-.256.609-.397.972-.394zM844.409 167.494c.754.006 1.361.621 1.36 1.377-.003.755-.614 1.367-1.368 1.37-.754.001-1.368-.608-1.374-1.363-.002-.368.143-.721.402-.981.26-.26.612-.405.98-.403zM1074.01 258.861c.56 0 1.063.338 1.277.855.214.517.096 1.113-.3 1.509-.395.395-.99.514-1.506.3-.516-.215-.853-.72-.853-1.28.004-.762.62-1.38 1.382-1.384zM1084.085 171.044c.222-.005.437.08.597.235.159.155.25.368.25.591.005.303-.153.584-.414.737-.26.153-.583.153-.844 0-.26-.153-.419-.434-.414-.737 0-.22.086-.43.241-.585.155-.155.365-.242.584-.241zM1092.912 48.818c.34-.004.649.198.781.512s.061.677-.179.918c-.24.24-.603.312-.916.18-.314-.133-.516-.443-.511-.783 0-.22.086-.43.24-.585.156-.155.366-.242.585-.242zM1034.737 7.868c.452.012.81.387.802.841-.008.453-.379.816-.832.812-.452-.004-.817-.373-.817-.827-.001-.223.089-.437.248-.593.16-.155.376-.24.599-.233zM856.222 73.246c.333 0 .634.2.762.51.127.308.057.664-.179.9s-.59.307-.899.179c-.308-.128-.509-.43-.509-.763.002-.456.37-.825.825-.826zM738.29 15.728c.458.006.826.381.824.84-.002.46-.373.832-.832.834-.459.002-.834-.366-.84-.826 0-.225.088-.442.247-.601.16-.16.375-.249.6-.247zM712.345 102.384c.457.006.824.38.824.837 0 .458-.367.831-.824.838-.302.004-.582-.155-.734-.416-.152-.26-.152-.583 0-.844.152-.26.432-.42.734-.415zM766.597 183.503c.46.01.827.387.824.849-.006.458-.378.826-.835.826-.458 0-.83-.368-.836-.826 0-.226.089-.441.248-.6.159-.16.374-.249.599-.249zM702.894 258.348c.34-.005.65.198.781.511.133.314.062.677-.179.918-.24.241-.603.312-.916.18-.313-.133-.515-.442-.51-.783.009-.453.372-.817.824-.826zM782.266 339.422c.301-.004.582.155.733.415.152.261.152.584 0 .844-.151.261-.432.42-.733.416-.457-.006-.825-.38-.825-.838 0-.458.368-.83.825-.837zM887.739 255.936c.457.006.825.38.825.838 0 .458-.368.83-.825.837-.301.004-.582-.155-.733-.416-.152-.26-.152-.583 0-.843.151-.261.432-.42.733-.416zM617.972 148.85c.301-.004.581.154.733.415.152.26.152.583 0 .844-.152.26-.432.419-.733.415-.457-.006-.825-.379-.825-.837 0-.459.368-.832.825-.838zM496.897 233.92c.458.007.826.382.824.842-.002.46-.373.831-.832.833-.459.002-.833-.366-.84-.826 0-.225.088-.442.247-.601.16-.16.376-.249.6-.248zM230.874 212.53c.459.006.827.381.825.84-.002.46-.374.832-.832.835-.46.002-.834-.367-.84-.827-.001-.225.088-.442.247-.601.159-.16.375-.248.6-.247zM231.742 132.231c.302-.004.582.155.734.415.151.261.151.584 0 .844-.152.261-.432.42-.734.416-.457-.007-.824-.38-.824-.838 0-.458.367-.83.824-.837zM419.82 117.344c.302-.004.582.155.734.415.151.261.151.584 0 .844-.152.261-.432.42-.734.416-.457-.006-.824-.38-.824-.838 0-.458.367-.83.824-.837zM287.734 77.957c.459.006.827.381.825.84-.002.46-.373.833-.832.835-.459.002-.834-.367-.84-.827-.001-.225.088-.442.247-.601.159-.16.375-.248.6-.247zM121.033 60.63c.459.006.827.382.825.841-.002.46-.374.832-.833.834-.458.002-.833-.367-.84-.826 0-.226.088-.442.248-.602.159-.16.375-.248.6-.247zM36.11 93.72c.458.007.826.38.826.838 0 .458-.368.831-.825.837-.302.004-.582-.154-.733-.415-.152-.26-.152-.583 0-.844.151-.26.431-.42.733-.415zM144.615 233.92c.462-.006.84.364.847.827.006.462-.363.842-.825.848-.461.006-.84-.364-.847-.826-.005-.223.08-.438.235-.598.155-.16.368-.25.59-.25zM81.715 309.547c.457.006.824.379.824.837 0 .458-.367.831-.824.837-.302.004-.582-.154-.734-.415-.151-.26-.151-.583 0-.844.152-.26.432-.42.734-.415zM139.89 11.798c.34-.005.649.198.78.512.133.314.062.676-.178.917s-.603.312-.916.18c-.314-.133-.516-.442-.511-.783.01-.452.373-.817.825-.826zM536.193 24.391c.3-.004.58.155.733.416.151.26.151.583 0 .843-.152.26-.432.42-.733.416-.458-.006-.825-.38-.825-.838 0-.458.367-.831.825-.837zM628.983.768c.34-.005.649.198.781.511.132.314.062.677-.179.918-.24.241-.603.312-.916.18-.313-.133-.515-.442-.51-.783.008-.452.372-.817.824-.826zM957.66 128.374c.34-.004.65.198.782.512s.061.677-.18.918c-.24.24-.602.312-.916.18-.313-.133-.515-.443-.51-.784.009-.452.373-.816.824-.826zM918.342 19.68c.334 0 .634.201.762.51s.057.664-.179.9c-.236.237-.59.307-.899.18-.308-.129-.509-.43-.509-.764.002-.456.37-.824.825-.826z" transform="translate(-387) translate(584 24.042)"/>
                                <g opacity=".8" transform="translate(-387) translate(584 24.042) translate(533 113.198)">
                                    <g transform="translate(16 16.028)">
                                        <g>
                                            <ellipse fill="url(#uxbe8lp19f)" fill-rule="nonzero" style="mix-blend-mode:screen" cx="77.314" cy="77.147" rx="76.415" ry="76.549"/>
                                        </g>
                                    </g>
                                    <ellipse cx="93.314" cy="93.175" fill="#F5BA64" fill-rule="nonzero" rx="92.856" ry="93.019"/>
                                    <ellipse cx="93.314" cy="93.175" fill="#F6C173" fill-rule="nonzero" rx="83.927" ry="84.075"/>
                                    <ellipse cx="93.314" cy="93.175" fill="#F8C987" fill-rule="nonzero" rx="74.999" ry="75.13"/>
                                    <ellipse cx="93.314" cy="93.175" fill="#F9D198" fill-rule="nonzero" rx="66.07" ry="66.186"/>
                                    <ellipse cx="93.314" cy="93.175" fill="#F9D8A8" fill-rule="nonzero" rx="57.142" ry="57.242"/>
                                    <ellipse cx="93.314" cy="93.175" fill="#FAE0BA" fill-rule="nonzero" rx="48.213" ry="48.297"/>
                                    <ellipse cx="93.314" cy="93.175" fill="#FBE7CB" fill-rule="nonzero" rx="39.284" ry="39.353"/>
                                </g>
                                <path fill="#B63926" fill-rule="nonzero" d="M583.162 516.247L.062 546.23V277.349h207.05c16.022 0 31.362 6.493 42.53 18.001l16.07 16.58c11.163 11.51 26.5 18.003 42.52 18h117.49c19.667.001 38.053 9.773 49.08 26.087l33.11 48.965 13.55 20.035 61.7 91.23z" transform="translate(-387) translate(584 24.042)"/>
                                <path fill="#892B1C" fill-rule="nonzero" d="M303.062 400.805v11.86c0 1.948-.772 3.816-2.146 5.194-1.375 1.377-3.24 2.15-5.184 2.15h-73.67c-1.944-.001-3.81.772-5.184 2.15-1.375 1.377-2.147 3.245-2.146 5.192v.01c.002 4.055 3.283 7.341 7.33 7.343h17.67c1.944 0 3.809.773 5.184 2.15 1.374 1.378 2.146 3.246 2.146 5.193v3.346c-.002 4.054-3.283 7.34-7.33 7.343H61.892c-4.047-.002-7.328-3.289-7.33-7.343v-3.346c0-1.947.771-3.815 2.146-5.193 1.375-1.377 3.24-2.15 5.184-2.15h103.17c4.047-.002 7.328-3.288 7.33-7.342v-.01c0-1.948-.772-3.816-2.146-5.193-1.375-1.378-3.24-2.151-5.184-2.15h-165v-26.547h50.34c4.047-.002 7.328-3.288 7.33-7.343v-.17c-.002-4.054-3.283-7.34-7.33-7.343H.062v-22.71h25c1.944.001 3.809-.772 5.184-2.15 1.374-1.377 2.146-3.245 2.146-5.193v-3.345c0-1.948-.772-3.816-2.146-5.193-1.375-1.377-3.24-2.15-5.184-2.15h-25V312.49h201.67c1.944 0 3.809.773 5.184 2.15 1.374 1.378 2.146 3.246 2.146 5.193v10.689c0 1.948-.772 3.816-2.146 5.193-1.375 1.377-3.24 2.15-5.184 2.15H90.392c-1.944 0-3.81.773-5.184 2.15-1.375 1.377-2.147 3.245-2.146 5.193v3.345c0 1.948.771 3.816 2.146 5.193 1.375 1.378 3.24 2.151 5.184 2.15h37.34c1.944 0 3.809.773 5.184 2.15 1.374 1.378 2.146 3.246 2.146 5.193v8.024c-.002 4.055-3.283 7.34-7.33 7.343h-20.34c-1.944 0-3.81.773-5.184 2.15-1.375 1.377-2.147 3.245-2.146 5.193v.17c0 1.948.771 3.816 2.146 5.193 1.375 1.377 3.24 2.15 5.184 2.15h188.34c1.944 0 3.809.773 5.184 2.15 1.374 1.377 2.146 3.245 2.146 5.193zM410.562 379.438h-79c-3.586-.01-6.49-2.92-6.5-6.512.01-3.592 2.914-6.5 6.5-6.511h79c3.585.01 6.49 2.92 6.5 6.511-.01 3.592-2.915 6.501-6.5 6.512z" transform="translate(-387) translate(584 24.042)"/>
                                <path fill="#841E19" fill-rule="nonzero" d="M681.787 406.115h76.337c9.652 0 9.668-15.027 0-15.027h-76.337c-9.651 0-9.667 15.027 0 15.027zM781.815 405.455h15.794c9.651 0 9.667-15.026 0-15.026h-15.794c-9.652 0-9.668 15.026 0 15.026z" transform="translate(-387) translate(584 24.042)"/>
                                <path fill="#841E19" fill-rule="nonzero" d="M810.08 399.575v79.72H366.65v-77.597l28.047-65.066 7.535-17.47 4.211-9.776 1.606-3.725c8.87-20.568 31.693-34.22 57.206-34.22 7.802.034 15.49-1.878 22.368-5.564.244-.125.487-.257.724-.396 6.62-3.638 12.003-9.175 15.459-15.9l16.853-33.871c3.159-6.342 10.41-10.456 18.432-10.456h61.833c14.978 0 28.186 8.438 32.51 20.766l27.079 77.182c3.856 11.003 15.649 18.538 29.02 18.538 5.267.015 10.467-1.185 15.196-3.507 4.468-2.175 8.295-5.479 11.102-9.585l10.147-15.215c3.824-5.73 10.918-9.263 18.597-9.263 7.989-.09 15.748 2.672 21.888 7.793 5.641 4.63 8.958 11.515 9.068 18.82v47.215l34.549 41.577z" transform="translate(-387) translate(584 24.042)"/>
                                <path fill="#631813" fill-rule="nonzero" d="M648.977 323.995v7.805c0 2.67-3.04 4.832-6.798 4.832h-68.302c-3.75 0-6.791 2.162-6.791 4.832v.007c0 2.663 3.04 4.832 6.791 4.832h16.386c3.751 0 6.798 2.162 6.798 4.832v2.202c0 2.663-3.047 4.832-6.798 4.832h-164.88c-3.758 0-6.798-2.169-6.798-4.832v-2.202c0-2.67 3.04-4.832 6.798-4.832h95.65c3.758 0 6.799-2.169 6.799-4.832v-.007c0-2.67-3.04-4.832-6.798-4.832H394.697l7.535-17.47h12.496c3.745 0 6.798-2.162 6.798-4.832v-.112c0-2.67-3.053-4.832-6.798-4.832h-8.285l1.606-3.725c8.87-20.568 31.693-34.22 57.206-34.22 7.802.034 15.49-1.878 22.368-5.564h67.407c3.758 0 6.798 2.162 6.798 4.832v7.034c0 2.67-3.04 4.832-6.798 4.832H451.804c-3.757 0-6.797 2.162-6.797 4.832v2.202c0 2.67 3.04 4.832 6.797 4.832h34.622c3.75 0 6.791 2.163 6.791 4.833v5.28c0 2.663-3.04 4.832-6.791 4.832h-18.86c-3.752 0-6.799 2.162-6.799 4.832v.112c0 2.67 3.047 4.832 6.798 4.832H642.18c3.757 0 6.798 2.163 6.798 4.833zM680.01 353.822h25.663c5.148 0 5.157-8.014 0-8.014H680.01c-5.148 0-5.156 8.014 0 8.014zM604.993 379.53c5.148 0 5.156-8.014 0-8.014-5.148 0-5.156 8.014 0 8.014zM519.119 395.351h21.715c5.148 0 5.156-8.014 0-8.014h-21.715c-5.148 0-5.157 8.014 0 8.014z" transform="translate(-387) translate(584 24.042)"/>
                                <path fill="#841E19" fill-rule="nonzero" d="M33.959 235.73h-2.954c-1.984.026-3.882.814-5.303 2.201-1.406 1.41-2.197 3.32-2.197 5.313 0 1.992.79 3.903 2.197 5.312 1.424 1.383 3.32 2.17 5.303 2.2h2.954c1.984-.024 3.882-.812 5.303-2.2 1.407-1.409 2.197-3.32 2.197-5.312 0-1.993-.79-3.904-2.197-5.313-1.424-1.383-3.32-2.17-5.303-2.2z" transform="translate(-387) translate(584 24.042)"/>
                                <path fill="#A8AAAD" fill-rule="nonzero" d="M17.442 217.165H18.973V227.027H17.442z" transform="translate(-387) translate(584 24.042) rotate(-180 18.208 222.096)"/>
                                <path fill="#595A5C" fill-rule="nonzero" d="M40.59 221.571s-12.468 2.284-23.148-4.406c-6.23-3.76-10.873-9.673-13.052-16.625l36.2 21.031z" transform="translate(-387) translate(584 24.042)"/>
                                <path fill="#BFC0C2" fill-rule="nonzero" d="M.105 227.456v49.891h68.087c.001-2.668-.2-5.332-.602-7.97-.06-.384-.122-.769-.189-1.15-.46-2.632-1.124-5.224-1.984-7.753-.13-.384-.265-.769-.405-1.15-.981-2.678-2.18-5.27-3.585-7.752-.218-.386-.441-.77-.671-1.15-1.65-2.753-3.551-5.349-5.677-7.753-.343-.388-.692-.771-1.048-1.15-2.742-2.927-5.81-5.528-9.144-7.753-.59-.396-1.19-.78-1.8-1.15-12.915-7.848-28.582-9.729-42.982-5.16z" transform="translate(-387) translate(584 24.042)"/>
                                <path fill="#A8AAAD" fill-rule="nonzero" d="M.105 232.615v1.15h44.782c-.59-.395-1.19-.779-1.8-1.15H.105zM.105 241.519v1.15H55.08c-.343-.388-.692-.771-1.048-1.15H.105zM.105 250.422v1.15h61.322c-.218-.386-.441-.77-.67-1.15H.104zM.105 259.324v1.15h65.312c-.13-.384-.265-.769-.405-1.15H.105zM.105 268.227v1.15H67.59c-.06-.384-.122-.769-.189-1.15H.105z" transform="translate(-387) translate(584 24.042)"/>
                                <path fill="#7E7F81" fill-rule="nonzero" d="M17.497 264.008h30.025c0 7.367-5.962 13.34-13.316 13.34h-3.393c-7.354 0-13.316-5.973-13.316-13.34z" transform="translate(-387) translate(584 24.042) rotate(-180 32.51 270.678)"/>
                                <path fill="#595A5C" fill-rule="nonzero" d="M47.522 274.527v2.82h-8.86v-2.82c0-2.79-1.106-5.466-3.075-7.438-1.97-1.973-4.64-3.081-7.426-3.081h8.86c2.785 0 5.456 1.108 7.426 3.08 1.969 1.973 3.075 4.65 3.075 7.439z" transform="translate(-387) translate(584 24.042)"/>
                                <path fill="#EC7C31" fill-rule="nonzero" d="M60.265 270.678c.996-.003 1.802-.811 1.805-1.808v-1.356c-.003-.997-.81-1.805-1.805-1.808-.996.003-1.802.811-1.805 1.808v1.356c.003.997.81 1.805 1.805 1.808zM12.082 270.678c.996-.003 1.802-.811 1.805-1.808v-1.356c-.003-.997-.809-1.805-1.805-1.808-.995.003-1.801.811-1.804 1.808v1.356c.003.997.809 1.805 1.804 1.808zM5.191 270.678c.996-.003 1.802-.811 1.805-1.808v-1.356c-.003-.997-.809-1.805-1.805-1.808-.995.003-1.801.811-1.804 1.808v1.356c.003.997.809 1.805 1.804 1.808zM52.444 270.678c.996-.003 1.802-.811 1.805-1.808v-1.356c-.003-.997-.81-1.805-1.805-1.808-.995.003-1.802.811-1.805 1.808v1.356c.003.997.81 1.805 1.805 1.808z" transform="translate(-387) translate(584 24.042)"/>
                                <path fill="#7E7F81" fill-rule="nonzero" d="M38.662 234.862h-5.414c-1.933 0-3.5 1.57-3.5 3.506 0 1.936 1.567 3.506 3.5 3.506h5.414c1.933 0 3.5-1.57 3.5-3.506 0-1.937-1.567-3.506-3.5-3.506zM19.958 242.203c4.504 0 4.512-7.013 0-7.013-4.504 0-4.512 7.013 0 7.013zM9.293 232.67c4.504 0 4.512-7.013 0-7.013-4.504 0-4.511 7.013 0 7.013zM7.817 251.352h19.25c4.505 0 4.512-7.012 0-7.012H7.818c-4.505 0-4.512 7.012 0 7.012zM55.507 253.215h-8.97c-4.504 0-4.511 7.012 0 7.012h8.97c4.504 0 4.511-7.012 0-7.012z" transform="translate(-387) translate(584 24.042)"/>
                                <path fill="#7E7F81" fill-rule="nonzero" d="M41.506 260.337c4.504 0 4.512-7.012 0-7.012-4.504 0-4.512 7.012 0 7.012zM8.145 260.337c4.504 0 4.511-7.012 0-7.012-4.504 0-4.512 7.012 0 7.012z" transform="translate(-387) translate(584 24.042)"/>
                                <path fill="#7E7F81" fill-rule="nonzero" d="M6.832 259.022c4.504 0 4.512-7.012 0-7.012-4.504 0-4.511 7.012 0 7.012z" transform="translate(-387) translate(584 24.042)"/>
                                <path fill="#7E7F81" fill-rule="nonzero" d="M5.957 260.666c4.504 0 4.512-7.013 0-7.013-4.504 0-4.512 7.013 0 7.013zM50.311 250.092c4.504 0 4.512-7.012 0-7.012-4.504 0-4.511 7.012 0 7.012zM20.857 213.876c9.997 5.809 18.832 9.254 19.733 7.696.902-1.558-6.47-7.53-16.466-13.338-9.997-5.807-18.833-9.252-19.735-7.694-.9 1.558 6.471 7.53 16.468 13.336z" transform="translate(-387) translate(584 24.042)"/>
                                <path fill="#595A5C" fill-rule="nonzero" d="M4.39 200.54c17.903 6.384 36.2 21.032 36.2 21.032.902-1.558-6.47-7.53-16.466-13.338-9.997-5.807-18.832-9.252-19.735-7.694z" transform="translate(-387) translate(584 24.042)"/>
                                <path fill="#D8D9D9" fill-rule="nonzero" d="M19.418 213.015L20.504 213.656 29.394 201.349 28.429 200.54z" transform="translate(-387) translate(584 24.042)"/>
                                <path fill="#FFF" d="M163.705 256.238c-.752-.43-2.996-.736-3.623-.136-1.2 1.15-2.828 7.426-2.848 9.826.095.955.774 1.75 1.7 1.992 1.752.404 4.09.891 5.382-.361 2-1.953 3.004-4.712 2.726-7.497-.278-1.89-1.679-2.88-3.337-3.824z" transform="translate(-387) translate(584 24.042)"/>
                                <path fill="#B2BFDD" d="M158.344 267.672c.182.114.382.198.59.248 1.752.404 4.09.891 5.382-.361 2-1.953 3.004-4.712 2.726-7.497-.293-1.48-1.26-2.736-2.616-3.395-1.528-.256-3.096-.512-3.557.01-1.781 2.003-2.34 7.745-2.525 10.995z" transform="translate(-387) translate(584 24.042)"/>
                                <path fill="#B2BFDD" d="M164.624 259.666c-2.377-.572-5.697 4.302-3.87 8.099 1.01 2.103 3.061 2.55 3.89 4.294.557 1.167-.44 2.339 0 3.875 1.44.562 2.99.788 4.53.662.238-.805-.664-1.58-1.834-1.613.69-1.1.907-2.434.599-3.697-.654-1.877-1.406-2.093-2.54-3.725-.294-1.24 1.067-3.247 1.766-3.912 1.612.987 3.438 1.572 5.324 1.704.632-.273.957-.98.751-1.639-2.578-.507-4.216-2.023-6.519-3.473-.658-.317-1.369-.512-2.097-.575z" transform="translate(-387) translate(584 24.042)"/>
                                <path fill="#9EACCC" d="M172 265.323c.16.012.323.022.489.03.632-.273.957-.98.751-1.639-.19-.035-.373-.08-.554-.128-.02.01-.04.02-.06.028-.48.226-1.02.82-.874 1.33.045.147.131.279.248.379zM167.34 274.983c.512-.83.773-1.79.752-2.766-.683.345-1.468.429-2.207.236-.404.983-.547 2.054-.416 3.11.506-.464 1.192-.677 1.871-.58z" transform="translate(-387) translate(584 24.042)"/>
                                <path fill="#C35A5A" d="M169.753 264.823c.155.056.305.106.456.151-.116-.766.181-1.536.781-2.025-.182-.09-.363-.186-.54-.284-.562.568-.82 1.369-.697 2.158zM164.389 271.612c.096.142.181.29.255.444.677-1.777 1.87-2.18 2.834-1.824-.116-.21-.248-.412-.393-.603-1.235-.346-2.265.799-2.696 1.983z" transform="translate(-387) translate(584 24.042)"/>
                                <path fill="#C35A5A" d="M163.835 270.955c.093.092.183.188.268.286.501-1.72 1.42-2.397 2.3-2.42-.14-.16-.288-.331-.446-.52-1.147.418-1.966 1.441-2.122 2.654z" transform="translate(-387) translate(584 24.042)"/>
                                <path fill="#FFF" d="M165.76 254.345c1.466 0 2.787.885 3.349 2.242.56 1.357.25 2.92-.786 3.958-1.037 1.038-2.596 1.35-3.951.787-1.355-.562-2.238-1.886-2.238-3.355 0-2.006 1.623-3.631 3.625-3.632z" transform="translate(-387) translate(584 24.042)"/>
                                <path fill="#B2BFDD" d="M165.98 254.353c1.42.087 2.657.998 3.164 2.33.507 1.331.19 2.836-.81 3.85-1.001 1.012-2.5 1.344-3.835.85-.116-1.08-.122-2.17-.02-3.25-.084-1.42.466-2.805 1.5-3.78z" transform="translate(-387) translate(584 24.042)"/>
                                <path fill="#FFF" d="M160.032 265.225c-1.495 3.07-.86 4.512-1.205 7.012-.387 1.419-.543 2.89-.463 4.36.228.89 3.026.86 3.718.31.055-.346-.042-.7-.266-.969-.224-.27-.554-.429-.904-.436.072-1.877 2.29-3.212 1.746-6.03-.075-1.778-1.07-3.388-2.626-4.247z" transform="translate(-387) translate(584 24.042)"/>
                                <path fill="#D1DAEF" d="M160.912 275.502c.04-1.051.754-1.932 1.277-2.999-.797.467-1.785.46-2.575-.018-.45 1.143-.646 2.37-.574 3.597.506-.464 1.193-.677 1.872-.58z" transform="translate(-387) translate(584 24.042)"/>
                                <path fill="#F6989A" d="M158.945 270.699c.002.2-.015.394-.025.604 1.3-1.455 2.718-.607 3.547.555.063-.173.115-.348.158-.527-1.335-1.804-2.85-1.533-3.68-.632z" transform="translate(-387) translate(584 24.042)"/>
                                <path fill="#F6989A" d="M158.967 269.68c.005.19-.017.426-.012.62 1.408-1.873 2.899-.997 3.783.256.012-.26.001-.519-.033-.776-1.435-1.75-2.973-1.195-3.738-.1z" transform="translate(-387) translate(584 24.042)"/>
                                <path fill="#FFF" d="M162.906 259.847c-1.143-1.233-3.733 1.395-3.585 3.714.284 2.101 1.877 3.785 3.956 4.184 1.117.233 2.247-1.032 1.28-1.64-1.864-1.171-2.636-2.107-2.363-3.164.336-1.315 1.782-1.94.712-3.094z" transform="translate(-387) translate(584 24.042)"/>
                                <path fill="#D1DAEF" d="M163.277 267.745c1.117.23 2.247-1.032 1.28-1.64-.075-.047-.148-.092-.218-.14-.124.041-.246.09-.363.146-.479.226-1.018.818-.872 1.327.033.114.092.22.173.307z" transform="translate(-387) translate(584 24.042)"/>
                                <path fill="#9EACCC" d="M160.536 260.472c-.179.198-.342.409-.489.632.378.322.804.58 1.263.768.128-.236.34-.51.468-.745-.45-.141-.871-.363-1.242-.655z" transform="translate(-387) translate(584 24.042)"/>
                                <path fill="#F6989A" d="M160.115 265.71c.09.123.186.242.288.356.491-1.25 1.238-1.8 1.974-1.88-.098-.17-.168-.353-.208-.545-1 .278-1.781 1.064-2.054 2.068z" transform="translate(-387) translate(584 24.042)"/>
                                <path fill="#4E4E4E" d="M169.36 257.54c-.983.768-3.754.849-5.663-.386-.487.918-.59 1.992-.288 2.986 1.09 1.005 2.61 1.396 4.049 1.044 1.186-.628 1.927-1.863 1.927-3.207 0-.146-.008-.292-.026-.437z" transform="translate(-387) translate(584 24.042)"/>
                                <path fill="#1A1A1A" d="M169.36 257.54c-.852.665-3.045.816-4.858.04-.015.184-.023.367-.023.553 0 .988-.125 1.99-.063 2.748.963.396 2.02.501 3.042.303 1.186-.628 1.927-1.863 1.927-3.207 0-.146-.008-.292-.026-.437z" transform="translate(-387) translate(584 24.042)"/>
                                <path fill="#D1DAEF" d="M160.924 271.04c.462.104.766.548.696 1.018-.07.47-.489.806-.962.771-.472-.035-.838-.428-.839-.903.068-.546.558-.94 1.105-.886zM166.957 270.51c.462.106.765.55.694 1.02-.07.47-.49.805-.963.77-.472-.035-.838-.429-.838-.904.067-.547.559-.94 1.107-.886z" transform="translate(-387) translate(584 24.042)"/>
                                <path fill="#FFF" d="M160.543 260.557c.323.264.693.464 1.09.59-.1.185-.265.396-.366.582-.388-.161-.75-.38-1.072-.65.1-.186.25-.336.348-.522z" transform="translate(-387) translate(584 24.042)"/>
                                <path fill="#F6989A" d="M160.543 260.557c.323.264.693.464 1.09.59-.058.105-.135.218-.208.328-.38-.17-.738-.386-1.065-.645.069-.086.13-.177.183-.273z" transform="translate(-387) translate(584 24.042)"/>
                                <path fill="#B2BFDD" d="M164.168 256.243c.164 0 .296.132.296.296 0 .163-.132.296-.296.296-.163 0-.295-.133-.295-.296 0-.164.132-.296.295-.296z" transform="translate(-387) translate(584 24.042)"/>
                                <path fill="#FFF" d="M164.148 256.308c.086 0 .162.051.195.13.032.079.014.17-.046.23s-.15.078-.23.046c-.078-.033-.129-.11-.129-.195 0-.056.022-.11.061-.15.04-.04.094-.061.15-.061z" transform="translate(-387) translate(584 24.042)"/>
                                <path fill="#9EACCC" d="M164.988 256.607c.163 0 .295.132.295.296 0 .163-.132.296-.295.296-.164 0-.296-.133-.296-.296 0-.164.133-.296.296-.296z" transform="translate(-387) translate(584 24.042)"/>
                                <path fill="#FFF" d="M164.965 256.672c.116 0 .209.095.208.21 0 .116-.095.21-.21.209-.116 0-.209-.095-.208-.21 0-.116.095-.21.21-.21zM164.406 266.264c-.478.226-1.017.818-.871 1.33.152.54.92.778 1.48.806.614.082 1.227-.162 1.616-.645.198-.354-.045-.688-.699-.992.539-.045.794-.416.564-.564-.667-.317-1.444-.292-2.09.065z" transform="translate(-387) translate(584 24.042)"/>
                                <path fill="#B2BFDD" d="M173.045 263.671c-.479.224-1.017.819-.872 1.328.153.54.92.778 1.48.808.615.082 1.228-.163 1.616-.647.198-.354-.045-.688-.699-.992.54-.042.795-.416.564-.564-.666-.317-1.445-.292-2.09.067z" transform="translate(-387) translate(584 24.042)"/>
                                <path fill="#A42A22" fill-rule="nonzero" d="M1316.044 430.243v55.765c-.592.046-1.191.065-1.796.065h-232.406c-3.934 0-7.805.989-11.26 2.875l-90.814 49.626c-3.454 1.886-7.326 2.875-11.26 2.875h-248.68l-24.052-107.672 49.244-60.59c4.464-5.492 11.158-8.68 18.228-8.682h97.803c8.318-.001 16.017-4.402 20.25-11.576l8.725-14.813c4.232-7.174 11.931-11.575 20.25-11.576h17.61c7.018 0 13.67-3.14 18.136-8.563l29.324-35.612c4.466-5.423 11.118-8.563 18.136-8.563h123.27c9.5 0 18.065 5.729 21.71 14.516l2.455 5.92 6.291 15.162 18.86 45.487 6.292 15.162 10.654 25.697c3.646 8.787 12.211 14.514 21.71 14.516h86.583c3.803 0 7.549.923 10.918 2.69l13.82 17.291z" transform="translate(-387) translate(584 24.042)"/>
                                <path fill="#841E19" fill-rule="nonzero" d="M1150.723 423.48c2.602 2.608 3.38 6.53 1.972 9.938-1.408 3.408-4.727 5.63-8.408 5.633h-126.568c-5.028 0-9.104-4.084-9.104-9.12 0-5.038 4.076-9.121 9.104-9.121h20.835c4.18 0 7.568-3.394 7.568-7.581s-3.389-7.582-7.568-7.582h-87.195c-5.634 0-10.2-4.574-10.2-10.218 0-5.643 4.566-10.218 10.2-10.218h38.392c2.704 0 5.202-1.445 6.554-3.79 1.352-2.346 1.352-5.236 0-7.581-1.352-2.346-3.85-3.79-6.554-3.79h-23.914c-4.18 0-7.568-3.395-7.568-7.582 0-4.187 3.388-7.581 7.568-7.581h103.758c2.706.003 5.208-1.441 6.561-3.788 1.354-2.347 1.354-5.24 0-7.586-1.353-2.347-3.855-3.792-6.56-3.788h-42.335c-4.18 0-7.568-3.395-7.568-7.582 0-4.186 3.389-7.58 7.568-7.58h15.136c4.18 0 7.568-3.395 7.568-7.582 0-4.187-3.388-7.581-7.568-7.581h-47.164c-4.18 0-7.568-3.394-7.568-7.581s3.388-7.581 7.568-7.581h145.684l6.291 15.162h-62.477c-4.18 0-7.568 3.394-7.568 7.581s3.388 7.581 7.568 7.581h37.951c4.18 0 7.568 3.395 7.568 7.581 0 4.187-3.388 7.582-7.568 7.582h-10.753c-2.706-.004-5.207 1.44-6.561 3.788-1.354 2.347-1.354 5.239 0 7.586 1.354 2.347 3.855 3.791 6.561 3.788h54.14l6.291 15.162h-103.864c-4.18 0-7.568 3.394-7.568 7.581s3.389 7.581 7.568 7.581h66.907c5.633 0 10.2 4.575 10.2 10.218 0 5.644-4.567 10.218-10.2 10.218h-46.835c-4.18 0-7.568 3.395-7.568 7.582 0 4.187 3.388 7.58 7.568 7.58h55.719c2.414-.002 4.73.959 6.436 2.67z" transform="translate(-387) translate(584 24.042)"/>
                                <path fill="#631813" fill-rule="nonzero" d="M922.572 366.544c6.434 0 6.445-10.017 0-10.017-6.435 0-6.446 10.017 0 10.017zM930.468 354.679c6.435 0 6.445-10.018 0-10.018-6.434 0-6.445 10.018 0 10.018zM908.753 350.723c6.434 0 6.445-10.017 0-10.017-6.435 0-6.445 10.017 0 10.017z" transform="translate(-387) translate(584 24.042)"/>
                                <path fill="#CDCCCC" fill-rule="nonzero" d="M1031.618 271.734c.002-.134.007-.267.007-.402 0-10.884-9.062-19.707-20.241-19.707-11.18 0-20.242 8.823-20.242 19.707 0 .135.01.268.013.402h40.463z" transform="translate(-387) translate(584 24.042)"/>
                                <path fill="#A0A1A1" fill-rule="nonzero" d="M995.091 259.64h32.585c-.429-.566-.888-1.109-1.375-1.626h-29.835c-.487.517-.946 1.06-1.375 1.626z" transform="translate(-387) translate(584 24.042)"/>
                                <path fill="#808182" fill-rule="nonzero" d="M1015.125 271.734v-6.447c.002-1.34-.71-2.58-1.869-3.251-1.158-.671-2.586-.671-3.745 0-1.158.67-1.87 1.91-1.869 3.25v6.448h7.483z" transform="translate(-387) translate(584 24.042)"/>
                                <path fill="#A0A1A1" fill-rule="nonzero" d="M1011.384 262.75c-.782 0-1.531.311-2.084.865-.553.553-.863 1.304-.863 2.087v6.032h5.893v-6.032c0-.783-.31-1.534-.863-2.087-.552-.554-1.302-.865-2.083-.865z" transform="translate(-387) translate(584 24.042)"/>
                                <path fill="#808182" fill-rule="nonzero" d="M991.155 271.734H1031.625V273.71099999999996H991.155z" transform="translate(-387) translate(584 24.042)"/>
                                <path fill="#CDCCCC" fill-rule="nonzero" d="M1075.822 271.734c.003-.134.008-.267.008-.402 0-10.884-9.063-19.707-20.242-19.707s-20.241 8.823-20.241 19.707c0 .135.01.268.013.402h40.462z" transform="translate(-387) translate(584 24.042)"/>
                                <path fill="#A0A1A1" fill-rule="nonzero" d="M1039.296 259.64h32.585c-.43-.566-.888-1.109-1.375-1.626h-29.835c-.487.517-.946 1.06-1.375 1.626z" transform="translate(-387) translate(584 24.042)"/>
                                <path fill="#808182" fill-rule="nonzero" d="M1059.33 271.734v-6.447c0-2.07-1.675-3.748-3.742-3.748-2.066 0-3.741 1.678-3.741 3.748v6.447h7.483z" transform="translate(-387) translate(584 24.042)"/>
                                <path fill="#A0A1A1" fill-rule="nonzero" d="M1055.588 262.75c-.781 0-1.53.311-2.083.865-.553.553-.863 1.304-.863 2.087v6.032h5.893v-6.032c0-.783-.31-1.534-.863-2.087-.553-.554-1.302-.865-2.084-.865z" transform="translate(-387) translate(584 24.042)"/>
                                <path fill="#808182" fill-rule="nonzero" d="M1035.36 271.734H1075.83V273.71099999999996H1035.36z" transform="translate(-387) translate(584 24.042)"/>
                                <path fill="#D6C9CA" fill-rule="nonzero" d="M1084.371 257.959L1084.691 259.787 1084.815 260.492 1096.408 258.646 1096.973 258.556 1096.973 258.556 1105.555 257.188 1106.12 257.098 1106.12 257.098 1106.188 257.088 1106.044 256.265 1106.044 256.265 1105.624 253.871 1105.557 253.884 1105.556 253.884 1104.995 253.992 1096.461 255.633 1095.899 255.741 1095.899 255.741z" transform="translate(-387) translate(584 24.042)"/>
                                <path fill="#A8AAAD" fill-rule="nonzero" d="M1096.364 255.08L1096.461 255.633 1096.838 257.783 1096.973 258.556 1097.064 259.075 1106.233 257.743 1106.301 257.733 1106.188 257.088 1106.044 256.265 1105.624 253.871 1105.512 253.225 1105.443 253.24z" transform="translate(-387) translate(584 24.042)"/>
                                <path fill="#2A3C90" fill-rule="nonzero" d="M1095.899 255.741L1095.899 255.741 1096.274 257.877 1096.408 258.646 1096.973 258.556 1096.973 258.556 1096.838 257.783 1096.461 255.633zM1105.445 253.247L1106.231 257.736 1105.666 257.822 1104.884 253.36z" transform="translate(-387) translate(584 24.042)"/>
                                <path fill="#18154A" fill-rule="nonzero" d="M1112.726 254.28c.052.296.115.582.186.852.169.767.498 1.49.967 2.12.145.22.394.35.658.341.084-.016.162-.055.226-.112.499-.817.666-1.794.467-2.731-.025-.286-.064-.584-.117-.889-.298-1.704-.957-3.053-1.56-3.284-.079-.032-.165-.042-.25-.029-.21.038-.38.233-.502.545-.284 1.04-.31 2.135-.075 3.187z" transform="translate(-387) translate(584 24.042)"/>
                                <path fill="#D6C9CA" fill-rule="nonzero" d="M1105.331 252.596L1105.443 253.24 1105.445 253.247 1105.556 253.884 1105.557 253.884 1105.976 256.277 1106.12 257.098 1106.231 257.736 1106.233 257.743 1106.345 258.387 1113.967 257.751 1113.879 257.252 1113.491 255.037 1112.801 251.094 1112.713 250.595z" transform="translate(-387) translate(584 24.042)"/>
                                <path fill="#18154A" fill-rule="nonzero" d="M1100.519 256.426c.053.307.345.512.651.458.306-.054.51-.346.457-.653-.054-.306-.345-.511-.651-.457-.147.026-.278.109-.364.231-.085.123-.119.274-.093.421z" transform="translate(-387) translate(584 24.042)"/>
                                <path fill="#2A3C90" fill-rule="nonzero" d="M1112.713 250.595L1112.801 251.094 1113.491 255.037 1113.879 257.252 1113.967 257.751 1114.785 257.607 1114.763 257.481 1114.311 254.901 1113.554 250.577 1113.532 250.451z" transform="translate(-387) translate(584 24.042)"/>
                                <path fill="#BE202E" fill-rule="nonzero" d="M1103.756 254.845c.02.11.104.198.213.223.11.024.223-.02.287-.112.064-.092.067-.213.007-.308-.06-.095-.171-.144-.282-.124-.15.026-.25.17-.225.32z" transform="translate(-387) translate(584 24.042)"/>
                                <path fill="#2A3C90" fill-rule="nonzero" d="M1099.867 261.546c.771-.001 1.397-.627 1.398-1.4v-3.603h-.347v3.603c0 .581-.47 1.053-1.051 1.053s-1.052-.472-1.052-1.053v-1.188h-.346v1.188c0 .773.626 1.399 1.398 1.4zM1099.694 268.01H1100.694V275.657H1099.694z" transform="translate(-387) translate(584 24.042)"/>
                                <path fill="#2A3C90" fill-rule="nonzero" d="M1099.694 261.373H1100.694V265.53H1099.694z" transform="translate(-387) translate(584 24.042)"/>
                                <path fill="#2A3C90" fill-rule="nonzero" d="M1093.531 271.053L1100.415 271.048 1100.415 271.053 1093.531 271.058z" transform="translate(-387) translate(584 24.042) rotate(-62.116 1096.973 271.053)"/>
                                <path fill="#2A3C90" fill-rule="nonzero" d="M1102.699 267.611L1102.704 267.611 1102.699 274.495 1102.694 274.495z" transform="translate(-387) translate(584 24.042) rotate(-27.887 1102.699 271.053)"/>
                                <path fill="#A8AAAD" fill-rule="nonzero" d="M1099.867 265.5c.54 0 1.059.215 1.441.598.382.383.597.902.597 1.443h-4.077c0-.541.215-1.06.597-1.443.383-.383.901-.598 1.442-.598z" transform="translate(-387) translate(584 24.042)"/>
                                <path fill="#BE202E" fill-rule="nonzero" d="M1097.9 268.478h3.934c.124 0 .243-.05.33-.137.088-.088.137-.207.137-.331 0-.125-.049-.244-.136-.331-.088-.088-.207-.138-.33-.138h-3.936c-.124 0-.242.05-.33.138-.088.087-.137.206-.137.33 0 .125.05.244.137.332.088.087.206.137.33.137z" transform="translate(-387) translate(584 24.042)"/>
                                <path fill="#E6E7E7" fill-rule="nonzero" d="M1084.691 259.787l.124.706 11.593-1.847.565-.09.09.52 9.17-1.333.112.643 7.622-.635.818-.144-.022-.126c.499-.817.666-1.794.467-2.73l-.919.15-.82.135-.579.096-6.868 1.133-.068.011-.564.093-8.574 1.415-.564.093-11.583 1.91z" style="mix-blend-mode:multiply" transform="translate(-387) translate(584 24.042)"/>
                                <path fill="#DA7991" fill-rule="nonzero" d="M173.963 247.037H184.049V253.668H173.963z" transform="translate(-387) translate(584 24.042)"/>
                                <path fill="#F4EDF1" fill-rule="nonzero" d="M173.963 248.014H184.049V249.014H173.963zM173.963 249.919H184.049V250.919H173.963zM173.963 251.824H184.049V252.824H173.963z" transform="translate(-387) translate(584 24.042)"/>
                                <path fill="#DBD2DA" fill-rule="nonzero" d="M173.963 277.223c-.114 0-.224-.046-.305-.127-.081-.081-.127-.191-.127-.306v-29.753c0-.24.194-.433.432-.433s.432.194.432.433v29.753c0 .115-.046.225-.127.306-.08.081-.19.127-.305.127z" transform="translate(-387) translate(584 24.042)"/>
                            </g>
                        </g>
                        <g fill-rule="nonzero" opacity=".2" transform="translate(-387) translate(1520 85.147)">
                            <ellipse cx="40.438" cy="26.922" fill="#E8A04D" rx="22.386" ry="22.351" transform="rotate(-76.717 40.438 26.922)"/>
                            <path fill="#F2BD7E" d="M41.597 44.5c.547-.102 1.074-.29 1.562-.558-1.146-.022-2.292.086-3.414.322-.423.018-.847.01-1.269-.022-1.493-.086-2.964-.157-4.45-.131-1.59.027-3.177.122-4.767.16-.99.023-2.001.014-3.008-.05 7.58 6.238 18.337 6.795 26.52 1.372-.409.271-1.706.118-2.207.149-.735.046-1.471.088-2.207.126-1.414.074-2.78.449-4.197.49-.434.012-.868-.011-1.301.02-1.377.098-2.697.74-4.075.661-1.227-.237-2.435-.567-3.612-.986-.245-.052-.492-.089-.74-.125l-2.425-.353c-.005-.226.14-.428.356-.495.212-.06.433-.077.651-.05 2.064.093 4.106-.512 6.171-.484.61.008 1.221.071 1.83.028.195-.014.39-.039.582-.075zM37.752 10.32c.525.088 1.033.257 1.507.499-1.58.366-3.26-.083-4.845.262-.668.146-1.305.43-1.984.52-.481.039-.965.047-1.448.025-.635 0-1.269.066-1.891.197-.299.043-.582.158-.825.337-.245.188-.344.511-.245.804 1.237.208 2.494.268 3.745.179l5.15-.164c.617-.04 1.235-.019 1.847.063 1.085.183 2.088.744 3.183.845.42.039.844.008 1.266.024 1.5.055 2.973.694 4.459.481-.509-.313-1.1-.465-1.696-.437-.247.033-.498.036-.745.007-.254-.035-.46-.224-.516-.474-.046-.404 3.272-.04 3.595.019 1.347.248 2.689.527 4.024.836 2.67.617 5.308 1.354 7.915 2.21-.517-.99-1.106-1.937-1.764-2.837-.206-.283-1.094-.494-1.42-.63-.478-.2-.961-.388-1.448-.565-.973-.354-1.962-.663-2.965-.927-1.914-.502-4.062-.496-5.864-1.324-.262-.12-.514-.262-.778-.38-.746-.33-1.564-.46-2.375-.378-.187.033-.377.037-.564.011-.191-.03-.347-.168-.4-.355-.054-.299.274-.523.568-.598.358-.075.724-.106 1.09-.091l2.298-.002c.208-.009.417.008.622.048.602.144 1.17.704 1.746.473.048-.463-.447-.784-.887-.932-1.291-.298-2.617-.414-3.94-.343-1.269-.07-2.551.02-3.83.078-.963.044-1.882.247-2.844.298-.969-.006-1.937.071-2.893.232-.532.122-1.166.297-1.563-.078-.115-.324.27-.595.596-.704.844-.28 1.735-.385 2.62-.306.525.046 1.135.129 1.502-.25.064-.083.14-.157.227-.217.092-.04.192-.056.291-.05l2.273-.015c.032-.14.015-.288-.046-.418l-3.903.092c-.8-.012-1.598.07-2.379.245-1.692.452-3.378.639-5.105.988-1.919 1.133-3.659 2.545-5.163 4.19.274-.3 1.477-.396 1.881-.494.663-.161 1.329-.308 1.998-.441 1.333-.264 2.679-.467 4.032-.599 1.32-.16 2.65-.21 3.978-.146.64.03 1.28.094 1.913.192zM52.555 19.59c-1.868.489-4.168 1.221-5.48-.198-.362-.543-.75-1.066-1.167-1.568-1.118-.974-2.818-.3-4.215.195-1.476.497-3.007.813-4.56.942-1.408.02-2.812.156-4.197.407-1.541.246-3.108.287-4.66.123-1.629-.027-3.257-.09-4.883-.193-.146.003-.29-.032-.417-.102-.129-.078-.175-.243-.105-.377.065-.071.152-.118.247-.131 2.943-.766 5.982-1.09 9.02-.96.058-.064.087-.15.08-.237-.008-.086-.051-.166-.12-.219-.144-.099-.314-.153-.49-.156-1.958-.218-3.922-.371-5.893-.458-.89-.077-1.786-.083-2.678-.017-.328.039-2.45-.016-2.575.233-1.194 2.376-1.952 4.948-2.239 7.593 1.309-.37 2.67-.523 4.027-.451 1.611.096 3.19.547 4.805.581 5.154.11 10.204-3.98 15.067-2.266.868.306 1.665.787 2.532 1.097 3.453 1.237 7.186-.387 10.8-1.02 2.265-.375 4.572-.418 6.85-.13-.186-.882-.424-1.75-.715-2.603-2.957-.78-6.062-.808-9.034-.085zM49.802 36.644c-1.58-.3-3.214-.11-4.684.545-.685.398-1.237.996-1.916 1.404-.814.816-2.465.64-3.487.7-1.198.055-2.398.045-3.595-.03-.672.014-1.34-.112-1.963-.368-.133-.336.274-.626.617-.737 2.347-.755 4.99-.152 7.293-1.032.172-.05.326-.15.443-.285.116-.144.103-.353-.03-.483-1.235.358-2.512.55-3.798.57-1.162-.064-2.316-.224-3.45-.48-1.451-.219-2.912-.362-4.378-.428-1.465-.083-2.934-.073-4.398.032-1.325.092-2.654.095-3.98.008-.353-.055-.715.006-1.031.173-.136.093-.246.283-.149.416.063.065.147.106.238.115 2.42.503 4.937.149 7.391.437-.431.37-1 .536-1.563.457l-1.867-.005c-.12 0-.28.036-.282.156 0 .087.09.143.169.18 1.89.738 3.945.949 5.946.609.577.348-.431 1.008-1.096.9l-9.217-1.496c.791 1.389 1.728 2.688 2.795 3.877 8.053.751 16.169.428 24.137-.96 1.742-.303 3.477-.659 5.235-.85 1.834-.198 3.714-.224 5.574-.321.493-.705.944-1.437 1.353-2.193l-10.307-.91zM52.551 28.229c-.842.404-1.64.896-2.38 1.468-4.366 2.879-10.029 2.504-15.234 2.022 2.519-1.602 5.48-2.364 8.457-2.175.96.146 1.937.146 2.897 0 .984-.173 1.74-.968 1.862-1.961L36.39 28.804c-1.263.079-2.51.314-3.716.702-1.82.67-3.439 2.05-5.378 2.11-1.427-.105-2.816-.508-4.078-1.184-1.615-.66-3.304-1.126-5.03-1.385.178 1.899.598 3.767 1.251 5.558 2.16.173 4.332.127 6.483-.136 1.505-.389 3.037-.662 4.583-.818 1.18.043 2.355.202 3.505.475 4.24.777 8.593.696 12.802-.239 1.005-.205 1.986-.511 2.929-.915.807-.362 1.564-.833 2.386-1.158 3.17-1.254 6.589-.185 10.018.44.123-.503.23-1.013.318-1.53-.378-.101-.753-.219-1.123-.355-2.911-1.068-5.9-3.267-8.79-2.14z"/>
                            <path fill="#F6F3C8" d="M80.197 11.042C78.971 7.97 69.737 8.565 57.095 12c.403.452.786.922 1.152 1.406 8.679-2.018 14.78-2.126 15.687.144 1.522 3.813-12.185 12.89-30.616 20.274-18.43 7.385-34.606 10.28-36.128 6.467-.898-2.25 3.504-6.33 11.047-10.814-.069-.601-.115-1.21-.136-1.824C6.707 33.857-.292 39.749.927 42.801c1.808 4.529 21.019 1.09 42.909-7.68s38.169-19.55 36.361-24.08z"/>
                        </g>
                        <g fill-rule="nonzero" opacity=".4">
                            <path fill="#968392" d="M25.924 14.299c.67 0 1.215.545 1.215 1.217v6.479h-2.43v-6.48c0-.671.544-1.216 1.215-1.216zM22.238 11.397c-.195 0-.356-.152-.367-.347l-.452-7.93c-.008-.139.063-.27.183-.34s.27-.065.385.011l6.63 4.357c.11.072.173.198.165.33-.007.13-.084.248-.202.307-.117.06-.257.051-.367-.021l-6.019-3.956.411 7.2c.012.203-.143.377-.346.389h-.021z" transform="translate(-387) translate(1129 200.35)"/>
                            <path fill="#A7A9AA" d="M17.7 12.358c2.457 3.431 7.111 4.437 10.762 2.325 3.651-2.111 5.109-6.652 3.371-10.5L17.7 12.358zM22.544 4.415c-.34.196-.774.08-.97-.26l-1.39-2.412c-.094-.163-.12-.357-.07-.54.048-.182.167-.337.33-.431.164-.095.357-.12.54-.071.181.048.336.168.43.331l1.39 2.41c.196.341.08.776-.26.973z" transform="translate(-387) translate(1129 200.35)"/>
                            <path fill="#E9E8DB" d="M40.188 4.497v24.428h-1.765V4.497c.001-.487.396-.881.882-.881s.88.394.883.881z" transform="translate(-387) translate(1129 200.35)"/>
                            <path fill="#A7A9AA" d="M43.474 28.925H.314C4.728 22.412 11.84 18.243 19.67 17.576l-.011-.001.276-.022c.346-.027.694-.046 1.043-.058.08-.003.162-.006.243-.007l.197-.004c.064-.002.129-.002.194-.003.094-.002.188-.002.282-.002.94 0 1.88.05 2.815.152.822.087 1.632.212 2.43.376 4.142.849 8.016 2.697 11.284 5.386.612.502 1.2 1.031 1.765 1.588 1.221 1.204 2.322 2.525 3.286 3.944z" transform="translate(-387) translate(1129 200.35)"/>
                            <path fill="#E9E8DB" d="M43.474 28.925h-7.523c-2.076-3.73-5.121-6.825-8.813-8.96-.782-.44-1.594-.827-2.43-1.157-1.614-.641-3.31-1.055-5.038-1.232l-.011-.001.276-.022c.346-.025.694-.044 1.043-.058.08-.003.162-.006.243-.007l.197-.004c.064-.002.129-.002.194-.003.094-.002.188-.002.282-.002.94 0 1.88.05 2.815.152.822.087 1.632.212 2.43.376 4.142.849 8.016 2.697 11.284 5.386.612.502 1.2 1.031 1.765 1.588 1.221 1.204 2.322 2.525 3.286 3.944z" transform="translate(-387) translate(1129 200.35)"/>
                        </g>
                        <g fill-rule="nonzero" opacity=".2" transform="translate(-387) translate(707 213.374)">
                            <ellipse cx="12.279" cy="12.855" fill="#D99D83" rx="12.06" ry="12.081"/>
                            <ellipse cx="7.528" cy="7.078" fill="#BD806A" rx="1.462" ry="1.464"/>
                            <ellipse cx="8.639" cy="14.671" fill="#BD806A" rx="1.111" ry="1.113"/>
                            <path fill="#BD806A" d="M19.028 8.473c0 .47-.38.852-.85.852s-.852-.382-.852-.852c0-.471.381-.853.851-.853.226 0 .442.09.602.25.16.16.25.376.25.603z"/>
                            <ellipse cx="16.078" cy="19.082" fill="#BD806A" rx="1.248" ry="1.25"/>
                            <path fill="#BD806A" d="M6.553 19.57c0 .269-.218.487-.487.487s-.487-.218-.487-.488c0-.269.218-.487.487-.487.13 0 .253.051.344.143.092.091.143.215.143.344zM5.191 10.83c0 .269-.218.487-.487.487-.268 0-.486-.218-.486-.487 0-.27.218-.488.486-.488.13 0 .253.051.345.143.091.091.142.215.142.345z"/>
                        </g>
                        <g fill-rule="nonzero" opacity=".6" transform="translate(-387) translate(1319 289.507)">
                            <path fill="#2A3C90" d="M4.861 9.473h10.474c.267 0 .483.217.483.484v2.67c0 .268-.216.484-.483.484H4.861c-.267 0-.483-.216-.483-.483V9.957c0-.128.05-.252.141-.342.091-.091.214-.142.342-.142z"/>
                            <path fill="#D6C9CA" d="M14.62 4.761v9.665H5.577V4.761c0-.15.007-.298.021-.445C5.826 1.998 7.772.231 10.098.231c2.326 0 4.272 1.767 4.501 4.085.014.147.021.295.022.445z"/>
                            <path fill="#A8AAAD" d="M5.576 4.761H14.620999999999999V14.425999999999998H5.576z"/>
                            <path fill="#D6C9CA" d="M10.098 14.673c-.057 0-.103-.046-.103-.103V4.63c0-.058.046-.104.103-.104.057 0 .103.046.103.103v9.941c0 .057-.046.103-.103.103zM1.344 20.673c-.035 0-.068-.018-.087-.048-.018-.03-.02-.067-.005-.1l2.71-5.577c.017-.035.053-.058.092-.058h1.765c.057 0 .103.047.103.103 0 .057-.046.103-.103.103h-1.7l-2.682 5.52c-.018.035-.054.057-.093.057z"/>
                            <path fill="#BE202E" d="M15.043 4.63c0 .172-.14.312-.313.312H5.466c-.173 0-.313-.14-.313-.313s.14-.313.313-.313h9.264c.083 0 .162.033.221.092s.091.138.091.221z"/>
                            <path fill="#D6C9CA" d="M14.638 6.657H5.576c-.057 0-.103-.046-.103-.103 0-.057.046-.103.103-.103h9.062c.057 0 .103.046.103.103 0 .057-.046.103-.103.103zM12.466 13.387H7.73c-.028 0-.054-.01-.073-.03-.02-.019-.03-.045-.03-.072v-3.08c-.005-.887.465-1.71 1.232-2.154.766-.445 1.712-.445 2.478 0 .767.445 1.237 1.267 1.232 2.154v3.08c0 .027-.01.053-.03.072-.02.02-.045.03-.073.03zm-4.634-.205h4.532v-2.977c.001-.812-.43-1.563-1.132-1.97-.701-.406-1.566-.406-2.268 0-.702.407-1.133 1.158-1.132 1.97v2.977z"/>
                            <path fill="#D6C9CA" d="M11.912 12.73H8.284v-2.525c0-.482.191-.944.531-1.285.34-.34.802-.532 1.283-.532 1.002 0 1.814.814 1.814 1.817v2.524zM18.797 20.673c-.04 0-.075-.022-.093-.057l-2.681-5.52h-1.701c-.057 0-.103-.046-.103-.103 0-.056.046-.103.103-.103h1.765c.04 0 .075.023.092.058l2.71 5.578c.015.032.013.07-.005.1-.02.03-.052.047-.087.047z"/>
                            <path fill="#D6C9CA" d="M19.412 20.673h-1.231c-.057 0-.103-.046-.103-.102 0-.057.046-.103.103-.103h1.231c.057 0 .103.046.103.103 0 .056-.046.102-.103.102zM10.669 22.36H9.437c-.057 0-.103-.046-.103-.103 0-.057.046-.103.103-.103h1.232c.056 0 .102.046.102.103 0 .057-.046.103-.102.103z"/>
                            <path fill="#18154A" d="M15.043 14.993c0 .313-.254.567-.567.567H5.63c-.312 0-.564-.254-.564-.567 0-.312.252-.566.564-.567h8.846c.313 0 .566.254.566.567z"/>
                            <path fill="#BE2026" d="M15.043 15.096h-9.98c-.056 0-.102-.046-.102-.103 0-.056.046-.103.102-.103h9.98c.056 0 .102.047.102.103 0 .057-.046.103-.102.103z"/>
                            <path fill="#09181E" d="M11.334 10.262c0 .303-.11.595-.313.82-.316.354-.807.494-1.262.36-.455-.135-.791-.52-.865-.99-.074-.468.13-.938.52-1.206.377-.257.864-.284 1.266-.071.402.212.654.631.654 1.087z"/>
                            <path fill="#013844" d="M11.334 10.262c0 .303-.11.595-.313.82-.115-1.098-1.606-1.836-1.606-1.836.376-.257.863-.284 1.265-.071.402.212.654.63.654 1.087z"/>
                            <path fill="#18154A" d="M12.286 7.329H14.26V8.329H12.286z"/>
                            <path fill="#18154A" d="M12.286 7.71H14.26V8.71H12.286z"/>
                            <path fill="#D6C9CA" d="M1.96 20.673H.728c-.056 0-.102-.046-.102-.102 0-.057.046-.103.102-.103H1.96c.057 0 .103.046.103.103 0 .056-.046.102-.103.102z"/>
                            <path fill="#18154A" d="M12.286 8.092H14.26V9.092H12.286z"/>
                            <circle cx="6.651" cy="7.574" r="1" fill="#BE202E"/>
                            <circle cx="6.651" cy="8.337" r="1" fill="#09181E"/>
                            <path fill="#D6C9CA" d="M10.053 22.36c-.057 0-.103-.046-.103-.103v-7.264c0-.056.046-.102.103-.102.057 0 .103.046.103.102v7.264c0 .057-.046.103-.103.103z"/>
                            <path fill="#E6E7E7" d="M15.818 9.957v2.67c0 .268-.216.484-.483.484h-.714v1.315h-.145c.312.001.564.255.564.567 0 .313-.252.566-.564.567h-1.163v-9.1c.002-.508-.036-1.016-.113-1.518-.01-.061-.019-.121-.03-.18-.027-.154-.057-.302-.091-.446-.314-1.748-1.413-3.255-2.98-4.085 2.325 0 4.271 1.767 4.5 4.085h.131c.173 0 .312.14.312.313s-.14.313-.312.313h-.11v4.531h.715c.267 0 .483.216.483.484z" style="mix-blend-mode:multiply"/>
                            <path fill="#A8AAAD" d="M6.847 3.325c-.035 0-.067-.018-.086-.047-.02-.029-.022-.065-.009-.097.274-.626.703-1.171 1.246-1.584.233-.183.489-.335.76-.453.054-.02.113.006.133.06.02.052-.006.112-.058.132-.845.389-1.518 1.074-1.892 1.927-.017.037-.054.062-.094.062z"/>
                        </g>
                        <g opacity=".4" transform="translate(-387) translate(871 103.18)">
                            <g>
                                <ellipse cx="25.569" cy="25.596" fill="url(#sz7ep1ubph)" fill-rule="nonzero" rx="25.022" ry="25.066"/>
                            </g>
                            <ellipse cx="25.083" cy="25.376" fill="#7ED0DE" fill-rule="nonzero" rx="16.196" ry="16.225" transform="rotate(-3.372 25.083 25.376)"/>
                            <g transform="translate(7 8.014)">
                                <mask id="x7hrqayccj" fill="#fff">
                                    <use xlink:href="#3274fibzwi"/>
                                </mask>
                                <g fill="#48B549" fill-rule="nonzero" mask="url(#x7hrqayccj)">
                                    <g>
                                        <path d="M28.27 24.444c-.037-1.131.87-.717 1.47-1.502.428-.839.536-1.805.306-2.718-.06-.576-.628-.86-.778-1.418-.172-.477.225-.671.224-1.146-.015-.262-.335-.35-.3-.641.037-.292.313-.518.459-.738.328-.35.573-.769.72-1.226.079-.453-.075-.839.085-1.27.17-.47.527-.675.497-1.2-.03-.526-.453-1.028-.584-1.495-.13-.5-.317-.985-.556-1.444-.44.829-.187 1.802-1.104 2.329-.458.263-.972.253-1.42.476-.386.276-.715.626-.966 1.03-.764.913-1.718.783-2.675 1.298-.474.346-.902.751-1.273 1.206-.36.376-.954.344-1.263.69-.494.556.145 1.85.59 2.272.307.22.51.556.565.93.148.45.35.88.6 1.283.163.346.142.9.398 1.229.284.379.659.265 1.045.586.427.331.537.878.85 1.308.274.308.596.57.952.776.494-.555.913-.355 1.37.027.553.495.517.787.605 1.415-.021.08-.145.219-.127.31.019.091.3.167.278.247.091.456.156.216-.134.654-.135.179-.557.15-.444.525.103.257.386.39.649.306.048.451-.154.893-.527 1.15-.204.117-.466.132-.67.249-.254.146-.28.398-.593.442-.728.147-.677-.357-.82-.783-.171-.478-.441-.594-.664-1.043-.392.97-.665 1.026-1.55 1.432-.833.377-1.365-.199-2.213-.085-.848.115-1.474.677-2.363.306-.5-.222-.332-.52-1.013-.232-.334.125-.866.497-.235.712-.15.39-.706.54-.647 1.117.062.405.5.696.85.834.043-.16.14-.522.323-.559.386-.153.197.226.488.262.463.04.877-.537 1.336-.326 1.05.415-1.043 1.311-1.517 1.312-.473 0-2.407-.482-2.184.44.118.678 2.262.701 2.783.843 1.224.246 2.39.865 3.66.78 1.694-.194 3.327-.75 4.787-1.63.713-.41 1.565-.695 2.278-1.105.505-.4.878-.945 1.068-1.562.316-.69.134-.654-.238-1.186-.145-.186-.279-.38-.401-.583-.128-.164-.398-.28-.474-.473-.117-.204-.012-.434-.088-.628-.026-.222-.234-.408-.31-.601-.19-.569.154-1.208-.349-1.732-.335-.35-.736-.459-.704-1.054l-.051-.396zM8.352 29.324c.3.642 1.645-.199 1.648-.845.003-.645-.303-.47-.638-.82-.099-.112-.063-.404-.161-.517-.128-.164-.492-.09-.58-.244-.145-.255.12-.915.356-1.153.462-.435.688-.158 1.223-.228.575-.059.943-.304.855-.93-.088-.628-.474-.475-.882-.715-.27-.116-.282-.55-.715-.539-.358.01-.66.269-.727.621-.86.155-.503-.524-.657-.91-.19-.57-.452-.08-1.042-.284.12-.441-.095-.758-.495-.393-.179-.135-.172-.478-.23-.58-.18-.135-.562-.152-.66-.265-.168-.175-.391-1.098-.085-1.273.52-.333.87.754 1.17.921.258.157.295-.135.564-.019.216.17.408.367.573.587.3.397.717.69 1.191.84.421.015.841.057 1.257.127.362.136.756.168 1.136.093.195-.072.373-.185.52-.332.051-.03.025-.252.076-.281.113-.1.222-.026.324-.085.459-.263.881-.234 1.204-.793.19-.38.149-.865.377-1.233.717-1.055 1.463-1.111.522-2.401-.354-.441-.657-.911-1.021-1.312-.453-.554-.555-.495-1.228-.55-.427-.038-.832-.209-1.159-.486-.496-.394-.474-.474-.35-1.087.071-.425.184-.841.336-1.244.25-.45.473-.475.454-1.04.021-.555-.322-1.036.26-1.438.47-.303.878-.063 1.201-.622.541-.887.376-1.707 1.137-2.449.607-.653 1.588-1.895.277-2.294-1.191-.367-3.088.28-4.194.713-2.548.988-4.855 2.042-6.115 4.63-1.398 2.961-2.508 6.05-3.316 9.225-.615 2.026-.115 4.227 1.315 5.787 1.054 1.192 2.148 2.868 3.511 3.712.817.48 2.02-.312 2.593.274l.175-.168zM15.542 33.907c-.613-.597.188-.854.428-1.262.217-.747.254-1.535.106-2.299-.515.555-1.205.915-1.954 1.02-.615.049-1.667.28-1.644 1.148.02 1.514 1.998 1.836 3.02 1.554l.044-.16zM12.987 31.27c.27-.165.576-.258.89-.271.423.028.635-.345.346-.596-.271-.186-.572-.326-.89-.414-.106.206-.231.402-.372.586l.026.695z" transform="translate(0 -2.004)"/>
                                        <path d="M10.626 28.391c-.078-.096-.106-.224-.074-.343.033-.12.121-.216.237-.259.448-.223.36-.376.142-.522-.219-.145-.543-.061-.561-.152-.018-.091.712-.884-.34-1.127-1.053-.243-.64.773-.523.978.209.523.492 1.013.842 1.455.296.19.277-.03.277-.03zM25.26 27.69c.076.131.176.246.295.339.09.039.494.134.494.134l.414-.361c.062-.036.115-.085.154-.145.035-.077-.25-.298-.25-.298l-.48-.13-.468-.128-.48-.13c-.15.008-.297.036-.439.082l-.076.28.292.195.544.162zM24.34 26.377c.204.013.41 0 .61-.035.113-.041.07-.254.07-.254s-.257-.271-.298-.225c-.041.047-.327-.009-.318-.097.01-.087-.24-.328-.24-.328s-.395.08-.378.228c.017.149-.117.486-.061.544.056.058.26.257.26.257l.354-.09zM28.128 6.213c1.63.913-.33 2.261-1.578 2.016-1.796-.3-2.577-1.923-4.286-2.199-1.709-.276-3.448-.091-4.714-1.657-.43-.493-1.688-2.434-1.498-3.135.356-1.313 2.303-.878 3.265-.617 2.71.737 7.973 2.45 8.66 5.457" transform="translate(0 -2.004)"/>
                                    </g>
                                </g>
                            </g>
                            <path fill="#144D6E" fill-rule="nonzero" d="M1.452 12.112c-2.343 8.648 2.757 17.56 11.39 19.907.094.026.19.05.284.074-.335-.246-10.67-7.905-7.734-18.744C8.376 2.332 21.324.702 21.324.702 12.69-1.645 3.794 3.464 1.452 12.112z" opacity=".2" transform="translate(8 9.016)"/>
                        </g>
                        <path d="M387 0H1753V545.956H387z" transform="translate(-387)"/>
                        <g opacity=".8">
                            <g opacity=".5">
                                <path fill="#FFF" d="M514.69 111.28c-1.113-.004-2.12.664-2.55 1.692-.43 1.029-.2 2.216.585 3.008.784.792 1.967 1.032 2.997.61 1.03-.423 1.705-1.426 1.71-2.541.003-.732-.283-1.435-.798-1.954-.514-.52-1.214-.813-1.944-.815zM399.098 33.444c-.763 0-1.382.62-1.382 1.384 0 .765.619 1.384 1.382 1.384.763 0 1.382-.62 1.382-1.384-.004-.763-.62-1.38-1.382-1.384zM524.118.375c-.363-.003-.713.139-.972.394-.26.256-.407.604-.41.968.002.763.62 1.381 1.382 1.381.762 0 1.38-.618 1.382-1.38-.002-.365-.15-.713-.409-.969-.259-.255-.609-.397-.973-.394zM436.054 135.06c-.56 0-1.063.337-1.277.855-.214.517-.096 1.112.3 1.508.395.396.989.515 1.505.3.517-.214.853-.719.853-1.279-.003-.763-.62-1.38-1.381-1.384zM542.997 197.29c-.761.001-1.378.62-1.378 1.384 0 .763.617 1.382 1.378 1.384.755-.012 1.36-.629 1.36-1.384 0-.756-.605-1.372-1.36-1.385zM480.275 247.506c-.363.002-.71.15-.966.41-.255.26-.396.61-.393.974-.003.362.14.71.395.966.256.256.603.398.964.396.364.003.714-.138.973-.394.26-.255.407-.604.41-.968-.004-.763-.621-1.38-1.383-1.384zM463.737 53.606c-.459.006-.827.382-.825.841.002.46.373.832.832.834.459.002.834-.367.84-.826.001-.226-.088-.442-.247-.602-.159-.16-.375-.248-.6-.247zM548.659 86.697c-.458.006-.825.379-.825.837 0 .458.367.831.825.837.301.004.581-.154.733-.415.152-.26.152-.583 0-.844-.152-.26-.432-.42-.733-.415zM440.155 226.897c-.462-.007-.841.363-.847.826-.006.462.363.842.824.848.462.006.841-.364.847-.826.006-.223-.079-.438-.234-.598-.155-.16-.368-.25-.59-.25zM503.055 302.523c-.457.006-.825.379-.825.837 0 .458.368.831.825.837.301.004.581-.154.733-.415.152-.26.152-.583 0-.844-.152-.26-.432-.42-.733-.415zM444.88 4.774c-.34-.005-.649.198-.781.512s-.062.676.179.917c.24.241.603.312.916.18.313-.133.515-.442.51-.783-.008-.452-.372-.817-.824-.826z" transform="translate(-387) translate(0 31.054)"/>
                                <path fill="#B63926" fill-rule="nonzero" d="M.964 509.235l583.1 29.982v-268.88h-207.05c-16.022 0-31.363 6.492-42.53 18l-16.07 16.58c-11.163 11.51-26.501 18.003-42.52 18.001h-117.49c-19.667 0-38.054 9.773-49.08 26.086l-33.11 48.966-13.55 20.035-61.7 91.23z" transform="translate(-387) translate(0 31.054)"/>
                                <path fill="#892B1C" fill-rule="nonzero" d="M281.062 393.794v11.861c0 1.948.771 3.816 2.146 5.193 1.375 1.377 3.24 2.15 5.184 2.15h73.67c1.944 0 3.809.773 5.184 2.15 1.374 1.377 2.146 3.245 2.146 5.193v.01c-.002 4.054-3.283 7.34-7.33 7.343h-17.67c-1.944-.001-3.81.772-5.184 2.15-1.375 1.377-2.147 3.245-2.146 5.192v3.346c.002 4.055 3.283 7.34 7.33 7.343h177.84c4.047-.002 7.328-3.288 7.33-7.343v-3.346c0-1.947-.772-3.815-2.146-5.192-1.375-1.378-3.24-2.151-5.184-2.15h-103.17c-4.047-.003-7.328-3.289-7.33-7.343v-.01c0-1.948.771-3.816 2.146-5.193 1.375-1.377 3.24-2.15 5.184-2.15h165V386.45h-50.34c-4.047-.002-7.328-3.288-7.33-7.342v-.17c.002-4.055 3.283-7.341 7.33-7.344h50.34v-22.71h-25c-1.944.001-3.81-.772-5.184-2.15-1.375-1.377-2.147-3.245-2.146-5.192v-3.346c0-1.948.771-3.816 2.146-5.193 1.375-1.377 3.24-2.15 5.184-2.15h25V305.48h-201.67c-1.944 0-3.81.772-5.184 2.15-1.375 1.377-2.147 3.245-2.146 5.192v10.69c0 1.947.771 3.815 2.146 5.192 1.375 1.377 3.24 2.15 5.184 2.15h111.34c1.944 0 3.809.773 5.184 2.15 1.374 1.377 2.146 3.245 2.146 5.193v3.346c0 1.947-.772 3.815-2.146 5.193-1.375 1.377-3.24 2.15-5.184 2.15h-37.34c-1.944-.001-3.81.772-5.184 2.15-1.375 1.377-2.147 3.245-2.146 5.192v8.025c.002 4.054 3.283 7.34 7.33 7.342h20.34c1.944 0 3.809.773 5.184 2.15 1.374 1.378 2.146 3.246 2.146 5.193v.17c0 1.948-.772 3.816-2.146 5.193-1.375 1.378-3.24 2.151-5.184 2.15h-188.34c-1.944 0-3.81.773-5.184 2.15-1.375 1.378-2.146 3.246-2.146 5.193z" transform="translate(-387) translate(0 31.054)"/>
                                <path fill="#841E19" fill-rule="nonzero" d="M550.21 243.744h2.953c1.984-.025 3.882-.813 5.303-2.2 2.93-2.935 2.93-7.692 0-10.626-1.424-1.383-3.32-2.17-5.303-2.2h-2.953c-1.984.025-3.883.813-5.304 2.2-2.929 2.934-2.929 7.691 0 10.625 1.424 1.383 3.32 2.17 5.304 2.2z" transform="translate(-387) translate(0 31.054)"/>
                                <path fill="#A8AAAD" fill-rule="nonzero" d="M565.195 210.152H566.726V220.01399999999998H565.195z" transform="translate(-387) translate(0 31.054)"/>
                                <path fill="#595A5C" fill-rule="nonzero" d="M543.578 214.558s12.468 2.284 23.148-4.406c6.231-3.76 10.874-9.673 13.053-16.625l-36.201 21.031z" transform="translate(-387) translate(0 31.054)"/>
                                <path fill="#BFC0C2" fill-rule="nonzero" d="M584.063 220.443v49.891h-68.086c-.002-2.668.2-5.332.602-7.97.059-.384.121-.769.188-1.15.461-2.632 1.124-5.224 1.984-7.753.131-.384.266-.77.405-1.15.982-2.678 2.18-5.27 3.585-7.752.218-.386.442-.77.671-1.15 1.651-2.753 3.551-5.349 5.677-7.753.343-.388.693-.771 1.049-1.15 2.741-2.927 5.81-5.528 9.143-7.753.591-.396 1.19-.78 1.8-1.15 12.915-7.848 28.582-9.729 42.982-5.16z" transform="translate(-387) translate(0 31.054)"/>
                                <path fill="#A8AAAD" fill-rule="nonzero" d="M584.063 225.602v1.15h-44.782c.59-.395 1.19-.779 1.8-1.15h42.982zM584.063 234.506v1.15H529.09c.343-.388.693-.771 1.049-1.15h53.925zM584.063 243.409v1.15h-61.322c.218-.386.442-.77.671-1.15h60.651zM584.063 252.31v1.151h-65.312c.131-.384.266-.77.405-1.15h64.907zM584.063 261.214v1.15H516.58c.059-.384.121-.769.188-1.15h67.296z" transform="translate(-387) translate(0 31.054)"/>
                                <path fill="#7E7F81" fill-rule="nonzero" d="M549.962 256.995h3.393c7.355 0 13.316 5.972 13.316 13.34h-30.025c0-3.539 1.403-6.931 3.9-9.433 2.498-2.502 5.885-3.907 9.416-3.907z" transform="translate(-387) translate(0 31.054)"/>
                                <path fill="#595A5C" fill-rule="nonzero" d="M536.646 267.514v2.82h8.86v-2.82c0-2.79 1.106-5.466 3.076-7.438 1.969-1.973 4.64-3.081 7.425-3.081h-8.86c-2.785 0-5.456 1.108-7.425 3.08-1.97 1.973-3.076 4.649-3.076 7.439z" transform="translate(-387) translate(0 31.054)"/>
                                <path fill="#EC7C31" fill-rule="nonzero" d="M523.903 263.665c-.995-.003-1.802-.811-1.804-1.808V260.5c.002-.997.809-1.805 1.804-1.808.996.003 1.802.81 1.805 1.808v1.356c-.003.997-.81 1.805-1.805 1.808zM572.086 263.665c-.996-.003-1.802-.811-1.805-1.808V260.5c.003-.997.81-1.805 1.805-1.808.995.003 1.802.81 1.805 1.808v1.356c-.003.997-.81 1.805-1.805 1.808zM578.977 263.665c-.996-.003-1.802-.811-1.805-1.808V260.5c.003-.997.81-1.805 1.805-1.808.995.003 1.802.81 1.805 1.808v1.356c-.003.997-.81 1.805-1.805 1.808zM531.724 263.665c-.995-.003-1.802-.811-1.805-1.808V260.5c.003-.997.81-1.805 1.805-1.808.996.003 1.802.81 1.805 1.808v1.356c-.003.997-.81 1.805-1.805 1.808z" transform="translate(-387) translate(0 31.054)"/>
                                <path fill="#7E7F81" fill-rule="nonzero" d="M545.506 234.86h5.415c1.933 0 3.5-1.569 3.5-3.505 0-1.937-1.567-3.506-3.5-3.506h-5.415c-1.933 0-3.5 1.57-3.5 3.506 0 1.936 1.567 3.506 3.5 3.506zM564.21 235.19c4.505 0 4.512-7.013 0-7.013-4.504 0-4.511 7.013 0 7.013zM574.875 225.657c4.504 0 4.512-7.013 0-7.013-4.504 0-4.512 7.013 0 7.013zM576.352 237.327H557.1c-4.505 0-4.512 7.012 0 7.012h19.25c4.505 0 4.512-7.012 0-7.012zM528.661 253.214h8.97c4.504 0 4.511-7.012 0-7.012h-8.97c-4.504 0-4.511 7.012 0 7.012z" transform="translate(-387) translate(0 31.054)"/>
                                <path fill="#7E7F81" fill-rule="nonzero" d="M542.662 253.324c4.504 0 4.512-7.012 0-7.012-4.504 0-4.511 7.012 0 7.012zM576.024 253.324c4.504 0 4.511-7.012 0-7.012-4.505 0-4.512 7.012 0 7.012z" transform="translate(-387) translate(0 31.054)"/>
                                <path fill="#7E7F81" fill-rule="nonzero" d="M577.336 252.01c4.504 0 4.512-7.013 0-7.013-4.504 0-4.511 7.012 0 7.012z" transform="translate(-387) translate(0 31.054)"/>
                                <path fill="#7E7F81" fill-rule="nonzero" d="M578.211 253.653c4.504 0 4.512-7.013 0-7.013-4.504 0-4.511 7.013 0 7.013zM533.857 243.079c4.504 0 4.512-7.012 0-7.012-4.504 0-4.512 7.012 0 7.012zM563.311 206.863c-9.997 5.809-18.832 9.254-19.733 7.696-.902-1.558 6.47-7.53 16.467-13.338 9.997-5.807 18.832-9.252 19.734-7.694.901 1.558-6.47 7.53-16.468 13.336z" transform="translate(-387) translate(0 31.054)"/>
                                <path fill="#595A5C" fill-rule="nonzero" d="M579.78 193.527c-17.904 6.384-36.202 21.032-36.202 21.032-.902-1.558 6.47-7.53 16.467-13.338 9.997-5.807 18.832-9.252 19.734-7.694z" transform="translate(-387) translate(0 31.054)"/>
                                <path fill="#D8D9D9" fill-rule="nonzero" d="M564.75 206.002L563.664 206.643 554.775 194.336 555.739 193.527z" transform="translate(-387) translate(0 31.054)"/>
                                <path fill="#FFF" d="M421.065 249.214c.751-.43 2.996-.736 3.622-.136 1.2 1.15 2.829 7.426 2.849 9.826-.095.955-.774 1.75-1.701 1.992-1.751.404-4.089.891-5.382-.361-2-1.953-3.004-4.712-2.725-7.496.278-1.89 1.678-2.882 3.337-3.825z" transform="translate(-387) translate(0 31.054)"/>
                                <path fill="#B2BFDD" d="M426.426 260.648c-.183.114-.382.198-.591.248-1.751.404-4.089.891-5.382-.361-2-1.953-3.004-4.712-2.725-7.496.292-1.48 1.26-2.737 2.615-3.396 1.528-.256 3.097-.512 3.558.01 1.78 2.003 2.34 7.745 2.525 10.995z" transform="translate(-387) translate(0 31.054)"/>
                                <path fill="#B2BFDD" d="M420.145 252.642c2.378-.572 5.697 4.302 3.87 8.099-1.009 2.103-3.06 2.55-3.89 4.294-.556 1.167.441 2.339 0 3.875-1.44.562-2.989.789-4.53.662-.237-.805.664-1.58 1.834-1.613-.69-1.1-.906-2.434-.598-3.697.654-1.877 1.405-2.093 2.54-3.724.293-1.24-1.067-3.248-1.766-3.913-1.613.987-3.439 1.572-5.324 1.704-.633-.273-.957-.98-.752-1.639 2.578-.507 4.217-2.023 6.52-3.473.658-.317 1.368-.512 2.096-.575z" transform="translate(-387) translate(0 31.054)"/>
                                <path fill="#9EACCC" d="M412.77 258.299c-.16.012-.324.022-.489.03-.633-.273-.957-.98-.752-1.639.19-.035.374-.08.554-.128.02.01.04.02.06.028.481.226 1.02.82.875 1.33-.045.147-.131.279-.248.379zM417.43 267.959c-.512-.83-.773-1.79-.752-2.766.682.345 1.467.429 2.207.236.403.983.547 2.054.416 3.11-.506-.464-1.193-.677-1.872-.58z" transform="translate(-387) translate(0 31.054)"/>
                                <path fill="#C35A5A" d="M415.017 257.8c-.155.055-.306.105-.456.15.115-.766-.182-1.536-.782-2.025.183-.09.363-.186.541-.284.561.568.82 1.37.697 2.158zM420.38 264.588c-.095.142-.18.29-.255.444-.676-1.776-1.869-2.18-2.833-1.824.116-.21.247-.412.393-.602 1.235-.347 2.265.798 2.696 1.982z" transform="translate(-387) translate(0 31.054)"/>
                                <path fill="#C35A5A" d="M420.934 263.93c-.092.094-.182.189-.268.287-.5-1.72-1.42-2.397-2.3-2.42.14-.16.289-.33.446-.52 1.148.418 1.966 1.441 2.122 2.654z" transform="translate(-387) translate(0 31.054)"/>
                                <path fill="#FFF" d="M419.01 247.321c-1.466 0-2.788.885-3.349 2.242-.561 1.357-.25 2.92.786 3.958 1.037 1.039 2.596 1.35 3.95.787 1.355-.562 2.238-1.886 2.238-3.355 0-2.006-1.623-3.631-3.625-3.632z" transform="translate(-387) translate(0 31.054)"/>
                                <path fill="#B2BFDD" d="M418.79 247.329c-1.42.087-2.658.998-3.165 2.33-.507 1.331-.19 2.837.811 3.85 1 1.012 2.5 1.344 3.834.85.116-1.08.123-2.17.02-3.25.084-1.42-.465-2.805-1.5-3.78z" transform="translate(-387) translate(0 31.054)"/>
                                <path fill="#FFF" d="M424.737 258.201c1.496 3.07.86 4.512 1.205 7.012.387 1.419.544 2.89.464 4.36-.228.89-3.026.86-3.718.31-.056-.346.041-.7.266-.969.224-.27.554-.428.904-.436-.073-1.877-2.29-3.212-1.746-6.03.074-1.778 1.07-3.388 2.625-4.247z" transform="translate(-387) translate(0 31.054)"/>
                                <path fill="#D1DAEF" d="M423.858 268.478c-.04-1.051-.754-1.932-1.278-2.999.797.467 1.785.46 2.576-.017.45 1.142.645 2.37.574 3.596-.506-.464-1.193-.677-1.872-.58z" transform="translate(-387) translate(0 31.054)"/>
                                <path fill="#F6989A" d="M425.825 263.675c-.003.2.015.394.025.605-1.3-1.456-2.718-.608-3.548.554-.062-.172-.115-.348-.158-.527 1.336-1.804 2.851-1.533 3.68-.632z" transform="translate(-387) translate(0 31.054)"/>
                                <path fill="#F6989A" d="M425.802 262.656c-.005.19.018.426.013.62-1.408-1.873-2.899-.997-3.783.256-.013-.26-.002-.519.032-.776 1.436-1.75 2.974-1.195 3.738-.1z" transform="translate(-387) translate(0 31.054)"/>
                                <path fill="#FFF" d="M421.864 252.823c1.142-1.232 3.733 1.395 3.585 3.714-.285 2.101-1.877 3.785-3.956 4.184-1.117.233-2.247-1.032-1.28-1.64 1.864-1.171 2.635-2.107 2.362-3.164-.335-1.315-1.78-1.94-.711-3.094z" transform="translate(-387) translate(0 31.054)"/>
                                <path fill="#D1DAEF" d="M421.493 260.72c-1.117.232-2.247-1.03-1.28-1.638.075-.048.148-.093.218-.14.124.04.245.089.363.145.479.226 1.017.818.872 1.328-.033.114-.093.218-.173.306z" transform="translate(-387) translate(0 31.054)"/>
                                <path fill="#9EACCC" d="M424.234 253.448c.179.198.342.41.488.632-.377.322-.803.581-1.262.768-.128-.236-.341-.51-.469-.745.45-.14.872-.363 1.243-.655z" transform="translate(-387) translate(0 31.054)"/>
                                <path fill="#F6989A" d="M424.655 258.685c-.09.124-.186.243-.288.357-.491-1.25-1.238-1.8-1.975-1.88.098-.17.168-.353.208-.545 1.001.278 1.782 1.064 2.055 2.068z" transform="translate(-387) translate(0 31.054)"/>
                                <path fill="#4E4E4E" d="M415.41 250.516c.982.768 3.753.849 5.662-.386.487.918.59 1.992.288 2.986-1.09 1.005-2.61 1.396-4.048 1.044-1.186-.628-1.928-1.863-1.927-3.207 0-.146.008-.292.025-.437z" transform="translate(-387) translate(0 31.054)"/>
                                <path fill="#1A1A1A" d="M415.41 250.516c.852.665 3.044.816 4.858.04.015.184.023.367.023.553 0 .988.125 1.99.062 2.748-.962.396-2.02.501-3.041.303-1.186-.628-1.928-1.863-1.927-3.207 0-.146.008-.292.025-.437z" transform="translate(-387) translate(0 31.054)"/>
                                <path fill="#D1DAEF" d="M423.846 264.016c-.463.105-.766.549-.697 1.018.07.47.49.806.962.771.473-.034.839-.428.84-.903-.069-.546-.558-.939-1.105-.886zM417.813 263.486c-.462.106-.765.55-.694 1.02.07.47.49.805.962.77.473-.035.838-.429.84-.904-.069-.547-.56-.94-1.108-.886z" transform="translate(-387) translate(0 31.054)"/>
                                <path fill="#FFF" d="M424.226 253.533c-.322.264-.692.464-1.09.59.1.186.266.396.366.582.388-.161.75-.38 1.073-.65-.1-.186-.25-.336-.349-.522z" transform="translate(-387) translate(0 31.054)"/>
                                <path fill="#F6989A" d="M424.226 253.533c-.322.264-.692.464-1.09.59.058.105.136.218.208.329.38-.17.738-.387 1.065-.645-.068-.086-.13-.178-.183-.274z" transform="translate(-387) translate(0 31.054)"/>
                                <path fill="#B2BFDD" d="M420.601 249.219c-.12 0-.227.072-.273.183-.046.11-.02.238.064.322.085.085.212.11.322.065.11-.046.183-.154.183-.274 0-.163-.133-.296-.296-.296z" transform="translate(-387) translate(0 31.054)"/>
                                <path fill="#FFF" d="M420.621 249.284c-.085 0-.162.051-.194.13-.033.079-.015.17.045.23s.151.078.23.046c.078-.033.13-.11.13-.195 0-.056-.022-.11-.062-.15-.04-.039-.093-.061-.149-.061z" transform="translate(-387) translate(0 31.054)"/>
                                <path fill="#9EACCC" d="M419.782 249.583c-.12 0-.227.072-.273.183-.046.11-.02.238.064.322.084.085.212.11.322.064.11-.045.183-.153.183-.273 0-.164-.133-.296-.296-.296z" transform="translate(-387) translate(0 31.054)"/>
                                <path fill="#FFF" d="M419.805 249.648c-.085 0-.161.052-.193.13-.032.079-.013.169.047.229s.15.077.228.044c.078-.033.128-.11.128-.195-.001-.115-.095-.209-.21-.208zM420.363 259.24c.479.226 1.017.818.872 1.33-.153.54-.92.778-1.48.806-.615.082-1.227-.162-1.617-.645-.197-.354.046-.688.7-.992-.54-.045-.795-.416-.564-.564.666-.316 1.444-.292 2.09.065z" transform="translate(-387) translate(0 31.054)"/>
                                <path fill="#B2BFDD" d="M411.725 256.647c.478.224 1.017.819.872 1.328-.153.54-.92.778-1.48.808-.615.082-1.228-.163-1.617-.647-.198-.354.045-.688.7-.992-.54-.042-.795-.416-.565-.564.667-.317 1.445-.292 2.09.067z" transform="translate(-387) translate(0 31.054)"/>
                                <path fill="#DA7991" fill-rule="nonzero" d="M400.721 240.013H410.807V246.644H400.721z" transform="translate(-387) translate(0 31.054) rotate(-180 405.764 243.328)"/>
                                <path fill="#F4EDF1" fill-rule="nonzero" d="M400.721 240.99H410.807V241.99H400.721zM400.721 242.895H410.807V243.895H400.721zM400.721 244.8H410.807V245.8H400.721z" transform="translate(-387) translate(0 31.054)"/>
                                <path fill="#DBD2DA" fill-rule="nonzero" d="M410.807 270.199c.114 0 .224-.046.305-.127.08-.081.126-.191.126-.306v-29.753c0-.238-.194-.43-.431-.43-.238 0-.43.192-.432.43v29.753c0 .115.046.225.127.306.08.081.19.127.305.127z" transform="translate(-387) translate(0 31.054)"/>
                            </g>
                        </g>
                    </g>
                </g>
            </g>
        </g>
    </g>
</svg>
