<svg xmlns="http://www.w3.org/2000/svg" xmlns:xlink="http://www.w3.org/1999/xlink" width="110" height="110" viewBox="0 0 55 55">
    <defs>
        <path id="9iiw069dca" d="M0 0.918L54.082 0.918 54.082 55 0 55z"/>
        <path id="x894n0n6gc" d="M0.301 0.657L47.074 0.657 47.074 53.203 0.301 53.203z"/>
    </defs>
    <g fill="none" fill-rule="evenodd">
        <g>
            <g>
                <g>
                    <g transform="translate(-63 -318) translate(0 64) translate(63 254)">
                        <mask id="lruz6p1ggb" fill="#fff">
                            <use xlink:href="#9iiw069dca"/>
                        </mask>
                        <path fill="#5293AC" d="M27.041 55c14.894 0 27.041-12.147 27.041-27.041S41.935.918 27.042.918C12.146.918 0 13.065 0 27.958 0 42.854 12.147 55 27.041 55" mask="url(#lruz6p1ggb)"/>
                    </g>
                    <g transform="translate(-63 -318) translate(0 64) translate(63 254) translate(7 1)">
                        <mask id="r0r4fzij1d" fill="#fff">
                            <use xlink:href="#x894n0n6gc"/>
                        </mask>
                        <path fill="#83A7B8" d="M26.394.657c11.877 2.927 20.68 13.578 20.68 26.272 0 12.696-8.803 23.347-20.68 26.274-7.435-1.832-13.664-6.691-17.285-13.184.82-.44 1.378-1.301 1.378-2.292 0-1.438-1.174-2.604-2.622-2.604-.293 0-.572.048-.835.135-.853-2.624-1.316-5.422-1.316-8.329 0-.374.01-.747.025-1.116C2.625 25.106.3 22.34.3 19.034c0-3.84 3.136-6.952 7.004-6.952.905 0 1.77.17 2.564.48.364-.575.749-1.136 1.154-1.683-.387-.449-.622-1.03-.622-1.667 0-1.417 1.157-2.566 2.585-2.566.537 0 1.036.163 1.45.44 3.322-3.06 7.415-5.308 11.958-6.429" mask="url(#r0r4fzij1d)"/>
                    </g>
                    <path fill="#C6D0CE" d="M14.12 13.977c3.38 0 6.122 2.739 6.122 6.116s-2.741 6.115-6.122 6.115c-3.38 0-6.12-2.738-6.12-6.115 0-3.377 2.74-6.116 6.12-6.116m14.03-6.86c.518 0 .936.417.936.934 0 .516-.418.935-.935.935-.517 0-.936-.419-.936-.935 0-.517.42-.935.936-.935M30.413 3c.324 0 .587.264.587.588 0 .323-.263.586-.587.586-.325 0-.588-.263-.588-.586 0-.324.263-.588.588-.588M22.69 23.99c.818 0 1.466.646 1.466 1.464 0 .816-.648 1.465-1.466 1.465-.817 0-1.466-.649-1.466-1.465 0-.818.649-1.465 1.466-1.465m3.623 1.745c.633 0 1.134.5 1.134 1.133 0 .632-.5 1.133-1.134 1.133-.633 0-1.134-.5-1.134-1.133s.5-1.133 1.134-1.133M19.788 8.295c1.07 0 1.937.868 1.937 1.936 0 1.067-.867 1.935-1.937 1.935s-1.937-.868-1.937-1.935c0-1.068.867-1.936 1.937-1.936M14.694 43.069c1.034 0 1.874.878 1.874 1.965 0 1.085-.84 1.966-1.874 1.966-1.035 0-1.874-.881-1.874-1.966 0-1.087.84-1.965 1.874-1.965m.432-5.778c1.035 0 1.874.88 1.874 1.966 0 1.086-.84 1.966-1.874 1.966-1.035 0-1.874-.88-1.874-1.966 0-1.085.84-1.966 1.874-1.966M3.8 30c.443 0 .801.376.801.84 0 .463-.358.84-.801.84-.442 0-.8-.377-.8-.84 0-.464.358-.84.8-.84m4.208 1.687c1.763 0 3.191 1.498 3.191 3.347 0 1.848-1.428 3.347-3.191 3.347s-3.19-1.499-3.19-3.347c0-1.849 1.427-3.347 3.19-3.347" transform="translate(-63 -318) translate(0 64) translate(63 254)"/>
                </g>
            </g>
        </g>
    </g>
</svg>
